G04*
G04 #@! TF.GenerationSoftware,Altium Limited,Altium Designer,24.10.1 (45)*
G04*
G04 Layer_Physical_Order=1*
G04 Layer_Color=255*
%FSTAX25Y25*%
%MOIN*%
G70*
G04*
G04 #@! TF.SameCoordinates,1923906C-CB37-41EA-8CB1-2C45B085819D*
G04*
G04*
G04 #@! TF.FilePolarity,Positive*
G04*
G01*
G75*
%ADD24R,0.05118X0.03543*%
%ADD25R,0.05433X0.03622*%
%ADD26R,0.04567X0.05787*%
G04:AMPARAMS|DCode=27|XSize=36.22mil|YSize=54.33mil|CornerRadius=4.53mil|HoleSize=0mil|Usage=FLASHONLY|Rotation=90.000|XOffset=0mil|YOffset=0mil|HoleType=Round|Shape=RoundedRectangle|*
%AMROUNDEDRECTD27*
21,1,0.03622,0.04528,0,0,90.0*
21,1,0.02717,0.05433,0,0,90.0*
1,1,0.00906,0.02264,0.01358*
1,1,0.00906,0.02264,-0.01358*
1,1,0.00906,-0.02264,-0.01358*
1,1,0.00906,-0.02264,0.01358*
%
%ADD27ROUNDEDRECTD27*%
%ADD28R,0.06500X0.06000*%
%ADD29R,0.06000X0.06500*%
%ADD30R,0.03819X0.05433*%
%ADD31R,0.05709X0.04331*%
%ADD32R,0.05433X0.03819*%
%ADD33R,0.05787X0.04606*%
%ADD34R,0.05591X0.03937*%
%ADD35R,0.05433X0.03976*%
%ADD36R,0.07165X0.04567*%
%ADD37R,0.07874X0.03150*%
%ADD79C,0.02000*%
%ADD80R,0.09000X0.06000*%
%ADD81O,0.09000X0.06000*%
%ADD82R,0.04331X0.04331*%
%ADD83C,0.04331*%
%ADD84C,0.07000*%
%ADD85C,0.09055*%
%ADD86R,0.09055X0.09055*%
%ADD87R,0.07874X0.07874*%
%ADD88C,0.01968*%
%ADD89C,0.19685*%
%ADD90R,0.09055X0.09055*%
%ADD91R,0.04842X0.04842*%
%ADD92C,0.04842*%
%ADD93O,0.10000X0.07000*%
%ADD94R,0.10000X0.07000*%
%ADD95O,0.07874X0.07874*%
%ADD96C,0.05551*%
%ADD97R,0.05551X0.05551*%
%ADD98R,0.08000X0.10000*%
%ADD99O,0.08000X0.10000*%
%ADD100C,0.07874*%
%ADD101C,0.08000*%
%ADD102R,0.08000X0.08000*%
%ADD103R,0.07323X0.07323*%
%ADD104C,0.07323*%
%ADD105C,0.02756*%
%ADD106C,0.02756*%
G36*
X0340471Y0001529D02*
X0001529D01*
Y0377971D01*
X0340471D01*
Y0001529D01*
D02*
G37*
%LPC*%
G36*
X0327853Y0375842D02*
X0326147D01*
X0324461Y0375575D01*
X0322838Y0375048D01*
X0321317Y0374273D01*
X0319937Y037327D01*
X031873Y0372063D01*
X0317727Y0370683D01*
X0316952Y0369162D01*
X0316424Y0367539D01*
X0316158Y0365853D01*
Y0364147D01*
X0316424Y0362461D01*
X0316952Y0360838D01*
X0317727Y0359317D01*
X031873Y0357937D01*
X0319937Y035673D01*
X0321317Y0355727D01*
X0322838Y0354952D01*
X0324461Y0354425D01*
X0326147Y0354157D01*
X0327853D01*
X0329539Y0354425D01*
X0331162Y0354952D01*
X0332683Y0355727D01*
X0334063Y035673D01*
X033527Y0357937D01*
X0336273Y0359317D01*
X0337048Y0360838D01*
X0337576Y0362461D01*
X0337842Y0364147D01*
Y0365853D01*
X0337576Y0367539D01*
X0337048Y0369162D01*
X0336273Y0370683D01*
X033527Y0372063D01*
X0334063Y037327D01*
X0332683Y0374273D01*
X0331162Y0375048D01*
X0329539Y0375575D01*
X0327853Y0375842D01*
D02*
G37*
G36*
X0015853D02*
X0014147D01*
X0012461Y0375575D01*
X0010838Y0375048D01*
X0009317Y0374273D01*
X0007937Y037327D01*
X000673Y0372063D01*
X0005727Y0370683D01*
X0004952Y0369162D01*
X0004425Y0367539D01*
X0004157Y0365853D01*
Y0364147D01*
X0004425Y0362461D01*
X0004952Y0360838D01*
X0005727Y0359317D01*
X000673Y0357937D01*
X0007937Y035673D01*
X0009317Y0355727D01*
X0010838Y0354952D01*
X0012461Y0354425D01*
X0014147Y0354157D01*
X0015853D01*
X0017539Y0354425D01*
X0019162Y0354952D01*
X0020683Y0355727D01*
X0022063Y035673D01*
X002327Y0357937D01*
X0024273Y0359317D01*
X0025048Y0360838D01*
X0025576Y0362461D01*
X0025842Y0364147D01*
Y0365853D01*
X0025576Y0367539D01*
X0025048Y0369162D01*
X0024273Y0370683D01*
X002327Y0372063D01*
X0022063Y037327D01*
X0020683Y0374273D01*
X0019162Y0375048D01*
X0017539Y0375575D01*
X0015853Y0375842D01*
D02*
G37*
G36*
X0307488Y0343075D02*
X0297614D01*
Y0342539D01*
X0266937D01*
Y0343075D01*
X0257063D01*
Y0337925D01*
X0266937D01*
Y0338461D01*
X0276961D01*
Y0319845D01*
X0255058Y0297942D01*
X0254616Y029728D01*
X0254461Y02965D01*
Y02855D01*
X0254616Y028472D01*
X0255058Y0284058D01*
X0258507Y0280609D01*
X0258507Y0280609D01*
X0259169Y0280167D01*
X0259949Y0280012D01*
X0259949Y0280012D01*
X0264058D01*
X0264093Y027995D01*
X026473Y0279313D01*
X026551Y0278863D01*
X026638Y0278629D01*
X0267281D01*
X0268151Y0278863D01*
X0268932Y0279313D01*
X0269568Y027995D01*
X0270019Y028073D01*
X0270252Y02816D01*
Y0282501D01*
X0270019Y0283371D01*
X0269568Y0284152D01*
X0268932Y0284788D01*
X0268151Y0285239D01*
X0267281Y0285472D01*
X026638D01*
X026551Y0285239D01*
X026473Y0284788D01*
X0264093Y0284152D01*
X0264058Y028409D01*
X0260794D01*
X0258539Y0286345D01*
Y0295655D01*
X0280442Y0317558D01*
X0280442Y0317558D01*
X0280884Y031822D01*
X0281039Y0319D01*
X0281039Y0319D01*
Y0338461D01*
X0297614D01*
Y0337925D01*
X0307488D01*
Y0343075D01*
D02*
G37*
G36*
X0133Y034602D02*
X01225D01*
X012211Y0345942D01*
X0121779Y0345721D01*
X0121558Y034539D01*
X012148Y0345D01*
Y0342309D01*
X012048Y0341816D01*
X0120022Y0342168D01*
X0118805Y0342672D01*
X0118Y0342778D01*
Y03368D01*
Y0330823D01*
X0118805Y0330929D01*
X0120022Y0331433D01*
X012048Y0331785D01*
X012148Y0331292D01*
Y03015D01*
X0121558Y030111D01*
X0121779Y0300779D01*
X012211Y0300558D01*
X01225Y030048D01*
X0166D01*
X016639Y0300558D01*
X0166721Y0300779D01*
X0166942Y030111D01*
X016702Y03015D01*
Y0331D01*
X0166942Y033139D01*
X0166721Y0331721D01*
X016639Y0331942D01*
X0166Y033202D01*
X013402D01*
Y0345D01*
X0133942Y034539D01*
X0133721Y0345721D01*
X013339Y0345942D01*
X0133Y034602D01*
D02*
G37*
G36*
X0161Y0345539D02*
X016D01*
Y03415D01*
X0165473D01*
X0165384Y0342175D01*
X0164931Y0343269D01*
X0164209Y0344209D01*
X0163269Y0344931D01*
X0162175Y0345384D01*
X0161Y0345539D01*
D02*
G37*
G36*
X0159D02*
X0158D01*
X0156825Y0345384D01*
X0155731Y0344931D01*
X0154791Y0344209D01*
X0154069Y0343269D01*
X0153616Y0342175D01*
X0153527Y03415D01*
X0159D01*
Y0345539D01*
D02*
G37*
G36*
X0165473Y03405D02*
X016D01*
Y0336461D01*
X0161D01*
X0162175Y0336616D01*
X0163269Y0337069D01*
X0164209Y0337791D01*
X0164931Y0338731D01*
X0165384Y0339825D01*
X0165473Y03405D01*
D02*
G37*
G36*
X0159D02*
X0153527D01*
X0153616Y0339825D01*
X0154069Y0338731D01*
X0154791Y0337791D01*
X0155731Y0337069D01*
X0156825Y0336616D01*
X0158Y0336461D01*
X0159D01*
Y03405D01*
D02*
G37*
G36*
X0307488Y0333075D02*
X0303051D01*
Y0331D01*
X0307488D01*
Y0333075D01*
D02*
G37*
G36*
X0302051D02*
X0297614D01*
Y0331D01*
X0302051D01*
Y0333075D01*
D02*
G37*
G36*
X01125Y035102D02*
X0005D01*
X000461Y0350942D01*
X0004279Y0350721D01*
X0004058Y035039D01*
X000398Y035D01*
Y03275D01*
X0004058Y032711D01*
X0004279Y0326779D01*
X000461Y0326558D01*
X0005Y032648D01*
X01125D01*
X011289Y0326558D01*
X0113221Y0326779D01*
X0113442Y032711D01*
X011352Y03275D01*
Y0331292D01*
X011452Y0331785D01*
X0114978Y0331433D01*
X0116195Y0330929D01*
X0117Y0330823D01*
Y03368D01*
Y0342778D01*
X0116195Y0342672D01*
X0114978Y0342168D01*
X011452Y0341816D01*
X011352Y0342309D01*
Y035D01*
X0113442Y035039D01*
X0113221Y0350721D01*
X011289Y0350942D01*
X01125Y035102D01*
D02*
G37*
G36*
X0307488Y033D02*
X0303051D01*
Y0327925D01*
X0307488D01*
Y033D01*
D02*
G37*
G36*
X0302051D02*
X0297614D01*
Y0327925D01*
X0302051D01*
Y033D01*
D02*
G37*
G36*
X0201973Y0345378D02*
X0201027D01*
X0200153Y0345016D01*
X0199484Y0344347D01*
X0199122Y0343473D01*
Y0342527D01*
X0199461Y0341709D01*
Y03185D01*
Y0316345D01*
X0198155Y0315039D01*
X0186D01*
X018522Y0314884D01*
X0184558Y0314442D01*
X0178655Y0308539D01*
X01765D01*
Y031075D01*
X01685D01*
Y030225D01*
X01765D01*
Y0304461D01*
X01795D01*
X018028Y0304616D01*
X0180942Y0305058D01*
X0186845Y0310961D01*
X0199D01*
X019978Y0311116D01*
X0200442Y0311558D01*
X0202942Y0314058D01*
X0203384Y031472D01*
X0203539Y03155D01*
Y0317655D01*
X0214345Y0328461D01*
X0230399D01*
X0231106Y0327754D01*
Y0327197D01*
X0231106Y0326197D01*
Y0324142D01*
X0235D01*
X0238894D01*
Y0326197D01*
X0238894Y0326945D01*
X0238894Y0327754D01*
X0239601Y0328461D01*
X0257063D01*
Y0327925D01*
X0266937D01*
Y0333075D01*
X0257063D01*
Y0332539D01*
X0238894D01*
Y0333803D01*
X0231106D01*
Y0332539D01*
X02135D01*
X021272Y0332384D01*
X0212058Y0331942D01*
X0204463Y0324347D01*
X0203539Y032473D01*
Y0341709D01*
X0203878Y0342527D01*
Y0343473D01*
X0203516Y0344347D01*
X0202847Y0345016D01*
X0201973Y0345378D01*
D02*
G37*
G36*
X0238894Y0323142D02*
X02355D01*
Y0320339D01*
X0238894D01*
Y0323142D01*
D02*
G37*
G36*
X02345D02*
X0231106D01*
Y0320339D01*
X02345D01*
Y0323142D01*
D02*
G37*
G36*
X00615Y0323539D02*
X00605D01*
Y03195D01*
X0065973D01*
X0065884Y0320175D01*
X0065431Y0321269D01*
X0064709Y0322209D01*
X0063769Y0322931D01*
X0062675Y0323384D01*
X00615Y0323539D01*
D02*
G37*
G36*
X00595D02*
X00585D01*
X0057325Y0323384D01*
X0056231Y0322931D01*
X0055291Y0322209D01*
X0054569Y0321269D01*
X0054116Y0320175D01*
X0054027Y03195D01*
X00595D01*
Y0323539D01*
D02*
G37*
G36*
X0307488Y0323075D02*
X0297614D01*
Y0317925D01*
X0307488D01*
Y0323075D01*
D02*
G37*
G36*
X0266937D02*
X0257063D01*
Y0322539D01*
X0253D01*
X025222Y0322384D01*
X0251558Y0321942D01*
X0247058Y0317442D01*
X0246616Y031678D01*
X0246461Y0316D01*
Y02785D01*
X0246616Y027772D01*
X0247058Y0277058D01*
X0253507Y0270609D01*
X0254169Y0270167D01*
X0254949Y0270012D01*
X0254949Y0270012D01*
X0264058D01*
X0264093Y026995D01*
X026473Y0269313D01*
X026551Y0268863D01*
X026638Y026863D01*
X0267281D01*
X0268151Y0268863D01*
X0268932Y0269313D01*
X0269568Y026995D01*
X0270019Y027073D01*
X0270252Y02716D01*
Y0272501D01*
X0270019Y0273371D01*
X0269568Y0274151D01*
X0268932Y0274788D01*
X0268151Y0275239D01*
X0267281Y0275472D01*
X026638D01*
X026551Y0275239D01*
X026473Y0274788D01*
X0264093Y0274151D01*
X0264058Y027409D01*
X0255794D01*
X0250539Y0279345D01*
Y0315155D01*
X0253845Y0318461D01*
X0257063D01*
Y0317925D01*
X0266937D01*
Y0323075D01*
D02*
G37*
G36*
X0108092Y03213D02*
X0108D01*
Y03173D01*
X0112D01*
Y0317393D01*
X0111693Y0318537D01*
X0111101Y0319564D01*
X0110263Y0320401D01*
X0109237Y0320994D01*
X0108092Y03213D01*
D02*
G37*
G36*
X0084592D02*
X00845D01*
Y03173D01*
X00885D01*
Y0317393D01*
X0088193Y0318537D01*
X0087601Y0319564D01*
X0086763Y0320401D01*
X0085737Y0320994D01*
X0084592Y03213D01*
D02*
G37*
G36*
X00835D02*
X0083408D01*
X0082263Y0320994D01*
X0081237Y0320401D01*
X0080399Y0319564D01*
X0079807Y0318537D01*
X00795Y0317393D01*
Y03173D01*
X00835D01*
Y03213D01*
D02*
G37*
G36*
X0107D02*
X0106908D01*
X0105763Y0320994D01*
X0104737Y0320401D01*
X0103899Y0319564D01*
X0103307Y0318537D01*
X0103Y0317393D01*
Y03173D01*
X0107D01*
Y03213D01*
D02*
G37*
G36*
X0013228Y0321028D02*
X0013D01*
Y0316D01*
X0018028D01*
Y0316228D01*
X0017651Y0317634D01*
X0016923Y0318894D01*
X0015894Y0319923D01*
X0014634Y0320651D01*
X0013228Y0321028D01*
D02*
G37*
G36*
X0012D02*
X0011772D01*
X0010366Y0320651D01*
X0009106Y0319923D01*
X0008077Y0318894D01*
X0007349Y0317634D01*
X0006972Y0316228D01*
Y0316D01*
X0012D01*
Y0321028D01*
D02*
G37*
G36*
X0065973Y03185D02*
X00605D01*
Y0314461D01*
X00615D01*
X0062675Y0314616D01*
X0063769Y0315069D01*
X0064709Y0315791D01*
X0065431Y0316731D01*
X0065884Y0317825D01*
X0065973Y03185D01*
D02*
G37*
G36*
X00595D02*
X0054027D01*
X0054116Y0317825D01*
X0054569Y0316731D01*
X0055291Y0315791D01*
X0056231Y0315069D01*
X0057325Y0314616D01*
X00585Y0314461D01*
X00595D01*
Y03185D01*
D02*
G37*
G36*
X0112Y03163D02*
X0108D01*
Y03123D01*
X0108092D01*
X0109237Y0312607D01*
X0110263Y0313199D01*
X0111101Y0314037D01*
X0111693Y0315064D01*
X0112Y0316208D01*
Y03163D01*
D02*
G37*
G36*
X0107D02*
X0103D01*
Y0316208D01*
X0103307Y0315064D01*
X0103899Y0314037D01*
X0104737Y0313199D01*
X0105763Y0312607D01*
X0106908Y03123D01*
X0107D01*
Y03163D01*
D02*
G37*
G36*
X00885D02*
X00845D01*
Y03123D01*
X0084592D01*
X0085737Y0312607D01*
X0086763Y0313199D01*
X0087601Y0314037D01*
X0088193Y0315064D01*
X00885Y0316208D01*
Y03163D01*
D02*
G37*
G36*
X00835D02*
X00795D01*
Y0316208D01*
X0079807Y0315064D01*
X0080399Y0314037D01*
X0081237Y0313199D01*
X0082263Y0312607D01*
X0083408Y03123D01*
X00835D01*
Y03163D01*
D02*
G37*
G36*
X0018028Y0315D02*
X0013D01*
Y0309972D01*
X0013228D01*
X0014634Y0310349D01*
X0015894Y0311077D01*
X0016923Y0312106D01*
X0017651Y0313366D01*
X0018028Y0314772D01*
Y0315D01*
D02*
G37*
G36*
X0012D02*
X0006972D01*
Y0314772D01*
X0007349Y0313366D01*
X0008077Y0312106D01*
X0009106Y0311077D01*
X0010366Y0310349D01*
X0011772Y0309972D01*
X0012D01*
Y0315D01*
D02*
G37*
G36*
X03145Y0307539D02*
X02875D01*
X028672Y0307384D01*
X0286058Y0306942D01*
X0273206Y029409D01*
X0270252D01*
Y0295472D01*
X0263409D01*
Y028863D01*
X0270252D01*
Y0290012D01*
X0274051D01*
X0274831Y0290167D01*
X0275493Y0290609D01*
X0288345Y0303461D01*
X0313655D01*
X0318798Y0298318D01*
X031946Y0297876D01*
X032024Y0297721D01*
X0323783D01*
Y0296949D01*
X0331217D01*
Y0302571D01*
X0323783D01*
Y0301799D01*
X0321085D01*
X0315942Y0306942D01*
X031528Y0307384D01*
X03145Y0307539D01*
D02*
G37*
G36*
X0108092Y02967D02*
X0108D01*
Y02927D01*
X0112D01*
Y0292792D01*
X0111693Y0293936D01*
X0111101Y0294963D01*
X0110263Y02958D01*
X0109237Y0296393D01*
X0108092Y02967D01*
D02*
G37*
G36*
X0085631D02*
X0085539D01*
Y02927D01*
X0089539D01*
Y0292792D01*
X0089232Y0293936D01*
X008864Y0294963D01*
X0087802Y02958D01*
X0086776Y0296393D01*
X0085631Y02967D01*
D02*
G37*
G36*
X0084539D02*
X0084446D01*
X0083302Y0296393D01*
X0082276Y02958D01*
X0081438Y0294963D01*
X0080845Y0293936D01*
X0080539Y0292792D01*
Y02927D01*
X0084539D01*
Y02967D01*
D02*
G37*
G36*
X0107D02*
X0106908D01*
X0105763Y0296393D01*
X0104737Y02958D01*
X0103899Y0294963D01*
X0103307Y0293936D01*
X0103Y0292792D01*
Y02927D01*
X0107D01*
Y02967D01*
D02*
G37*
G36*
X0018028Y0297028D02*
X0013D01*
Y0292D01*
X0018028D01*
Y0297028D01*
D02*
G37*
G36*
X0012D02*
X0006972D01*
Y0292D01*
X0012D01*
Y0297028D01*
D02*
G37*
G36*
X00615Y0294539D02*
X00605D01*
Y02905D01*
X0065973D01*
X0065884Y0291175D01*
X0065431Y0292269D01*
X0064709Y0293209D01*
X0063769Y0293931D01*
X0062675Y0294384D01*
X00615Y0294539D01*
D02*
G37*
G36*
X00595D02*
X00585D01*
X0057325Y0294384D01*
X0056231Y0293931D01*
X0055291Y0293209D01*
X0054569Y0292269D01*
X0054116Y0291175D01*
X0054027Y02905D01*
X00595D01*
Y0294539D01*
D02*
G37*
G36*
X0298265Y0295472D02*
X0297365D01*
X0296494Y0295239D01*
X0295714Y0294789D01*
X0295077Y0294151D01*
X0294627Y0293371D01*
X0294394Y0292501D01*
Y02916D01*
X0294627Y029073D01*
X0295077Y028995D01*
X0295714Y0289313D01*
X0296494Y0288863D01*
X0297365Y028863D01*
X0298265D01*
X0299136Y0288863D01*
X0299916Y0289313D01*
X0300553Y028995D01*
X0300643Y0290106D01*
X0323783D01*
Y0289429D01*
X0331217D01*
Y0295051D01*
X0323783D01*
Y0294185D01*
X0300519D01*
X0299916Y0294789D01*
X0299136Y0295239D01*
X0298265Y0295472D01*
D02*
G37*
G36*
X0089539Y02917D02*
X0085539D01*
Y02877D01*
X0085631D01*
X0086776Y0288006D01*
X0087802Y0288599D01*
X008864Y0289437D01*
X0089232Y0290463D01*
X0089539Y0291607D01*
Y02917D01*
D02*
G37*
G36*
X0084539D02*
X0080539D01*
Y0291607D01*
X0080845Y0290463D01*
X0081438Y0289437D01*
X0082276Y0288599D01*
X0083302Y0288006D01*
X0084446Y02877D01*
X0084539D01*
Y02917D01*
D02*
G37*
G36*
X0175Y029852D02*
X01225D01*
X012211Y0298442D01*
X0121779Y0298221D01*
X0121558Y029789D01*
X012148Y02975D01*
Y028702D01*
X0109418D01*
X0109237Y0288006D01*
X0110263Y0288599D01*
X0111101Y0289437D01*
X0111693Y0290463D01*
X0112Y0291607D01*
Y02917D01*
X01075D01*
X0103D01*
Y0291607D01*
X0103307Y0290463D01*
X0103899Y0289437D01*
X0104737Y0288599D01*
X0105763Y0288006D01*
X0105582Y028702D01*
X01025D01*
X010211Y0286942D01*
X0101779Y0286721D01*
X0101558Y028639D01*
X010148Y0286D01*
Y0245D01*
X0101558Y024461D01*
X0101779Y0244279D01*
X010211Y0244058D01*
X01025Y024398D01*
X0134007D01*
Y0237954D01*
X0134162Y0237173D01*
X0134605Y0236512D01*
X0137558Y0233558D01*
X0137558Y0233558D01*
X013822Y0233116D01*
X0139Y0232961D01*
X0139Y0232961D01*
X0145D01*
Y023075D01*
X0153D01*
Y023925D01*
X0145D01*
Y0237039D01*
X0139845D01*
X0138086Y0238798D01*
Y024398D01*
X01425D01*
X014289Y0244058D01*
X0143221Y0244279D01*
X0143442Y024461D01*
X014352Y0245D01*
Y0255D01*
X0143442Y025539D01*
X0143221Y0255721D01*
X014289Y0255942D01*
X01425Y025602D01*
X011352D01*
Y0268347D01*
X011452Y0268761D01*
X0114811Y026847D01*
X0115874Y0267856D01*
X011706Y0267538D01*
X0118287D01*
X0119473Y0267856D01*
X0120536Y026847D01*
X0121403Y0269337D01*
X0122017Y02704D01*
X0123012Y027025D01*
Y0267538D01*
X0127173D01*
Y02722D01*
Y0276861D01*
X0123012D01*
Y027415D01*
X0122017Y0273999D01*
X0121403Y0275062D01*
X0120536Y027593D01*
X0119473Y0276543D01*
X0118287Y0276861D01*
X011706D01*
X0115874Y0276543D01*
X0114811Y027593D01*
X011452Y0275638D01*
X011352Y0276052D01*
Y027948D01*
X0175D01*
X017539Y0279558D01*
X0175721Y0279779D01*
X0175942Y028011D01*
X017602Y02805D01*
Y02975D01*
X0175942Y029789D01*
X0175721Y0298221D01*
X017539Y0298442D01*
X0175Y029852D01*
D02*
G37*
G36*
X0018028Y0291D02*
X0013D01*
Y0285972D01*
X0018028D01*
Y0291D01*
D02*
G37*
G36*
X0012D02*
X0006972D01*
Y0285972D01*
X0012D01*
Y0291D01*
D02*
G37*
G36*
X0065973Y02895D02*
X00605D01*
Y0285461D01*
X00615D01*
X0062675Y0285616D01*
X0063769Y0286069D01*
X0064709Y0286791D01*
X0065431Y0287731D01*
X0065884Y0288825D01*
X0065973Y02895D01*
D02*
G37*
G36*
X00595D02*
X0054027D01*
X0054116Y0288825D01*
X0054569Y0287731D01*
X0055291Y0286791D01*
X0056231Y0286069D01*
X0057325Y0285616D01*
X00585Y0285461D01*
X00595D01*
Y02895D01*
D02*
G37*
G36*
X0298265Y0285472D02*
X0297365D01*
X0296494Y0285239D01*
X0295714Y0284788D01*
X0295077Y0284152D01*
X0294627Y0283371D01*
X0294394Y0282501D01*
Y02816D01*
X0294627Y028073D01*
X0295077Y027995D01*
X0295714Y0279313D01*
X0296494Y0278863D01*
X0297365Y0278629D01*
X0298265D01*
X0298334Y0278648D01*
X0303461Y0273521D01*
Y0271D01*
X0303535Y0270629D01*
X0302613Y0270137D01*
X0301218Y0271532D01*
X0301236Y02716D01*
Y0272501D01*
X0301003Y0273371D01*
X0300553Y0274151D01*
X0299916Y0274788D01*
X0299136Y0275239D01*
X0298265Y0275472D01*
X0297365D01*
X0296494Y0275239D01*
X0295714Y0274788D01*
X0295077Y0274151D01*
X0294627Y0273371D01*
X0294394Y0272501D01*
Y02716D01*
X0294627Y027073D01*
X0295077Y026995D01*
X0295714Y0269313D01*
X0296494Y0268863D01*
X0297365Y026863D01*
X0298265D01*
X0298334Y0268648D01*
X0315503Y0251479D01*
X0316164Y0251037D01*
X0316056Y0250039D01*
X024275D01*
X024197Y0249884D01*
X0241308Y0249442D01*
X0227333Y0235466D01*
X0222783D01*
Y022949D01*
X0230217D01*
Y0231662D01*
X0230255Y0231688D01*
X0231255Y0231153D01*
Y0230982D01*
X0231368Y0230415D01*
X0231689Y0229935D01*
X0232169Y0229613D01*
X0232736Y0229501D01*
X0237264D01*
X0237831Y0229613D01*
X0238311Y0229935D01*
X0238556Y0230301D01*
X0238717D01*
X0239497Y0230456D01*
X0240159Y0230898D01*
X0242884Y0233624D01*
X0248883D01*
Y0234868D01*
X0252407D01*
X0253187Y0235023D01*
X0253849Y0235465D01*
X0260345Y0241961D01*
X0283155D01*
X0285461Y0239655D01*
Y0216033D01*
X0285616Y0215253D01*
X0286058Y0214591D01*
X028723Y021342D01*
X028723Y021342D01*
X0287891Y0212977D01*
X0288672Y0212822D01*
X0292298D01*
X0292923Y0212009D01*
X0293758Y0211367D01*
X0294731Y0210964D01*
X0295776Y0210827D01*
X0298426D01*
X0299435Y0209818D01*
X0298968Y0208871D01*
X0298776Y0208896D01*
X0295776D01*
X0294731Y0208758D01*
X0293758Y0208355D01*
X0292923Y0207714D01*
X0292282Y0206879D01*
X0291879Y0205906D01*
X0291741Y0204861D01*
X0291879Y0203817D01*
X0292282Y0202844D01*
X0292923Y0202009D01*
X0293758Y0201367D01*
X0294731Y0200964D01*
X0295776Y0200827D01*
X0298776D01*
X029982Y0200964D01*
X0300793Y0201367D01*
X0301628Y0202009D01*
X030227Y0202844D01*
X0302673Y0203817D01*
X030281Y0204861D01*
X0302774Y0205137D01*
X0303706Y0205717D01*
X0303857Y0205616D01*
X0304637Y0205461D01*
X0317155D01*
X0321961Y0200655D01*
Y0197587D01*
X0320835D01*
Y0191871D01*
X0320835Y0191731D01*
X0320555Y0191451D01*
X0319738Y0191007D01*
X0319579Y0191039D01*
X0257D01*
X025622Y0190884D01*
X0255558Y0190442D01*
X0241136Y017602D01*
X0238717D01*
Y0176969D01*
X0231283D01*
Y0170992D01*
X0238717D01*
Y0171941D01*
X024198D01*
X0242761Y0172096D01*
X0243422Y0172538D01*
X0257845Y0186961D01*
X0318734D01*
X0320835Y018486D01*
Y0184162D01*
X032105Y0183357D01*
X0321467Y0182635D01*
X0322056Y0182046D01*
X0322778Y0181629D01*
X0323583Y0181413D01*
X0324417D01*
X0325222Y0181629D01*
X0325944Y0182046D01*
X0326533Y0182635D01*
X032695Y0183357D01*
X0327165Y0184162D01*
Y0184995D01*
X032695Y0185801D01*
X0326533Y0186522D01*
X0325944Y0187112D01*
X0325222Y0187528D01*
X0324417Y0187744D01*
X0323719D01*
X0321207Y0190256D01*
X0321398Y0190984D01*
X0321588Y0191256D01*
X0321708Y0191256D01*
X0327165D01*
Y0197587D01*
X0326039D01*
Y02015D01*
X0325884Y020228D01*
X0325442Y0202942D01*
X0319442Y0208942D01*
X031878Y0209384D01*
X0318Y0209539D01*
X0305482D01*
X0302229Y0212792D01*
X030227Y0212844D01*
X0302673Y0213817D01*
X030281Y0214861D01*
X0302673Y0215906D01*
X030227Y0216879D01*
X0301628Y0217714D01*
X0300793Y0218355D01*
X029982Y0218758D01*
X0298776Y0218896D01*
X0295776D01*
X0294731Y0218758D01*
X0293758Y0218355D01*
X0292923Y0217714D01*
X0292298Y0216901D01*
X0289539D01*
Y02405D01*
X0289384Y024128D01*
X0288942Y0241942D01*
X0285923Y0244961D01*
X0286337Y0245961D01*
X0318234D01*
X0320835Y024336D01*
Y0242662D01*
X032105Y0241857D01*
X0321467Y0241135D01*
X0322056Y0240546D01*
X0322778Y0240129D01*
X0323583Y0239913D01*
X0324417D01*
X0325222Y0240129D01*
X0325944Y0240546D01*
X0326461Y0241063D01*
X032678Y024103D01*
X0327461Y0240742D01*
Y0236415D01*
X0322984Y0231938D01*
X0303813D01*
X0303033Y0231783D01*
X0302372Y0231341D01*
X0299792Y0228762D01*
X0298776Y0228896D01*
X0295776D01*
X0294731Y0228758D01*
X0293758Y0228355D01*
X0292923Y0227714D01*
X0292282Y0226879D01*
X0291879Y0225906D01*
X0291741Y0224861D01*
X0291879Y0223817D01*
X0292282Y0222844D01*
X0292923Y0222009D01*
X0293758Y0221367D01*
X0294731Y0220964D01*
X0295776Y0220827D01*
X0298776D01*
X029982Y0220964D01*
X0300793Y0221367D01*
X0301628Y0222009D01*
X0302253Y0222822D01*
X0304441D01*
Y0222468D01*
X0311559D01*
Y0222822D01*
X0312941D01*
Y0222468D01*
X0320059D01*
Y0222822D01*
X0321441D01*
Y0222469D01*
X0328559D01*
Y0222822D01*
X0332571D01*
X0333388Y0222483D01*
X0334334D01*
X0335208Y0222846D01*
X0335877Y0223514D01*
X0336239Y0224388D01*
Y0225334D01*
X0335877Y0226208D01*
X0335208Y0226877D01*
X0334334Y0227239D01*
X0333388D01*
X0332571Y0226901D01*
X0328559D01*
Y0228012D01*
X0326239D01*
X0325825Y0229012D01*
X0330942Y0234129D01*
X0330942Y0234129D01*
X0331384Y023479D01*
X0331539Y0235571D01*
X0331539Y0235571D01*
Y0259828D01*
X0331539Y0259828D01*
X0331384Y0260609D01*
X0330942Y026127D01*
X0330942Y026127D01*
X032527Y0266942D01*
X0324609Y0267384D01*
X0323828Y0267539D01*
X0311845D01*
X0308396Y0270988D01*
X030881Y0271988D01*
X03105D01*
Y027476D01*
Y0277532D01*
X0307441D01*
Y0276723D01*
X0306441Y0276309D01*
X0303567Y0279182D01*
X030395Y0280106D01*
X0307441D01*
Y0279468D01*
X0314559D01*
Y0279468D01*
X0315441D01*
Y0279468D01*
X0322559D01*
Y0279468D01*
X0323441Y0279468D01*
Y0279468D01*
X0330559D01*
Y0285012D01*
X0323441D01*
Y0285012D01*
X0322559Y0285012D01*
Y0285012D01*
X0315441D01*
Y0285012D01*
X0314559D01*
Y0285012D01*
X0307441D01*
Y0284185D01*
X0300519D01*
X0299916Y0284788D01*
X0299136Y0285239D01*
X0298265Y0285472D01*
D02*
G37*
G36*
X0322559Y0277532D02*
X0322441Y0277532D01*
X03195D01*
Y027476D01*
Y0271988D01*
X0322441D01*
X0323441Y0271988D01*
X0323559Y0271988D01*
X03265D01*
Y027476D01*
Y0277531D01*
X0323559D01*
X0322559Y0277532D01*
D02*
G37*
G36*
X03275Y0277531D02*
Y027526D01*
X0330559D01*
Y0277531D01*
X03275D01*
D02*
G37*
G36*
X0132335Y0276861D02*
X0128173D01*
Y02727D01*
X0132335D01*
Y0276861D01*
D02*
G37*
G36*
X0164096Y02767D02*
X0158596D01*
Y02727D01*
X0164096D01*
Y02767D01*
D02*
G37*
G36*
X0157596D02*
X0152096D01*
Y02727D01*
X0157596D01*
Y02767D01*
D02*
G37*
G36*
X0315441Y0277532D02*
X0314559D01*
X0314441Y0277532D01*
X03115D01*
Y027476D01*
Y0271988D01*
X0314441D01*
X0314559Y0271988D01*
X0315441D01*
X0315559Y0271988D01*
X03185D01*
Y027476D01*
Y0277532D01*
X0315559D01*
X0315441Y0277532D01*
D02*
G37*
G36*
X0330559Y027426D02*
X03275D01*
Y0271988D01*
X0330559D01*
Y027426D01*
D02*
G37*
G36*
X0164096Y02717D02*
X0158596D01*
Y02677D01*
X0164096D01*
Y02717D01*
D02*
G37*
G36*
X0157596D02*
X0152096D01*
Y02677D01*
X0157596D01*
Y02717D01*
D02*
G37*
G36*
X0132335D02*
X0128173D01*
Y0267538D01*
X0132335D01*
Y02717D01*
D02*
G37*
G36*
X02495Y0271539D02*
X0223D01*
X022222Y0271384D01*
X0221558Y0270942D01*
X0187655Y0237039D01*
X0166D01*
Y023925D01*
X0158D01*
Y023075D01*
X0166D01*
Y0232961D01*
X01885D01*
X018928Y0233116D01*
X0189942Y0233558D01*
X0223845Y0267461D01*
X0248655D01*
X0250104Y0266012D01*
X024969Y0265012D01*
X0248941D01*
Y0264279D01*
X0247309D01*
Y0265012D01*
X0240191D01*
Y0264279D01*
X0238559D01*
Y0265012D01*
X0231441D01*
Y0259469D01*
X0238559D01*
Y0260201D01*
X0240191D01*
Y0259469D01*
X0247309D01*
Y0260201D01*
X0248941D01*
Y0259469D01*
X0256059D01*
Y0260106D01*
X0264003D01*
X0264093Y025995D01*
X026473Y0259313D01*
X026551Y0258863D01*
X026638Y0258629D01*
X0267281D01*
X0268151Y0258863D01*
X0268932Y0259313D01*
X0269568Y025995D01*
X0270019Y026073D01*
X0270252Y02616D01*
Y0262501D01*
X0270019Y0263371D01*
X0269568Y0264152D01*
X0268932Y0264789D01*
X0268151Y0265239D01*
X0267281Y0265472D01*
X026638D01*
X026551Y0265239D01*
X026473Y0264789D01*
X0264126Y0264185D01*
X0256059D01*
Y0265012D01*
X0254539D01*
Y02665D01*
X0254539Y02665D01*
X0254384Y026728D01*
X0253942Y0267942D01*
X0250942Y0270942D01*
X025028Y0271384D01*
X02495Y0271539D01*
D02*
G37*
G36*
X0298265Y0265472D02*
X0297365D01*
X0296494Y0265239D01*
X0295714Y0264789D01*
X0295077Y0264152D01*
X0294627Y0263371D01*
X0294394Y0262501D01*
Y02616D01*
X0294627Y026073D01*
X0295077Y025995D01*
X0295714Y0259313D01*
X0296494Y0258863D01*
X0297365Y0258629D01*
X0298265D01*
X0299136Y0258863D01*
X0299916Y0259313D01*
X0300553Y025995D01*
X0301003Y026073D01*
X0301236Y02616D01*
Y0262501D01*
X0301003Y0263371D01*
X0300553Y0264152D01*
X0299916Y0264789D01*
X0299136Y0265239D01*
X0298265Y0265472D01*
D02*
G37*
G36*
X0256059Y0257531D02*
X0253D01*
Y025526D01*
X0256059D01*
Y0257531D01*
D02*
G37*
G36*
X0247309D02*
X024425D01*
Y025526D01*
X0247309D01*
Y0257531D01*
D02*
G37*
G36*
X0252D02*
X0248941D01*
Y025526D01*
X0252D01*
Y0257531D01*
D02*
G37*
G36*
X024325D02*
X0240191D01*
Y025526D01*
X024325D01*
Y0257531D01*
D02*
G37*
G36*
X0238559Y0257531D02*
X02355D01*
Y025526D01*
X0238559D01*
Y0257531D01*
D02*
G37*
G36*
X02345D02*
X0231441D01*
Y025526D01*
X02345D01*
Y0257531D01*
D02*
G37*
G36*
X0256059Y025426D02*
X0253D01*
Y0251988D01*
X0256059D01*
Y025426D01*
D02*
G37*
G36*
X0252D02*
X0248941D01*
Y0251988D01*
X0252D01*
Y025426D01*
D02*
G37*
G36*
X0247309D02*
X024425D01*
Y0251988D01*
X0247309D01*
Y025426D01*
D02*
G37*
G36*
X024325D02*
X0240191D01*
Y0251988D01*
X024325D01*
Y025426D01*
D02*
G37*
G36*
X0238559Y025426D02*
X02355D01*
Y0251988D01*
X0238559D01*
Y025426D01*
D02*
G37*
G36*
X02345D02*
X0231441D01*
Y0251988D01*
X02345D01*
Y025426D01*
D02*
G37*
G36*
X0176046Y0255D02*
X0171546D01*
Y02505D01*
X0176046D01*
Y0255D01*
D02*
G37*
G36*
X0170546D02*
X0166046D01*
Y02505D01*
X0170546D01*
Y0255D01*
D02*
G37*
G36*
X0176046Y02495D02*
X0171546D01*
Y0245D01*
X0176046D01*
Y02495D01*
D02*
G37*
G36*
X0170546D02*
X0166046D01*
Y0245D01*
X0170546D01*
Y02495D01*
D02*
G37*
G36*
X00955Y028102D02*
X0005D01*
X000461Y0280942D01*
X0004279Y0280721D01*
X0004058Y028039D01*
X000398Y028D01*
Y02635D01*
X0004058Y026311D01*
X0004279Y0262779D01*
X000461Y0262558D01*
X0005Y026248D01*
X007898D01*
Y02425D01*
X0079016Y0242321D01*
X0079046Y024214D01*
X0079055Y0242126D01*
X0079058Y024211D01*
X007916Y0241958D01*
X0079256Y0241803D01*
X007927Y0241793D01*
X0079279Y0241779D01*
X0079431Y0241677D01*
X007958Y0241571D01*
X0079596Y0241567D01*
X007961Y0241558D01*
X0079789Y0241522D01*
X0079967Y0241481D01*
X0095467Y0240981D01*
X0095484Y0240984D01*
X00955Y024098D01*
X0095679Y0241016D01*
X009586Y0241046D01*
X0095874Y0241055D01*
X009589Y0241058D01*
X0096042Y024116D01*
X0096197Y0241256D01*
X0096207Y024127D01*
X0096221Y0241279D01*
X0096323Y0241431D01*
X0096429Y024158D01*
X0096433Y0241596D01*
X0096442Y024161D01*
X0096478Y0241789D01*
X0096519Y0241967D01*
X0096516Y0241984D01*
X009652Y0242D01*
Y02635D01*
Y028D01*
X0096442Y028039D01*
X0096221Y0280721D01*
X009589Y0280942D01*
X00955Y028102D01*
D02*
G37*
G36*
X0272776Y0238861D02*
X0261776D01*
Y0230861D01*
X0272776D01*
Y0238861D01*
D02*
G37*
G36*
X0298776Y0238896D02*
X0295776D01*
X0294731Y0238758D01*
X0293758Y0238355D01*
X0292923Y0237714D01*
X0292282Y0236879D01*
X0291879Y0235906D01*
X0291741Y0234861D01*
X0291879Y0233817D01*
X0292282Y0232844D01*
X0292923Y0232009D01*
X0293758Y0231367D01*
X0294731Y0230964D01*
X0295776Y0230827D01*
X0298776D01*
X029982Y0230964D01*
X0300793Y0231367D01*
X0301628Y0232009D01*
X030227Y0232844D01*
X0302673Y0233817D01*
X030281Y0234861D01*
X0302673Y0235906D01*
X030227Y0236879D01*
X0301628Y0237714D01*
X0300793Y0238355D01*
X029982Y0238758D01*
X0298776Y0238896D01*
D02*
G37*
G36*
X0268776Y0228896D02*
X0265776D01*
X0264731Y0228758D01*
X0263758Y0228355D01*
X0262923Y0227714D01*
X0262351Y0226969D01*
X0248883D01*
Y0228576D01*
X0239717D01*
Y0226969D01*
X0238483D01*
X0238311Y0227226D01*
X0237831Y0227547D01*
X0237264Y022766D01*
X0232736D01*
X0232169Y0227547D01*
X0231689Y0227226D01*
X0231517Y0226969D01*
X0230217D01*
Y0227986D01*
X0222783D01*
Y022201D01*
X0230217D01*
Y022289D01*
X0231371D01*
X0231689Y0222415D01*
X0232169Y0222094D01*
X0232736Y0221981D01*
X0237264D01*
X0237831Y0222094D01*
X0238311Y0222415D01*
X0238629Y022289D01*
X0239717D01*
Y0222009D01*
X0248883D01*
Y022289D01*
X0262262D01*
X0262282Y0222844D01*
X0262923Y0222009D01*
X0263758Y0221367D01*
X0264731Y0220964D01*
X0265776Y0220827D01*
X0268776D01*
X026982Y0220964D01*
X0270793Y0221367D01*
X0271628Y0222009D01*
X027227Y0222844D01*
X0272673Y0223817D01*
X027281Y0224861D01*
X0272673Y0225906D01*
X027227Y0226879D01*
X0271628Y0227714D01*
X0270793Y0228355D01*
X026982Y0228758D01*
X0268776Y0228896D01*
D02*
G37*
G36*
X0320059Y0220532D02*
X0317D01*
Y021826D01*
X0320059D01*
Y0220532D01*
D02*
G37*
G36*
X0311559D02*
X03085D01*
Y021826D01*
X0311559D01*
Y0220532D01*
D02*
G37*
G36*
X0316D02*
X0312941D01*
Y021826D01*
X0316D01*
Y0220532D01*
D02*
G37*
G36*
X03075D02*
X0304441D01*
Y021826D01*
X03075D01*
Y0220532D01*
D02*
G37*
G36*
X0328559Y0220532D02*
X03255D01*
Y021826D01*
X0328559D01*
Y0220532D01*
D02*
G37*
G36*
X03245D02*
X0321441D01*
Y021826D01*
X03245D01*
Y0220532D01*
D02*
G37*
G36*
X0268776Y0218896D02*
X0267776D01*
Y0215361D01*
X0272744D01*
X0272673Y0215906D01*
X027227Y0216879D01*
X0271628Y0217714D01*
X0270793Y0218355D01*
X026982Y0218758D01*
X0268776Y0218896D01*
D02*
G37*
G36*
X0266776D02*
X0265776D01*
X0264731Y0218758D01*
X0263758Y0218355D01*
X0262923Y0217714D01*
X0262282Y0216879D01*
X0261878Y0215906D01*
X0261807Y0215361D01*
X0266776D01*
Y0218896D01*
D02*
G37*
G36*
X0320059Y021726D02*
X0317D01*
Y0214988D01*
X0320059D01*
Y021726D01*
D02*
G37*
G36*
X0316D02*
X0312941D01*
Y0214988D01*
X0316D01*
Y021726D01*
D02*
G37*
G36*
X0311559D02*
X03085D01*
Y0214988D01*
X0311559D01*
Y021726D01*
D02*
G37*
G36*
X03075D02*
X0304441D01*
Y0214988D01*
X03075D01*
Y021726D01*
D02*
G37*
G36*
X0328559Y021726D02*
X03255D01*
Y0214988D01*
X0328559D01*
Y021726D01*
D02*
G37*
G36*
X03245D02*
X0321441D01*
Y0214988D01*
X03245D01*
Y021726D01*
D02*
G37*
G36*
X010258Y0218221D02*
Y0213807D01*
X0106994D01*
X010689Y0214596D01*
X0106393Y0215797D01*
X0105601Y0216828D01*
X010457Y0217619D01*
X0103369Y0218117D01*
X010258Y0218221D01*
D02*
G37*
G36*
X010158D02*
X0100791Y0218117D01*
X009959Y0217619D01*
X0098559Y0216828D01*
X0097768Y0215797D01*
X009727Y0214596D01*
X0097166Y0213807D01*
X010158D01*
Y0218221D01*
D02*
G37*
G36*
X0272744Y0214361D02*
X0267776D01*
Y0210827D01*
X0268776D01*
X026982Y0210964D01*
X0270793Y0211367D01*
X0271628Y0212009D01*
X027227Y0212844D01*
X0272673Y0213817D01*
X0272744Y0214361D01*
D02*
G37*
G36*
X0266776D02*
X0261807D01*
X0261878Y0213817D01*
X0262282Y0212844D01*
X0262923Y0212009D01*
X0263758Y0211367D01*
X0264731Y0210964D01*
X0265776Y0210827D01*
X0266776D01*
Y0214361D01*
D02*
G37*
G36*
X0268776Y0208896D02*
X0265776D01*
X0264731Y0208758D01*
X0263758Y0208355D01*
X0262923Y0207714D01*
X0262282Y0206879D01*
X0262266Y020684D01*
X0257059D01*
Y0207512D01*
X0249941D01*
Y0206779D01*
X0248059D01*
Y0207512D01*
X0240941D01*
Y020684D01*
X0238559D01*
Y0207633D01*
X0231441D01*
Y0204974D01*
X0224058Y0197591D01*
X0223616Y0196929D01*
X0223461Y0196149D01*
Y01645D01*
X0223616Y016372D01*
X0224058Y0163058D01*
X0232961Y0154155D01*
Y0149512D01*
X0231441D01*
Y0143969D01*
X0238559D01*
Y0144701D01*
X0241191D01*
Y0143968D01*
X0248309D01*
Y0144701D01*
X0250941D01*
Y0143968D01*
X0258059D01*
Y0144581D01*
X0262241D01*
X0262282Y0144483D01*
X0262923Y0143647D01*
X0263758Y0143006D01*
X0264731Y0142603D01*
X0265776Y0142465D01*
X0268776D01*
X026982Y0142603D01*
X0270793Y0143006D01*
X0271496Y0143546D01*
X0272014Y014342D01*
X0272496Y0143135D01*
Y0132707D01*
X0272651Y0131927D01*
X0273094Y0131265D01*
X0275142Y0129217D01*
Y0126601D01*
X0274935Y0126394D01*
X0271252D01*
Y0118606D01*
X0272398D01*
Y0116717D01*
X0271429D01*
Y0109283D01*
X0277248D01*
Y0116717D01*
X0276476D01*
Y0117898D01*
X0277476Y0118606D01*
X0277819Y0118606D01*
Y0118606D01*
X0278181D01*
Y0118606D01*
X0284748D01*
Y0119221D01*
X0286944D01*
X0287189Y0118854D01*
X0287669Y0118533D01*
X0288236Y011842D01*
X0292764D01*
X0293331Y0118533D01*
X0293811Y0118854D01*
X0294056Y0119221D01*
X0317804D01*
X0318584Y0119376D01*
X0319246Y0119818D01*
X0323719Y0124291D01*
X0327165D01*
Y0130622D01*
X0326039D01*
Y0136D01*
X0325884Y013678D01*
X0325442Y0137442D01*
X0307319Y0155564D01*
X0307702Y0156488D01*
X03085D01*
Y015876D01*
X0305345D01*
X0304441Y0158277D01*
X030428Y0158384D01*
X03035Y0158539D01*
X0302253D01*
X0301628Y0159353D01*
X0300793Y0159994D01*
X029982Y0160397D01*
X0298776Y0160535D01*
X0295776D01*
X0294731Y0160397D01*
X0293758Y0159994D01*
X0292923Y0159353D01*
X0292282Y0158517D01*
X0291879Y0157544D01*
X0291741Y01565D01*
X0291879Y0155456D01*
X0292282Y0154483D01*
X0292923Y0153647D01*
X0293758Y0153006D01*
X0294731Y0152603D01*
X0295776Y0152465D01*
X0298776D01*
X029982Y0152603D01*
X0300793Y0153006D01*
X0301628Y0153647D01*
X0301865Y0153955D01*
X0303092Y0154024D01*
X0321961Y0135155D01*
Y0130622D01*
X0320835D01*
Y0127175D01*
X0316959Y0123299D01*
X0294056D01*
X0293811Y0123665D01*
X0293331Y0123986D01*
X0292764Y0124099D01*
X0288236D01*
X0287669Y0123986D01*
X0287189Y0123665D01*
X0286944Y0123299D01*
X0284748D01*
Y0126394D01*
X027922D01*
Y0130061D01*
X0279065Y0130842D01*
X0278623Y0131503D01*
X0276575Y0133552D01*
Y016074D01*
X0276419Y0161521D01*
X0275977Y0162182D01*
X0272676Y0165483D01*
X027281Y01665D01*
X0272673Y0167544D01*
X027227Y0168517D01*
X0271628Y0169353D01*
X0270793Y0169994D01*
X026982Y0170397D01*
X0268776Y0170535D01*
X0265776D01*
X0264731Y0170397D01*
X0263758Y0169994D01*
X0262923Y0169353D01*
X0262298Y0168539D01*
X0238717D01*
Y0169488D01*
X0231283D01*
Y0163512D01*
X0238717D01*
Y0164461D01*
X0262298D01*
X0262923Y0163647D01*
X0263758Y0163006D01*
X0264731Y0162603D01*
X0265776Y0162466D01*
X0268776D01*
X0269792Y0162599D01*
X0271785Y0160606D01*
X0271816Y0160469D01*
X027179Y016043D01*
X0270959Y0160067D01*
X0270654Y0160052D01*
X026982Y0160397D01*
X0268776Y0160535D01*
X0267776D01*
Y01565D01*
Y0152465D01*
X0268776D01*
X026982Y0152603D01*
X0270793Y0153006D01*
X0271496Y0153546D01*
X0272014Y015342D01*
X0272496Y0153135D01*
Y0149865D01*
X0272014Y014958D01*
X0271496Y0149454D01*
X0270793Y0149994D01*
X026982Y0150397D01*
X0268776Y0150534D01*
X0265776D01*
X0264731Y0150397D01*
X0263758Y0149994D01*
X0262923Y0149353D01*
X0262391Y0148659D01*
X0258059D01*
Y0149512D01*
X0250941D01*
Y0148779D01*
X0248309D01*
Y0149512D01*
X0241191D01*
Y0148779D01*
X0238559D01*
Y0149512D01*
X0237039D01*
Y0155D01*
X0236884Y015578D01*
X0236442Y0156442D01*
X0227539Y0165345D01*
Y0195304D01*
X0230517Y0198282D01*
X0231441Y0197899D01*
Y0197881D01*
X02345D01*
Y0200153D01*
X0233694D01*
X0233312Y0201077D01*
X0234325Y020209D01*
X0238559D01*
Y0202762D01*
X0240941D01*
Y0201969D01*
X0248059D01*
Y0202701D01*
X0249941D01*
Y0201969D01*
X0257059D01*
Y0202762D01*
X0262345D01*
X0262923Y0202009D01*
X0263758Y0201367D01*
X0264731Y0200964D01*
X0265776Y0200827D01*
X0268776D01*
X026982Y0200964D01*
X0270793Y0201367D01*
X0271628Y0202009D01*
X027227Y0202844D01*
X0272673Y0203817D01*
X027281Y0204861D01*
X0272673Y0205906D01*
X027227Y0206879D01*
X0271628Y0207714D01*
X0270793Y0208355D01*
X026982Y0208758D01*
X0268776Y0208896D01*
D02*
G37*
G36*
X0106994Y0212807D02*
X010208D01*
X0097166D01*
X009727Y0212018D01*
X0097768Y0210817D01*
X0098559Y0209786D01*
X009959Y0208995D01*
X0099944Y0208848D01*
Y0207766D01*
X009959Y020762D01*
X0098559Y0206828D01*
X0097768Y0205797D01*
X009727Y0204596D01*
X0097166Y0203807D01*
X010208D01*
X0106994D01*
X010689Y0204596D01*
X0106393Y0205797D01*
X0105601Y0206828D01*
X010457Y020762D01*
X0104217Y0207766D01*
Y0208848D01*
X010457Y0208995D01*
X0105601Y0209786D01*
X0106393Y0210817D01*
X010689Y0212018D01*
X0106994Y0212807D01*
D02*
G37*
G36*
X0238559Y0200153D02*
X02355D01*
Y0197881D01*
X0238559D01*
Y0200153D01*
D02*
G37*
G36*
X0257059Y0200031D02*
X0254D01*
Y019776D01*
X0257059D01*
Y0200031D01*
D02*
G37*
G36*
X0248059D02*
X0245D01*
Y019776D01*
X0248059D01*
Y0200031D01*
D02*
G37*
G36*
X0253D02*
X0249941D01*
Y019776D01*
X0253D01*
Y0200031D01*
D02*
G37*
G36*
X0244D02*
X0240941D01*
Y019776D01*
X0244D01*
Y0200031D01*
D02*
G37*
G36*
X0238559Y0196881D02*
X02355D01*
Y0194609D01*
X0238559D01*
Y0196881D01*
D02*
G37*
G36*
X02345D02*
X0231441D01*
Y0194609D01*
X02345D01*
Y0196881D01*
D02*
G37*
G36*
X0257059Y019676D02*
X0254D01*
Y0194488D01*
X0257059D01*
Y019676D01*
D02*
G37*
G36*
X0253D02*
X0249941D01*
Y0194488D01*
X0253D01*
Y019676D01*
D02*
G37*
G36*
X0248059D02*
X0245D01*
Y0194488D01*
X0248059D01*
Y019676D01*
D02*
G37*
G36*
X0244D02*
X0240941D01*
Y0194488D01*
X0244D01*
Y019676D01*
D02*
G37*
G36*
X0134437Y0198244D02*
X013D01*
Y0193807D01*
X0134437D01*
Y0198244D01*
D02*
G37*
G36*
X0129D02*
X0124563D01*
Y0193807D01*
X0129D01*
Y0198244D01*
D02*
G37*
G36*
X0018715Y0189471D02*
X0015499D01*
Y0187061D01*
X0018715D01*
Y0189471D01*
D02*
G37*
G36*
X0014499D02*
X0011282D01*
Y0187061D01*
X0014499D01*
Y0189471D01*
D02*
G37*
G36*
X0134437Y0192807D02*
X0124563D01*
Y0189244D01*
X0124563Y018837D01*
X0124563Y018737D01*
Y0183807D01*
X0134437D01*
Y018737D01*
X0134437Y0188244D01*
X0134437Y0189244D01*
Y0192807D01*
D02*
G37*
G36*
X0018715Y0186061D02*
X0015499D01*
Y0183652D01*
X0018715D01*
Y0186061D01*
D02*
G37*
G36*
X0014499D02*
X0011282D01*
Y0183652D01*
X0014499D01*
Y0186061D01*
D02*
G37*
G36*
X0134437Y0182807D02*
X0124563D01*
Y0179244D01*
X0124563Y017837D01*
X0124563Y017737D01*
Y0173807D01*
X0134437D01*
Y017737D01*
X0134437Y0178244D01*
X0134437Y0179244D01*
Y0182807D01*
D02*
G37*
G36*
X0272776Y01805D02*
X0261776D01*
Y01725D01*
X0272776D01*
Y01805D01*
D02*
G37*
G36*
X0298776Y0180535D02*
X0295776D01*
X0294731Y0180397D01*
X0293758Y0179994D01*
X0292923Y0179353D01*
X0292282Y0178517D01*
X0291879Y0177544D01*
X0291741Y01765D01*
X0291879Y0175456D01*
X0292282Y0174483D01*
X0292923Y0173647D01*
X0293758Y0173006D01*
X0294731Y0172603D01*
X0295776Y0172466D01*
X0298776D01*
X029982Y0172603D01*
X0300793Y0173006D01*
X0301628Y0173647D01*
X030227Y0174483D01*
X0302673Y0175456D01*
X030281Y01765D01*
X0302673Y0177544D01*
X030227Y0178517D01*
X0301628Y0179353D01*
X0300793Y0179994D01*
X029982Y0180397D01*
X0298776Y0180535D01*
D02*
G37*
G36*
Y0170535D02*
X0295776D01*
X0294731Y0170397D01*
X0293758Y0169994D01*
X0292923Y0169353D01*
X0292282Y0168517D01*
X0291879Y0167544D01*
X0291741Y01665D01*
X0291879Y0165456D01*
X0292282Y0164483D01*
X0292923Y0163647D01*
X0293758Y0163006D01*
X0294731Y0162603D01*
X0295776Y0162466D01*
X0298776D01*
X029982Y0162603D01*
X0300793Y0163006D01*
X0301628Y0163647D01*
X0302253Y0164461D01*
X0305441D01*
Y0163969D01*
X0312559D01*
Y0163969D01*
X0313441D01*
Y0163969D01*
X0320559D01*
Y0163969D01*
X0321441Y0163969D01*
Y0163969D01*
X0328559D01*
Y0164461D01*
X0332709D01*
X0333527Y0164122D01*
X0334473D01*
X0335347Y0164484D01*
X0336016Y0165153D01*
X0336378Y0166027D01*
Y0166973D01*
X0336016Y0167847D01*
X0335347Y0168516D01*
X0334473Y0168878D01*
X0333527D01*
X0332709Y0168539D01*
X0328559D01*
Y0169512D01*
X0321441D01*
Y0169512D01*
X0320559Y0169512D01*
Y0169512D01*
X0313441D01*
Y0169512D01*
X0312559D01*
Y0169512D01*
X0305441D01*
Y0168539D01*
X0302253D01*
X0301628Y0169353D01*
X0300793Y0169994D01*
X029982Y0170397D01*
X0298776Y0170535D01*
D02*
G37*
G36*
X0320559Y0162031D02*
X0320441Y0162031D01*
X03175D01*
Y015926D01*
Y0156488D01*
X0320441D01*
X0321441Y0156488D01*
X0321559Y0156488D01*
X03245D01*
Y015926D01*
Y0162031D01*
X0321559D01*
X0320559Y0162031D01*
D02*
G37*
G36*
X03085Y0162031D02*
X0305441D01*
Y015976D01*
X03085D01*
Y0162031D01*
D02*
G37*
G36*
X03255Y0162031D02*
Y015976D01*
X0328559D01*
Y0162031D01*
X03255D01*
D02*
G37*
G36*
X0266776Y0160535D02*
X0265776D01*
X0264731Y0160397D01*
X0263758Y0159994D01*
X0262923Y0159353D01*
X0262282Y0158517D01*
X0261878Y0157544D01*
X0261807Y0157D01*
X0266776D01*
Y0160535D01*
D02*
G37*
G36*
X0313441Y0162031D02*
X0312559D01*
X0312441Y0162031D01*
X03095D01*
Y015926D01*
Y0156488D01*
X0312441D01*
X0312559Y0156488D01*
X0313441D01*
X0313559Y0156488D01*
X03165D01*
Y015926D01*
Y0162031D01*
X0313559D01*
X0313441Y0162031D01*
D02*
G37*
G36*
X0328559Y015876D02*
X03255D01*
Y0156488D01*
X0328559D01*
Y015876D01*
D02*
G37*
G36*
X0266776Y0156D02*
X0261807D01*
X0261878Y0155456D01*
X0262282Y0154483D01*
X0262923Y0153647D01*
X0263758Y0153006D01*
X0264731Y0152603D01*
X0265776Y0152465D01*
X0266776D01*
Y0156D01*
D02*
G37*
G36*
X0298776Y0150534D02*
X0295776D01*
X0294731Y0150397D01*
X0293758Y0149994D01*
X0292923Y0149353D01*
X0292282Y0148517D01*
X0291879Y0147544D01*
X0291741Y01465D01*
X0291879Y0145456D01*
X0292282Y0144483D01*
X0292923Y0143647D01*
X0293758Y0143006D01*
X0294731Y0142603D01*
X0295776Y0142465D01*
X0298776D01*
X029982Y0142603D01*
X0300793Y0143006D01*
X0301628Y0143647D01*
X030227Y0144483D01*
X0302673Y0145456D01*
X030281Y01465D01*
X0302673Y0147544D01*
X030227Y0148517D01*
X0301628Y0149353D01*
X0300793Y0149994D01*
X029982Y0150397D01*
X0298776Y0150534D01*
D02*
G37*
G36*
X0258059Y0142032D02*
X0255D01*
Y013976D01*
X0258059D01*
Y0142032D01*
D02*
G37*
G36*
X0248309D02*
X024525D01*
Y013976D01*
X0248309D01*
Y0142032D01*
D02*
G37*
G36*
X0254D02*
X0250941D01*
Y013976D01*
X0254D01*
Y0142032D01*
D02*
G37*
G36*
X024425D02*
X0241191D01*
Y013976D01*
X024425D01*
Y0142032D01*
D02*
G37*
G36*
X0238559Y0142032D02*
X02355D01*
Y013976D01*
X0238559D01*
Y0142032D01*
D02*
G37*
G36*
X02345D02*
X0231441D01*
Y013976D01*
X02345D01*
Y0142032D01*
D02*
G37*
G36*
X0258059Y013876D02*
X0255D01*
Y0136488D01*
X0258059D01*
Y013876D01*
D02*
G37*
G36*
X0254D02*
X0250941D01*
Y0136488D01*
X0254D01*
Y013876D01*
D02*
G37*
G36*
X0248309D02*
X024525D01*
Y0136488D01*
X0248309D01*
Y013876D01*
D02*
G37*
G36*
X024425D02*
X0241191D01*
Y0136488D01*
X024425D01*
Y013876D01*
D02*
G37*
G36*
X0238559Y013876D02*
X02355D01*
Y0136488D01*
X0238559D01*
Y013876D01*
D02*
G37*
G36*
X02345D02*
X0231441D01*
Y0136488D01*
X02345D01*
Y013876D01*
D02*
G37*
G36*
X0213Y011775D02*
X02095D01*
Y0114D01*
X0213D01*
Y011775D01*
D02*
G37*
G36*
X02085D02*
X0205D01*
Y0114D01*
X02085D01*
Y011775D01*
D02*
G37*
G36*
X0284571Y0116717D02*
X0278752D01*
Y0109283D01*
X0284571D01*
Y0111331D01*
X0287194D01*
X0287669Y0111013D01*
X0288236Y0110901D01*
X0292764D01*
X0293331Y0111013D01*
X0293811Y0111335D01*
X0294132Y0111815D01*
X0294245Y0112382D01*
Y0115099D01*
X0294132Y0115665D01*
X0293811Y0116146D01*
X0293331Y0116467D01*
X0292764Y011658D01*
X0288236D01*
X0287669Y0116467D01*
X0287189Y0116146D01*
X0286868Y0115665D01*
X0286817Y0115409D01*
X0284571D01*
Y0116717D01*
D02*
G37*
G36*
X0213Y0113D02*
X02095D01*
Y010925D01*
X0213D01*
Y0113D01*
D02*
G37*
G36*
X02085D02*
X0205D01*
Y010925D01*
X02085D01*
Y0113D01*
D02*
G37*
G36*
X0324417Y0120779D02*
X0323583D01*
X0322778Y0120563D01*
X0322056Y0120147D01*
X0321467Y0119557D01*
X032105Y0118836D01*
X0320835Y0118031D01*
Y0117197D01*
X032105Y0116392D01*
X0321467Y011567D01*
X0321961Y0115176D01*
Y0103571D01*
X0320284D01*
Y0102799D01*
X0318412D01*
Y0103571D01*
X0310979D01*
Y0097949D01*
X0318412D01*
Y0098721D01*
X0320284D01*
Y0097949D01*
X0327716D01*
Y0103571D01*
X0326039D01*
Y0115176D01*
X0326533Y011567D01*
X032695Y0116392D01*
X0327165Y0117197D01*
Y0118031D01*
X032695Y0118836D01*
X0326533Y0119557D01*
X0325944Y0120147D01*
X0325222Y0120563D01*
X0324417Y0120779D01*
D02*
G37*
G36*
X0226Y011775D02*
X0218D01*
Y010925D01*
X0219961D01*
Y0098874D01*
X0219478Y0098674D01*
X0218434Y0097873D01*
X0217633Y0096829D01*
X0217541Y0096608D01*
X0216459D01*
X0216368Y0096829D01*
X0215566Y0097873D01*
X0214522Y0098674D01*
X0213305Y0099178D01*
X0212Y009935D01*
X0210695Y0099178D01*
X0209478Y0098674D01*
X0208434Y0097873D01*
X0208Y0097307D01*
X0207Y0097647D01*
Y0099307D01*
X0197D01*
Y0095346D01*
X01795D01*
Y0097557D01*
X01715D01*
Y0089057D01*
X01795D01*
Y0091268D01*
X0197D01*
Y0087307D01*
X0207D01*
Y0088967D01*
X0208Y0089306D01*
X0208434Y0088741D01*
X0209478Y008794D01*
X0209861Y0087781D01*
Y0077D01*
X0210016Y007622D01*
X0210458Y0075558D01*
X022286Y0063157D01*
X0222563Y006205D01*
Y006075D01*
X0222899Y0059494D01*
X0223549Y0058369D01*
X0224469Y0057449D01*
X0225594Y0056799D01*
X022685Y0056463D01*
X022815D01*
X0229406Y0056799D01*
X0230531Y0057449D01*
X0231451Y0058369D01*
X0232101Y0059494D01*
X0232437Y006075D01*
Y006205D01*
X0232101Y0063306D01*
X0231451Y0064431D01*
X0230531Y0065351D01*
X0229406Y0066001D01*
X022815Y0066337D01*
X022685D01*
X0225743Y006604D01*
X0213939Y0077845D01*
Y0087698D01*
X0214522Y008794D01*
X0215566Y0088741D01*
X0216368Y0089785D01*
X0216459Y0090006D01*
X0217541D01*
X0217633Y0089785D01*
X0218434Y0088741D01*
X0219478Y008794D01*
X0220695Y0087436D01*
X0222Y0087264D01*
X0223305Y0087436D01*
X0224522Y008794D01*
X0225566Y0088741D01*
X0226367Y0089785D01*
X0226871Y0091002D01*
X0227043Y0092307D01*
Y0094307D01*
X0226871Y0095612D01*
X0226367Y0096829D01*
X0225566Y0097873D01*
X0224522Y0098674D01*
X0224039Y0098874D01*
Y010925D01*
X0226D01*
Y011775D01*
D02*
G37*
G36*
X0106994Y0202807D02*
X010208D01*
X0097166D01*
X009727Y0202018D01*
X0097768Y0200817D01*
X0098559Y0199786D01*
X009959Y0198995D01*
X0099944Y0198848D01*
Y0197766D01*
X009959Y0197619D01*
X0098559Y0196828D01*
X0097768Y0195797D01*
X009727Y0194596D01*
X00971Y0193307D01*
X009727Y0192018D01*
X0097768Y0190817D01*
X0098559Y0189786D01*
X009959Y0188995D01*
X0099944Y0188848D01*
Y0187766D01*
X009959Y0187619D01*
X0098559Y0186828D01*
X0097768Y0185797D01*
X009727Y0184596D01*
X00971Y0183307D01*
X009727Y0182018D01*
X0097768Y0180817D01*
X0098559Y0179786D01*
X009959Y0178995D01*
X0099944Y0178848D01*
Y0177766D01*
X009959Y017762D01*
X0098559Y0176828D01*
X0097768Y0175797D01*
X009727Y0174596D01*
X00971Y0173307D01*
X009727Y0172018D01*
X0097768Y0170817D01*
X0098559Y0169786D01*
X009959Y0168994D01*
X0099944Y0168848D01*
Y0167766D01*
X009959Y016762D01*
X0098559Y0166828D01*
X0097768Y0165797D01*
X009727Y0164596D01*
X00971Y0163307D01*
X009727Y0162018D01*
X0097768Y0160817D01*
X0098559Y0159786D01*
X009959Y0158994D01*
X0099944Y0158848D01*
Y0157766D01*
X009959Y015762D01*
X0098559Y0156828D01*
X0097768Y0155797D01*
X009727Y0154596D01*
X00971Y0153307D01*
X009727Y0152018D01*
X0097768Y0150817D01*
X0098559Y0149786D01*
X009959Y0148995D01*
X0099944Y0148848D01*
Y0147766D01*
X009959Y0147619D01*
X0098559Y0146828D01*
X0097768Y0145797D01*
X009727Y0144596D01*
X00971Y0143307D01*
X009727Y0142018D01*
X0097768Y0140817D01*
X0098559Y0139786D01*
X009959Y0138995D01*
X0099944Y0138848D01*
Y0137766D01*
X009959Y0137619D01*
X0098559Y0136828D01*
X0097768Y0135797D01*
X009727Y0134596D01*
X00971Y0133307D01*
X009727Y0132018D01*
X0097768Y0130817D01*
X0098559Y0129786D01*
X009959Y0128995D01*
X0099944Y0128848D01*
Y0127766D01*
X009959Y012762D01*
X0098559Y0126828D01*
X0097768Y0125797D01*
X009727Y0124596D01*
X00971Y0123307D01*
X009727Y0122018D01*
X0097768Y0120817D01*
X0098559Y0119786D01*
X009959Y0118994D01*
X0099944Y0118848D01*
Y0117766D01*
X009959Y011762D01*
X0098559Y0116828D01*
X0097768Y0115797D01*
X009727Y0114596D01*
X00971Y0113307D01*
X009727Y0112018D01*
X0097768Y0110817D01*
X0098559Y0109786D01*
X009959Y0108994D01*
X0099944Y0108848D01*
Y0107766D01*
X009959Y010762D01*
X0098559Y0106828D01*
X0097768Y0105797D01*
X009727Y0104596D01*
X00971Y0103307D01*
X009727Y0102018D01*
X0097768Y0100817D01*
X0098559Y0099786D01*
X009959Y0098994D01*
X0099944Y0098848D01*
Y0097766D01*
X009959Y0097619D01*
X0098559Y0096828D01*
X0097768Y0095797D01*
X009727Y0094596D01*
X00971Y0093307D01*
X009727Y0092018D01*
X0097768Y0090817D01*
X0098559Y0089786D01*
X009959Y0088994D01*
X0099944Y0088848D01*
Y0087766D01*
X009959Y008762D01*
X0098559Y0086828D01*
X0097768Y0085797D01*
X009727Y0084596D01*
X00971Y0083307D01*
X009727Y0082018D01*
X0097768Y0080817D01*
X0098559Y0079786D01*
X009959Y0078995D01*
X0099944Y0078848D01*
Y0077766D01*
X009959Y0077619D01*
X0098559Y0076828D01*
X0097768Y0075797D01*
X009727Y0074596D01*
X00971Y0073307D01*
X009727Y0072018D01*
X0097768Y0070817D01*
X0098559Y0069786D01*
X009959Y0068994D01*
X0099944Y0068848D01*
Y0067766D01*
X009959Y006762D01*
X0098559Y0066828D01*
X0097768Y0065797D01*
X009727Y0064596D01*
X00971Y0063307D01*
X009727Y0062018D01*
X0097768Y0060817D01*
X0098559Y0059786D01*
X009959Y0058995D01*
X0099944Y0058848D01*
Y0057766D01*
X009959Y005762D01*
X0098559Y0056828D01*
X0097768Y0055797D01*
X009727Y0054596D01*
X00971Y0053307D01*
X009727Y0052018D01*
X0097768Y0050817D01*
X0098559Y0049786D01*
X009959Y0048994D01*
X0099944Y0048848D01*
Y0047766D01*
X009959Y004762D01*
X0098559Y0046828D01*
X0097768Y0045797D01*
X009727Y0044596D01*
X00971Y0043307D01*
X009727Y0042018D01*
X0097768Y0040817D01*
X0098559Y0039786D01*
X009959Y0038995D01*
X0099944Y0038848D01*
Y0037766D01*
X009959Y003762D01*
X0098559Y0036828D01*
X0097768Y0035797D01*
X009727Y0034596D01*
X00971Y0033307D01*
X009727Y0032018D01*
X0097768Y0030817D01*
X0098559Y0029786D01*
X009959Y0028995D01*
X0099944Y0028848D01*
Y0027766D01*
X009959Y0027619D01*
X0098559Y0026828D01*
X0097768Y0025797D01*
X009727Y0024596D01*
X00971Y0023307D01*
X009727Y0022018D01*
X0097768Y0020817D01*
X0098559Y0019786D01*
X009959Y0018994D01*
X0100791Y0018497D01*
X010208Y0018327D01*
X0103369Y0018497D01*
X010457Y0018994D01*
X0105601Y0019786D01*
X0106393Y0020817D01*
X010689Y0022018D01*
X010706Y0023307D01*
X010689Y0024596D01*
X0106393Y0025797D01*
X0105601Y0026828D01*
X010457Y0027619D01*
X0104217Y0027766D01*
Y0028848D01*
X010457Y0028995D01*
X0105601Y0029786D01*
X0106393Y0030817D01*
X010689Y0032018D01*
X010706Y0033307D01*
X010689Y0034596D01*
X0106393Y0035797D01*
X0105601Y0036828D01*
X010457Y003762D01*
X0104217Y0037766D01*
Y0038848D01*
X010457Y0038995D01*
X0105601Y0039786D01*
X0106393Y0040817D01*
X010689Y0042018D01*
X010706Y0043307D01*
X010689Y0044596D01*
X0106393Y0045797D01*
X0105601Y0046828D01*
X010457Y004762D01*
X0104217Y0047766D01*
Y0048848D01*
X010457Y0048994D01*
X0105601Y0049786D01*
X0106393Y0050817D01*
X010689Y0052018D01*
X010706Y0053307D01*
X010689Y0054596D01*
X0106393Y0055797D01*
X0105601Y0056828D01*
X010457Y005762D01*
X0104217Y0057766D01*
Y0058848D01*
X010457Y0058995D01*
X0105601Y0059786D01*
X0106393Y0060817D01*
X010689Y0062018D01*
X010706Y0063307D01*
X010689Y0064596D01*
X0106393Y0065797D01*
X0105601Y0066828D01*
X010457Y006762D01*
X0104217Y0067766D01*
Y0068848D01*
X010457Y0068994D01*
X0105601Y0069786D01*
X0106393Y0070817D01*
X0106579Y0071268D01*
X0142016D01*
X0142834Y0070929D01*
X014378D01*
X0144654Y0071291D01*
X0145323Y007196D01*
X0145685Y0072834D01*
Y007378D01*
X0145323Y0074654D01*
X0144654Y0075323D01*
X014378Y0075685D01*
X0142834D01*
X0142016Y0075346D01*
X0106579D01*
X0106393Y0075797D01*
X0105601Y0076828D01*
X010457Y0077619D01*
X0104217Y0077766D01*
Y0078848D01*
X010457Y0078995D01*
X0105601Y0079786D01*
X0106393Y0080817D01*
X0106579Y0081268D01*
X01585D01*
Y0079057D01*
X01665D01*
Y0087557D01*
X01585D01*
Y0085346D01*
X0106579D01*
X0106393Y0085797D01*
X0105601Y0086828D01*
X010457Y008762D01*
X0104217Y0087766D01*
Y0088848D01*
X010457Y0088994D01*
X0105601Y0089786D01*
X0106393Y0090817D01*
X0106579Y0091268D01*
X01585D01*
Y0089057D01*
X01665D01*
Y0097557D01*
X01585D01*
Y0095346D01*
X0106579D01*
X0106393Y0095797D01*
X0105601Y0096828D01*
X010457Y0097619D01*
X0104217Y0097766D01*
Y0098848D01*
X010457Y0098994D01*
X0105601Y0099786D01*
X0106393Y0100817D01*
X010689Y0102018D01*
X010706Y0103307D01*
X010689Y0104596D01*
X0106393Y0105797D01*
X0105601Y0106828D01*
X010457Y010762D01*
X0104217Y0107766D01*
Y0108848D01*
X010457Y0108994D01*
X0105601Y0109786D01*
X0106393Y0110817D01*
X010689Y0112018D01*
X010706Y0113307D01*
X010689Y0114596D01*
X0106393Y0115797D01*
X0105601Y0116828D01*
X010457Y011762D01*
X0104217Y0117766D01*
Y0118848D01*
X010457Y0118994D01*
X0105601Y0119786D01*
X0106393Y0120817D01*
X010689Y0122018D01*
X010706Y0123307D01*
X010689Y0124596D01*
X0106393Y0125797D01*
X0105601Y0126828D01*
X010457Y012762D01*
X0104217Y0127766D01*
Y0128848D01*
X010457Y0128995D01*
X0105601Y0129786D01*
X0106393Y0130817D01*
X010689Y0132018D01*
X010706Y0133307D01*
X010689Y0134596D01*
X0106393Y0135797D01*
X0105601Y0136828D01*
X010457Y0137619D01*
X0104217Y0137766D01*
Y0138848D01*
X010457Y0138995D01*
X0105601Y0139786D01*
X0106393Y0140817D01*
X010689Y0142018D01*
X010706Y0143307D01*
X010689Y0144596D01*
X0106393Y0145797D01*
X0105601Y0146828D01*
X010457Y0147619D01*
X0104217Y0147766D01*
Y0148848D01*
X010457Y0148995D01*
X0105601Y0149786D01*
X0106393Y0150817D01*
X010689Y0152018D01*
X010706Y0153307D01*
X010689Y0154596D01*
X0106393Y0155797D01*
X0105601Y0156828D01*
X010457Y015762D01*
X0104217Y0157766D01*
Y0158848D01*
X010457Y0158994D01*
X0105601Y0159786D01*
X0106393Y0160817D01*
X010689Y0162018D01*
X010706Y0163307D01*
X010689Y0164596D01*
X0106393Y0165797D01*
X0105601Y0166828D01*
X010457Y016762D01*
X0104217Y0167766D01*
Y0168848D01*
X010457Y0168994D01*
X0105601Y0169786D01*
X0106393Y0170817D01*
X010689Y0172018D01*
X010706Y0173307D01*
X010689Y0174596D01*
X0106393Y0175797D01*
X0105601Y0176828D01*
X010457Y017762D01*
X0104217Y0177766D01*
Y0178848D01*
X010457Y0178995D01*
X0105601Y0179786D01*
X0106393Y0180817D01*
X010689Y0182018D01*
X010706Y0183307D01*
X010689Y0184596D01*
X0106393Y0185797D01*
X0105601Y0186828D01*
X010457Y0187619D01*
X0104217Y0187766D01*
Y0188848D01*
X010457Y0188995D01*
X0105601Y0189786D01*
X0106393Y0190817D01*
X010689Y0192018D01*
X010706Y0193307D01*
X010689Y0194596D01*
X0106393Y0195797D01*
X0105601Y0196828D01*
X010457Y0197619D01*
X0104217Y0197766D01*
Y0198848D01*
X010457Y0198995D01*
X0105601Y0199786D01*
X0106393Y0200817D01*
X010689Y0202018D01*
X0106994Y0202807D01*
D02*
G37*
G36*
X0327716Y0096051D02*
X0320284D01*
Y0090429D01*
X0321961D01*
Y0089199D01*
X0320205D01*
Y0083262D01*
X0327795D01*
Y0089199D01*
X0326039D01*
Y0090429D01*
X0327716D01*
Y0096051D01*
D02*
G37*
G36*
X0318412D02*
X0310979D01*
Y0090429D01*
X0312656D01*
Y0089199D01*
X03109D01*
Y0083262D01*
X0318491D01*
Y0089199D01*
X0316734D01*
Y0090429D01*
X0318412D01*
Y0096051D01*
D02*
G37*
G36*
X0318491Y0081837D02*
X0315195D01*
Y0079369D01*
X0318491D01*
Y0081837D01*
D02*
G37*
G36*
X0314195D02*
X03109D01*
Y0079369D01*
X0314195D01*
Y0081837D01*
D02*
G37*
G36*
X0318491Y0078369D02*
X0315195D01*
Y00759D01*
X0318491D01*
Y0078369D01*
D02*
G37*
G36*
X0314195D02*
X03109D01*
Y00759D01*
X0314195D01*
Y0078369D01*
D02*
G37*
G36*
X004218Y0218344D02*
X0040891Y0218174D01*
X003969Y0217677D01*
X0038659Y0216885D01*
X0037868Y0215854D01*
X003737Y0214653D01*
X00372Y0213364D01*
X003737Y0212075D01*
X0037868Y0210874D01*
X0038659Y0209843D01*
X003969Y0209052D01*
X0040164Y0208855D01*
Y0207773D01*
X003969Y0207577D01*
X0038659Y0206785D01*
X0037868Y0205754D01*
X003737Y0204553D01*
X00372Y0203264D01*
X003737Y0201975D01*
X0037868Y0200774D01*
X0038659Y0199743D01*
X003969Y0198952D01*
X0040044Y0198805D01*
Y0197723D01*
X003969Y0197577D01*
X0038659Y0196785D01*
X0037868Y0195754D01*
X003737Y0194553D01*
X00372Y0193264D01*
X003737Y0191975D01*
X0037868Y0190774D01*
X0038659Y0189743D01*
X003969Y0188952D01*
X0040044Y0188805D01*
Y0187723D01*
X003969Y0187577D01*
X0038659Y0186785D01*
X0037868Y0185754D01*
X003737Y0184553D01*
X00372Y0183264D01*
X003737Y0181975D01*
X0037868Y0180774D01*
X0038659Y0179743D01*
X003969Y0178952D01*
X0040044Y0178805D01*
Y0177723D01*
X003969Y0177577D01*
X0038659Y0176785D01*
X0037868Y0175754D01*
X003737Y0174553D01*
X00372Y0173264D01*
X003737Y0171975D01*
X0037868Y0170774D01*
X0038659Y0169743D01*
X003969Y0168952D01*
X0040044Y0168805D01*
Y0167723D01*
X003969Y0167577D01*
X0038659Y0166785D01*
X0037868Y0165754D01*
X003737Y0164553D01*
X00372Y0163264D01*
X003737Y0161975D01*
X0037868Y0160774D01*
X0038659Y0159743D01*
X003969Y0158952D01*
X0040044Y0158805D01*
Y0157723D01*
X003969Y0157577D01*
X0038659Y0156785D01*
X0037868Y0155754D01*
X003737Y0154553D01*
X00372Y0153264D01*
X003737Y0151975D01*
X0037868Y0150774D01*
X0038659Y0149743D01*
X003969Y0148952D01*
X0040044Y0148805D01*
Y0147723D01*
X003969Y0147577D01*
X0038659Y0146785D01*
X0037868Y0145754D01*
X003737Y0144553D01*
X00372Y0143264D01*
X003737Y0141975D01*
X0037868Y0140774D01*
X0038659Y0139743D01*
X003969Y0138952D01*
X0040044Y0138805D01*
Y0137723D01*
X003969Y0137577D01*
X0038659Y0136785D01*
X0037868Y0135754D01*
X003737Y0134553D01*
X00372Y0133264D01*
X003737Y0131975D01*
X0037868Y0130774D01*
X0038659Y0129743D01*
X003969Y0128952D01*
X0040044Y0128805D01*
Y0127723D01*
X003969Y0127577D01*
X0038659Y0126785D01*
X0037868Y0125754D01*
X003737Y0124553D01*
X00372Y0123264D01*
X003737Y0121975D01*
X0037868Y0120774D01*
X0038659Y0119743D01*
X003969Y0118952D01*
X0040044Y0118805D01*
Y0117723D01*
X003969Y0117577D01*
X0038659Y0116785D01*
X0037868Y0115754D01*
X003737Y0114553D01*
X00372Y0113264D01*
X003737Y0111975D01*
X0037868Y0110774D01*
X0038659Y0109743D01*
X003969Y0108952D01*
X0040044Y0108805D01*
Y0107723D01*
X003969Y0107577D01*
X0038659Y0106785D01*
X0037868Y0105754D01*
X003737Y0104553D01*
X00372Y0103264D01*
X003737Y0101975D01*
X0037868Y0100774D01*
X0038659Y0099743D01*
X003969Y0098952D01*
X0040044Y0098805D01*
Y0097723D01*
X003969Y0097577D01*
X0038659Y0096785D01*
X0037868Y0095754D01*
X003737Y0094553D01*
X00372Y0093264D01*
X003737Y0091975D01*
X0037868Y0090774D01*
X0038659Y0089743D01*
X003969Y0088952D01*
X0040044Y0088805D01*
Y0087723D01*
X003969Y0087577D01*
X0038659Y0086785D01*
X0037868Y0085754D01*
X003737Y0084553D01*
X00372Y0083264D01*
X003737Y0081975D01*
X0037868Y0080774D01*
X0038659Y0079743D01*
X003969Y0078952D01*
X0040044Y0078805D01*
Y0077723D01*
X003969Y0077577D01*
X0038659Y0076785D01*
X0037868Y0075754D01*
X003737Y0074553D01*
X00372Y0073264D01*
X003731Y0072432D01*
X0036363Y0071965D01*
X0022539Y0085789D01*
Y01505D01*
X0022384Y015128D01*
X0021942Y0151942D01*
X0017038Y0156846D01*
Y0158192D01*
X0018853D01*
Y0164278D01*
X0018853Y0164522D01*
Y0165278D01*
X0018853Y0165522D01*
Y0171609D01*
X0017038D01*
Y0176329D01*
X0018715D01*
Y0182148D01*
X0011282D01*
Y0176329D01*
X001296D01*
Y0171609D01*
X0011145D01*
Y0165522D01*
X0011145Y0165278D01*
Y0164522D01*
X0011145Y0164278D01*
Y0158192D01*
X001296D01*
Y0156001D01*
X0013115Y0155221D01*
X0013557Y0154559D01*
X0018461Y0149655D01*
Y0084944D01*
X0018616Y0084164D01*
X0019058Y0083502D01*
X0037557Y0065004D01*
X003737Y0064553D01*
X00372Y0063264D01*
X003737Y0061975D01*
X0037868Y0060774D01*
X0038659Y0059743D01*
X003969Y0058952D01*
X0040044Y0058805D01*
Y0057723D01*
X003969Y0057577D01*
X0038659Y0056785D01*
X0037868Y0055754D01*
X003737Y0054553D01*
X00372Y0053264D01*
X003737Y0051975D01*
X0037868Y0050774D01*
X0038659Y0049743D01*
X003969Y0048952D01*
X0040044Y0048805D01*
Y0047723D01*
X003969Y0047577D01*
X0038659Y0046785D01*
X0037868Y0045754D01*
X003737Y0044553D01*
X00372Y0043264D01*
X003737Y0041975D01*
X0037868Y0040774D01*
X0038659Y0039743D01*
X003969Y0038952D01*
X0040044Y0038805D01*
Y0037723D01*
X003969Y0037577D01*
X0038659Y0036785D01*
X0037868Y0035754D01*
X003737Y0034553D01*
X00372Y0033264D01*
X003737Y0031975D01*
X0037868Y0030774D01*
X0038659Y0029743D01*
X003969Y0028952D01*
X0040044Y0028805D01*
Y0027723D01*
X003969Y0027577D01*
X0038659Y0026785D01*
X0037868Y0025754D01*
X003737Y0024553D01*
X00372Y0023264D01*
X003737Y0021975D01*
X0037868Y0020774D01*
X0038659Y0019743D01*
X003969Y0018952D01*
X0040891Y0018454D01*
X004218Y0018285D01*
X0043469Y0018454D01*
X004467Y0018952D01*
X0045701Y0019743D01*
X0046492Y0020774D01*
X004699Y0021975D01*
X004716Y0023264D01*
X004699Y0024553D01*
X0046492Y0025754D01*
X0045701Y0026785D01*
X004467Y0027577D01*
X0044317Y0027723D01*
Y0028805D01*
X004467Y0028952D01*
X0045701Y0029743D01*
X0046492Y0030774D01*
X004699Y0031975D01*
X004716Y0033264D01*
X004699Y0034553D01*
X0046492Y0035754D01*
X0045701Y0036785D01*
X004467Y0037577D01*
X0044317Y0037723D01*
Y0038805D01*
X004467Y0038952D01*
X0045701Y0039743D01*
X0046492Y0040774D01*
X004699Y0041975D01*
X004716Y0043264D01*
X004699Y0044553D01*
X0046492Y0045754D01*
X0045701Y0046785D01*
X004467Y0047577D01*
X0044317Y0047723D01*
Y0048805D01*
X004467Y0048952D01*
X0045701Y0049743D01*
X0046492Y0050774D01*
X004699Y0051975D01*
X004716Y0053264D01*
X004699Y0054553D01*
X0046492Y0055754D01*
X0045701Y0056785D01*
X004467Y0057577D01*
X0044317Y0057723D01*
Y0058805D01*
X004467Y0058952D01*
X0045701Y0059743D01*
X0046492Y0060774D01*
X004699Y0061975D01*
X004716Y0063264D01*
X004699Y0064553D01*
X0046492Y0065754D01*
X0045701Y0066785D01*
X004467Y0067577D01*
X0044317Y0067723D01*
Y0068805D01*
X004467Y0068952D01*
X0045701Y0069743D01*
X0046492Y0070774D01*
X004699Y0071975D01*
X004716Y0073264D01*
X004699Y0074553D01*
X0046492Y0075754D01*
X0045701Y0076785D01*
X004467Y0077577D01*
X0044317Y0077723D01*
Y0078805D01*
X004467Y0078952D01*
X0045701Y0079743D01*
X0046492Y0080774D01*
X004699Y0081975D01*
X004716Y0083264D01*
X004699Y0084553D01*
X0046492Y0085754D01*
X0045701Y0086785D01*
X004467Y0087577D01*
X0044317Y0087723D01*
Y0088805D01*
X004467Y0088952D01*
X0045701Y0089743D01*
X0046492Y0090774D01*
X004699Y0091975D01*
X004716Y0093264D01*
X004699Y0094553D01*
X0046492Y0095754D01*
X0045701Y0096785D01*
X004467Y0097577D01*
X0044317Y0097723D01*
Y0098805D01*
X004467Y0098952D01*
X0045701Y0099743D01*
X0046492Y0100774D01*
X004699Y0101975D01*
X004716Y0103264D01*
X004699Y0104553D01*
X0046492Y0105754D01*
X0045701Y0106785D01*
X004467Y0107577D01*
X0044317Y0107723D01*
Y0108805D01*
X004467Y0108952D01*
X0045701Y0109743D01*
X0046492Y0110774D01*
X004699Y0111975D01*
X004716Y0113264D01*
X004699Y0114553D01*
X0046492Y0115754D01*
X0045701Y0116785D01*
X004467Y0117577D01*
X0044317Y0117723D01*
Y0118805D01*
X004467Y0118952D01*
X0045701Y0119743D01*
X0046492Y0120774D01*
X004699Y0121975D01*
X004716Y0123264D01*
X004699Y0124553D01*
X0046492Y0125754D01*
X0045701Y0126785D01*
X004467Y0127577D01*
X0044317Y0127723D01*
Y0128805D01*
X004467Y0128952D01*
X0045701Y0129743D01*
X0046492Y0130774D01*
X004699Y0131975D01*
X004716Y0133264D01*
X004699Y0134553D01*
X0046492Y0135754D01*
X0045701Y0136785D01*
X004467Y0137577D01*
X0044317Y0137723D01*
Y0138805D01*
X004467Y0138952D01*
X0045701Y0139743D01*
X0046492Y0140774D01*
X004699Y0141975D01*
X004716Y0143264D01*
X004699Y0144553D01*
X0046492Y0145754D01*
X0045701Y0146785D01*
X004467Y0147577D01*
X0044317Y0147723D01*
Y0148805D01*
X004467Y0148952D01*
X0045701Y0149743D01*
X0046492Y0150774D01*
X004699Y0151975D01*
X004716Y0153264D01*
X004699Y0154553D01*
X0046492Y0155754D01*
X0045701Y0156785D01*
X004467Y0157577D01*
X0044317Y0157723D01*
Y0158805D01*
X004467Y0158952D01*
X0045701Y0159743D01*
X0046492Y0160774D01*
X004699Y0161975D01*
X004716Y0163264D01*
X004699Y0164553D01*
X0046492Y0165754D01*
X0045701Y0166785D01*
X004467Y0167577D01*
X0044317Y0167723D01*
Y0168805D01*
X004467Y0168952D01*
X0045701Y0169743D01*
X0046492Y0170774D01*
X004699Y0171975D01*
X004716Y0173264D01*
X004699Y0174553D01*
X0046492Y0175754D01*
X0045701Y0176785D01*
X004467Y0177577D01*
X0044317Y0177723D01*
Y0178805D01*
X004467Y0178952D01*
X0045701Y0179743D01*
X0046492Y0180774D01*
X004699Y0181975D01*
X004716Y0183264D01*
X004699Y0184553D01*
X0046492Y0185754D01*
X0045701Y0186785D01*
X004467Y0187577D01*
X0044317Y0187723D01*
Y0188805D01*
X004467Y0188952D01*
X0045701Y0189743D01*
X0046492Y0190774D01*
X004699Y0191975D01*
X004716Y0193264D01*
X004699Y0194553D01*
X0046492Y0195754D01*
X0045701Y0196785D01*
X004467Y0197577D01*
X0044317Y0197723D01*
Y0198805D01*
X004467Y0198952D01*
X0045701Y0199743D01*
X0046492Y0200774D01*
X004699Y0201975D01*
X004716Y0203264D01*
X004699Y0204553D01*
X0046492Y0205754D01*
X0045701Y0206785D01*
X004467Y0207577D01*
X0044196Y0207773D01*
Y0208855D01*
X004467Y0209052D01*
X0045701Y0209843D01*
X0046492Y0210874D01*
X004699Y0212075D01*
X004716Y0213364D01*
X004699Y0214653D01*
X0046492Y0215854D01*
X0045701Y0216885D01*
X004467Y0217677D01*
X0043469Y0218174D01*
X004218Y0218344D01*
D02*
G37*
G36*
X0134437Y0172807D02*
X0124563D01*
Y0169244D01*
X0124563Y016837D01*
X0124563Y016737D01*
Y015837D01*
X0124563D01*
Y0158244D01*
X0124563D01*
Y014837D01*
X0124563D01*
Y0148244D01*
X0124563D01*
Y0139244D01*
X0124563Y013837D01*
X0124563Y013737D01*
Y0129244D01*
X0124563Y012837D01*
X0124563Y012737D01*
Y0119244D01*
X0124563Y011837D01*
X0124563Y011737D01*
Y0109244D01*
X0124563Y010837D01*
X0124563Y010737D01*
Y009837D01*
X0134437D01*
Y010737D01*
X0134437Y0108244D01*
X0134437Y0109244D01*
Y011737D01*
X0134437Y0118244D01*
X0134437Y0119244D01*
Y012737D01*
X0134437Y0128244D01*
X0134437Y0129244D01*
Y013737D01*
X0134437Y0138244D01*
X0134437Y0139244D01*
Y0141268D01*
X0207348D01*
X0282058Y0066558D01*
X028272Y0066116D01*
X02835Y0065961D01*
X0319D01*
X031978Y0066116D01*
X0320442Y0066558D01*
X0325442Y0071558D01*
X0325884Y007222D01*
X0326039Y0073D01*
Y00759D01*
X0327795D01*
Y0081837D01*
X0320205D01*
Y00759D01*
X0321961D01*
Y0073845D01*
X0318155Y0070039D01*
X0284345D01*
X0209635Y0144749D01*
X0208973Y0145191D01*
X0208193Y0145346D01*
X0134437D01*
Y0148244D01*
X0134437D01*
Y014837D01*
X0134437D01*
Y0158244D01*
X0134437D01*
Y015837D01*
X0134437D01*
Y016737D01*
X0134437Y0168244D01*
X0134437Y0169244D01*
Y0172807D01*
D02*
G37*
G36*
X020475Y0071D02*
X019625D01*
Y0069039D01*
X01885D01*
X018772Y0068884D01*
X0187058Y0068442D01*
X0184062Y0065446D01*
X018362Y0064784D01*
X0183465Y0064004D01*
Y0060676D01*
X0181724D01*
Y0053124D01*
X0189276D01*
Y0060676D01*
X0187543D01*
Y0063159D01*
X0189345Y0064961D01*
X019625D01*
Y0063D01*
X020475D01*
Y0071D01*
D02*
G37*
G36*
X0273618Y0066337D02*
X0263744D01*
Y0056463D01*
X0273618D01*
Y0066337D01*
D02*
G37*
G36*
X020475Y0058D02*
X0201D01*
Y00545D01*
X020475D01*
Y0058D01*
D02*
G37*
G36*
X02D02*
X019625D01*
Y00545D01*
X02D01*
Y0058D01*
D02*
G37*
G36*
X01795Y0087557D02*
X01715D01*
Y0079057D01*
X0173461D01*
Y0060082D01*
X0173182Y0059921D01*
X0172479Y0059218D01*
X0171982Y0058357D01*
X0171724Y0057397D01*
Y0056403D01*
X0171982Y0055443D01*
X0172479Y0054582D01*
X0173182Y0053879D01*
X0174043Y0053382D01*
X0175003Y0053124D01*
X0175997D01*
X0176957Y0053382D01*
X0177818Y0053879D01*
X0178521Y0054582D01*
X0179018Y0055443D01*
X0179276Y0056403D01*
Y0057397D01*
X0179018Y0058357D01*
X0178521Y0059218D01*
X0177818Y0059921D01*
X0177539Y0060082D01*
Y0079057D01*
X01795D01*
Y0087557D01*
D02*
G37*
G36*
X020475Y00535D02*
X0201D01*
Y005D01*
X020475D01*
Y00535D01*
D02*
G37*
G36*
X02D02*
X019625D01*
Y005D01*
X02D01*
Y00535D01*
D02*
G37*
G36*
X0273618Y0051237D02*
X0263744D01*
Y0041363D01*
X0273618D01*
Y0051237D01*
D02*
G37*
G36*
X0016437Y0128201D02*
X0006563D01*
Y0119201D01*
X0006563Y0118327D01*
X0006563Y0117327D01*
Y0109201D01*
X0006563Y0108327D01*
X0006563Y0107327D01*
Y0099201D01*
X0006563Y0098327D01*
X0006563Y0097327D01*
Y0089201D01*
X0006563Y0088327D01*
X0006563Y0087327D01*
Y0079201D01*
X0006563Y0078327D01*
X0006563D01*
Y0078201D01*
X0006563D01*
Y0069201D01*
X0006563Y0068327D01*
X0006563Y0067327D01*
Y0059201D01*
X0006563Y0058327D01*
X0006563Y0057327D01*
Y0049201D01*
X0006563Y0048327D01*
X0006563Y0047327D01*
Y0039201D01*
X0006563Y0038327D01*
X0006563Y0037327D01*
Y0028327D01*
X0016437D01*
Y0037327D01*
X0016437Y0038201D01*
X0016437Y0039201D01*
Y0041225D01*
X0018264D01*
X0019045Y004138D01*
X0019706Y0041822D01*
X0023442Y0045558D01*
X0023884Y004622D01*
X0024039Y0047D01*
Y00755D01*
X0023884Y007628D01*
X0023442Y0076942D01*
X0018615Y0081769D01*
X0017953Y0082211D01*
X0017173Y0082366D01*
X0016437D01*
Y0087327D01*
X0016437Y0088201D01*
X0016437Y0089201D01*
Y0097327D01*
X0016437Y0098201D01*
X0016437Y0099201D01*
Y0107327D01*
X0016437Y0108201D01*
X0016437Y0109201D01*
Y0117327D01*
X0016437Y0118201D01*
X0016437Y0119201D01*
Y0128201D01*
D02*
G37*
G36*
X0292228Y0018028D02*
X0290772D01*
X0289366Y0017651D01*
X0288106Y0016923D01*
X0287077Y0015894D01*
X0286349Y0014634D01*
X0285972Y0013228D01*
Y0011772D01*
X0286349Y0010366D01*
X0287077Y0009106D01*
X0288106Y0008077D01*
X0289366Y0007349D01*
X0290772Y0006972D01*
X0292228D01*
X0293634Y0007349D01*
X0294894Y0008077D01*
X0295923Y0009106D01*
X0296651Y0010366D01*
X0297028Y0011772D01*
Y0013228D01*
X0296651Y0014634D01*
X0295923Y0015894D01*
X0294894Y0016923D01*
X0293634Y0017651D01*
X0292228Y0018028D01*
D02*
G37*
G36*
X0277028D02*
X0265972D01*
Y0006972D01*
X0277028D01*
Y0018028D01*
D02*
G37*
G36*
X0165997Y0060676D02*
X0165003D01*
X0164043Y0060418D01*
X0163182Y0059921D01*
X0162479Y0059218D01*
X0161982Y0058357D01*
X0161724Y0057397D01*
Y0056403D01*
X0161982Y0055443D01*
X0162479Y0054582D01*
X0163182Y0053879D01*
X0164043Y0053382D01*
X0165003Y0053124D01*
X0165997D01*
X0166308Y0053208D01*
X0174658Y0044858D01*
X017532Y0044416D01*
X01761Y0044261D01*
X0222977D01*
X0223549Y0043269D01*
X0224469Y0042349D01*
X0225594Y0041699D01*
X022685Y0041363D01*
X022815D01*
X0229257Y004166D01*
X0245461Y0025455D01*
Y0017676D01*
X0245366Y0017651D01*
X0244106Y0016923D01*
X0243077Y0015894D01*
X0242349Y0014634D01*
X0241972Y0013228D01*
Y0011772D01*
X0242349Y0010366D01*
X0243077Y0009106D01*
X0244106Y0008077D01*
X0245366Y0007349D01*
X0246772Y0006972D01*
X0248228D01*
X0249634Y0007349D01*
X0250894Y0008077D01*
X0251923Y0009106D01*
X0252651Y0010366D01*
X0253028Y0011772D01*
Y0013228D01*
X0252651Y0014634D01*
X0251923Y0015894D01*
X0250894Y0016923D01*
X0249634Y0017651D01*
X0249539Y0017676D01*
Y00263D01*
X0249384Y002708D01*
X0248942Y0027742D01*
X023214Y0044543D01*
X0232437Y004565D01*
Y004695D01*
X0232101Y0048206D01*
X0231451Y0049331D01*
X0230531Y0050251D01*
X0229406Y0050901D01*
X022815Y0051237D01*
X022685D01*
X0225594Y0050901D01*
X0224469Y0050251D01*
X0223549Y0049331D01*
X0222977Y0048339D01*
X0176945D01*
X0169192Y0056092D01*
X0169276Y0056403D01*
Y0057397D01*
X0169018Y0058357D01*
X0168521Y0059218D01*
X0167818Y0059921D01*
X0166957Y0060418D01*
X0165997Y0060676D01*
D02*
G37*
G36*
X0233028Y0018028D02*
X0221972D01*
Y0006972D01*
X0233028D01*
Y0018028D01*
D02*
G37*
G36*
X0327853Y0025343D02*
X0326147D01*
X0324461Y0025076D01*
X0322838Y0024548D01*
X0321317Y0023773D01*
X0319937Y002277D01*
X031873Y0021563D01*
X0317727Y0020183D01*
X0316952Y0018662D01*
X0316424Y0017039D01*
X0316158Y0015353D01*
Y0013647D01*
X0316424Y0011961D01*
X0316952Y0010338D01*
X0317727Y0008817D01*
X031873Y0007437D01*
X0319937Y000623D01*
X0321317Y0005227D01*
X0322838Y0004452D01*
X0324461Y0003924D01*
X0326147Y0003658D01*
X0327853D01*
X0329539Y0003924D01*
X0331162Y0004452D01*
X0332683Y0005227D01*
X0334063Y000623D01*
X033527Y0007437D01*
X0336273Y0008817D01*
X0337048Y0010338D01*
X0337576Y0011961D01*
X0337842Y0013647D01*
Y0015353D01*
X0337576Y0017039D01*
X0337048Y0018662D01*
X0336273Y0020183D01*
X033527Y0021563D01*
X0334063Y002277D01*
X0332683Y0023773D01*
X0331162Y0024548D01*
X0329539Y0025076D01*
X0327853Y0025343D01*
D02*
G37*
G36*
X0015853D02*
X0014147D01*
X0012461Y0025076D01*
X0010838Y0024548D01*
X0009317Y0023773D01*
X0007937Y002277D01*
X000673Y0021563D01*
X0005727Y0020183D01*
X0004952Y0018662D01*
X0004425Y0017039D01*
X0004157Y0015353D01*
Y0013647D01*
X0004425Y0011961D01*
X0004952Y0010338D01*
X0005727Y0008817D01*
X000673Y0007437D01*
X0007937Y000623D01*
X0009317Y0005227D01*
X0010838Y0004452D01*
X0012461Y0003924D01*
X0014147Y0003658D01*
X0015853D01*
X0017539Y0003924D01*
X0019162Y0004452D01*
X0020683Y0005227D01*
X0022063Y000623D01*
X002327Y0007437D01*
X0024273Y0008817D01*
X0025048Y0010338D01*
X0025576Y0011961D01*
X0025842Y0013647D01*
Y0015353D01*
X0025576Y0017039D01*
X0025048Y0018662D01*
X0024273Y0020183D01*
X002327Y0021563D01*
X0022063Y002277D01*
X0020683Y0023773D01*
X0019162Y0024548D01*
X0017539Y0025076D01*
X0015853Y0025343D01*
D02*
G37*
%LPD*%
G36*
X0133Y0331D02*
X0166D01*
Y03015D01*
X01225D01*
Y0345D01*
X0133D01*
Y0331D01*
D02*
G37*
G36*
X01125Y03275D02*
X0005D01*
Y035D01*
X01125D01*
Y03275D01*
D02*
G37*
G36*
X0175Y02805D02*
X01125D01*
Y0255D01*
X01425D01*
Y0245D01*
X01025D01*
Y0286D01*
X01225D01*
Y02975D01*
X0175D01*
Y02805D01*
D02*
G37*
G36*
X0311Y0263461D02*
X0322984D01*
X0327461Y0258984D01*
Y0256964D01*
X0327165Y0256087D01*
X0326461Y0256086D01*
X0320835D01*
Y025496D01*
X0317789D01*
X0310137Y0262613D01*
X0310629Y0263534D01*
X0311Y0263461D01*
D02*
G37*
G36*
X0257577Y0244961D02*
X0251562Y0238946D01*
X0248883D01*
Y0240191D01*
X0239717D01*
Y0236225D01*
X0238267Y0234775D01*
X0237831Y0235067D01*
X0237264Y023518D01*
X023412D01*
X0233738Y0236104D01*
X0243595Y0245961D01*
X0257163D01*
X0257577Y0244961D01*
D02*
G37*
G36*
X00955Y02635D02*
Y0242D01*
X008Y02425D01*
Y02635D01*
X0005D01*
Y028D01*
X00955D01*
Y02635D01*
D02*
G37*
G36*
X0019961Y0074655D02*
Y0047845D01*
X0017437Y0045321D01*
X0016437Y0045346D01*
X0016437Y0048201D01*
X0016437Y0049201D01*
Y0057327D01*
X0016437Y0058201D01*
X0016437Y0059201D01*
Y0067327D01*
X0016437Y0068201D01*
X0016437Y0069201D01*
Y0076873D01*
X0017361Y0077255D01*
X0019961Y0074655D01*
D02*
G37*
D24*
X0308Y022524D02*
D03*
Y021776D02*
D03*
X03165Y022524D02*
D03*
Y021776D02*
D03*
X0325Y021776D02*
D03*
Y022524D02*
D03*
X02525Y025476D02*
D03*
Y026224D02*
D03*
X024375Y025476D02*
D03*
Y026224D02*
D03*
X0327Y028224D02*
D03*
Y027476D02*
D03*
X0319Y027476D02*
D03*
Y028224D02*
D03*
X0311Y027476D02*
D03*
Y028224D02*
D03*
X0317Y015926D02*
D03*
Y016674D02*
D03*
X0309Y015926D02*
D03*
Y016674D02*
D03*
X02535Y019726D02*
D03*
Y020474D02*
D03*
X02445Y019726D02*
D03*
Y020474D02*
D03*
X02545Y013926D02*
D03*
Y014674D02*
D03*
X024475Y013926D02*
D03*
Y014674D02*
D03*
X0235Y014674D02*
D03*
Y013926D02*
D03*
X0325Y016674D02*
D03*
Y015926D02*
D03*
X0235Y0197381D02*
D03*
Y0204861D02*
D03*
Y025476D02*
D03*
Y026224D02*
D03*
D25*
X03275Y029224D02*
D03*
Y029976D02*
D03*
X0314695Y010076D02*
D03*
Y009324D02*
D03*
X0324D02*
D03*
Y010076D02*
D03*
D26*
X0281465Y01225D02*
D03*
X0274535D02*
D03*
D27*
X02905Y012126D02*
D03*
Y011374D02*
D03*
X0235Y023234D02*
D03*
Y0224821D02*
D03*
D28*
X02005Y0067D02*
D03*
Y0054D02*
D03*
D29*
X01725Y03065D02*
D03*
X01595D02*
D03*
X0222Y01135D02*
D03*
X0209D02*
D03*
X0162Y0235D02*
D03*
X0149D02*
D03*
X01625Y0083307D02*
D03*
X01755D02*
D03*
Y0093307D02*
D03*
X01625D02*
D03*
D30*
X0274339Y0113D02*
D03*
X0281661D02*
D03*
D31*
X0014999Y0168443D02*
D03*
Y0161357D02*
D03*
D32*
Y0179239D02*
D03*
Y0186561D02*
D03*
D33*
X0235Y0323642D02*
D03*
Y03305D02*
D03*
D34*
X0314695Y0078869D02*
D03*
Y0086231D02*
D03*
X0324D02*
D03*
Y0078869D02*
D03*
D35*
X02265Y0224998D02*
D03*
Y0232478D02*
D03*
X0235Y01665D02*
D03*
Y017398D02*
D03*
D36*
X02443Y0236907D02*
D03*
Y0225293D02*
D03*
D37*
X0262Y03405D02*
D03*
Y03305D02*
D03*
Y03205D02*
D03*
X0302551D02*
D03*
Y03305D02*
D03*
Y03405D02*
D03*
D79*
X0319Y028224D02*
X0327D01*
X0327Y028224D01*
X0319Y028224D02*
X0319Y028224D01*
X0243001Y0236907D02*
X02443D01*
X0252407D01*
X0238717Y023234D02*
X0241717Y0235341D01*
Y0235624D02*
X0243001Y0236907D01*
X0235Y023234D02*
X0238717D01*
X0241717Y0235341D02*
Y0235624D01*
X0227228Y0232478D02*
X024275Y0248D01*
X0311Y028224D02*
X0319D01*
X029791Y0282146D02*
X0310905D01*
X0297815Y0282051D02*
X029791Y0282146D01*
X0310905D02*
X0311Y028224D01*
X0297815Y0282051D02*
X03055Y0274366D01*
X02875Y03055D02*
X03145D01*
X032024Y029976D02*
X03275D01*
X03145Y03055D02*
X032024Y029976D01*
X0266831Y0292051D02*
X0274051D01*
X02875Y03055D01*
X029791Y0292145D02*
X0327405D01*
X03275Y029224D01*
X0297815Y0292051D02*
X029791Y0292145D01*
X0298776Y0224861D02*
X0333861D01*
X0297276Y01665D02*
X0334D01*
X0323828Y0229899D02*
X03295Y0235571D01*
Y0259828D01*
X0323828Y02655D02*
X03295Y0259828D01*
X0311Y02655D02*
X0323828D01*
X0303813Y0229899D02*
X0323828D01*
X0297276Y0224861D02*
X0298776D01*
X0303813Y0229899D01*
X03055Y0271D02*
X0311Y02655D01*
X03055Y0271D02*
Y0274366D01*
X00115Y0083264D02*
X0014437Y0080327D01*
X0017173D01*
X0022Y0047D02*
Y00755D01*
X0017173Y0080327D02*
X0022Y00755D01*
X00205Y0084944D02*
Y01505D01*
Y0084944D02*
X004218Y0063264D01*
X0018264Y0043264D02*
X0022Y0047D01*
X00115Y0043264D02*
X0018264D01*
X0199Y0313D02*
X02015Y03155D01*
Y03185D01*
X0186Y0313D02*
X0199D01*
X01725Y03065D02*
X01795D01*
X0186Y0313D01*
X02015Y03185D02*
Y0343D01*
Y03185D02*
X02135Y03305D01*
X0014999Y0156001D02*
Y0161357D01*
Y0156001D02*
X00205Y01505D01*
X02135Y03305D02*
X0235D01*
X0136046Y0237954D02*
X0139Y0235D01*
X0149D01*
X0136046Y0237954D02*
Y025D01*
X0251807Y0262145D02*
X0266736D01*
X0223Y02695D02*
X02495D01*
X02525Y02665D01*
Y026224D02*
Y02665D01*
X024375Y026224D02*
X0251713D01*
X0251807Y0262145D01*
X01885Y0235D02*
X0223Y02695D01*
X0162Y0235D02*
X01885D01*
X02255Y01645D02*
X0235Y0155D01*
Y014674D02*
Y0155D01*
X02255Y01645D02*
Y0196149D01*
X0234213Y0204861D01*
X0235D01*
X024475Y014674D02*
X024475Y014674D01*
X0235Y014674D02*
X024475D01*
X0235Y014674D02*
X0235Y014674D01*
X024475Y014674D02*
X02545D01*
X025462Y014662D01*
X0267156D02*
X0267276Y01465D01*
X025462Y014662D02*
X0267156D01*
X024375Y026224D02*
X024375Y026224D01*
X0235Y026224D02*
X024375D01*
X0235Y026224D02*
X0235Y026224D01*
X0266736Y0262145D02*
X0266831Y0262051D01*
X0235Y0204861D02*
X0235061Y0204801D01*
X0244439D02*
X02445Y020474D01*
X0235061Y0204801D02*
X0244439D01*
X02445Y020474D02*
X02535D01*
X0253561Y0204801D01*
X0267215D02*
X0267276Y0204861D01*
X0253561Y0204801D02*
X0267215D01*
X01885Y0067D02*
X02005D01*
X0185504Y0064004D02*
X01885Y0067D01*
X0185504Y0056904D02*
Y0064004D01*
X01855Y00569D02*
X0185504Y0056904D01*
X0222Y0093307D02*
Y01135D01*
X0316945Y0252921D02*
X0324D01*
X0297815Y0272051D02*
X0316945Y0252921D01*
X02875Y0216033D02*
Y02405D01*
Y0216033D02*
X0288672Y0214861D01*
X0297276D01*
X0284Y0244D02*
X02875Y02405D01*
X0296619Y0215518D02*
X0304637Y02075D01*
X0318D02*
X0324Y02015D01*
X0304637Y02075D02*
X0318D01*
X0297276Y01565D02*
X03035D01*
X0324Y0127456D02*
Y0136D01*
X03035Y01565D02*
X0324Y0136D01*
X010208Y0073307D02*
X0143307D01*
X0014999Y0168443D02*
Y0179239D01*
X004218Y0063264D02*
X004218D01*
X01295Y0153307D02*
Y0163307D01*
Y0143307D02*
Y0153307D01*
X0319Y0068D02*
X0324Y0073D01*
X02835Y0068D02*
X0319D01*
X0324Y0073D02*
Y0078869D01*
X0208193Y0143307D02*
X02835Y0068D01*
X01295Y0143307D02*
X0208193D01*
X0281661Y0113D02*
X0282031Y011337D01*
X0274535Y01225D02*
Y012311D01*
X029013Y011337D02*
X02905Y011374D01*
X0274437Y0113098D02*
Y0122402D01*
X0277181Y0125756D02*
Y0130061D01*
X0274535Y0132707D02*
Y016074D01*
X0282031Y011337D02*
X029013D01*
X0274535Y0132707D02*
X0277181Y0130061D01*
X0274535Y012311D02*
X0277181Y0125756D01*
X0324Y0086231D02*
Y009324D01*
X0314695Y0086231D02*
Y009324D01*
Y010076D02*
X0324D01*
Y0117614D01*
X0274437Y0122402D02*
X0274535Y01225D01*
X0274339Y0113D02*
X0274437Y0113098D01*
X0268776Y01665D02*
X0274535Y016074D01*
X0267276Y01665D02*
X0268776D01*
X0317804Y012126D02*
X0324Y0127456D01*
X02905Y012126D02*
X0317804D01*
X0319579Y0189D02*
X0324Y0184579D01*
X024198Y017398D02*
X0257Y0189D01*
X0319579D01*
X0235Y017398D02*
X024198D01*
X0235Y01665D02*
X0267276D01*
X02595Y0244D02*
X0284D01*
X0252407Y0236907D02*
X02595Y0244D01*
X0324Y0194421D02*
Y02015D01*
X0319079Y0248D02*
X0324Y0243079D01*
X024275Y0248D02*
X0319079D01*
X02265Y0232478D02*
X0227228D01*
X0226568Y022493D02*
X0267207D01*
X0267276Y0224861D01*
X02265Y0224998D02*
X0226568Y022493D01*
X02565Y02855D02*
Y02965D01*
X0279Y0319D02*
Y03405D01*
X02565Y02965D02*
X0279Y0319D01*
X0262Y03405D02*
X0279D01*
X0302551D01*
X02565Y02855D02*
X0259949Y0282051D01*
X0266831D01*
X0254949Y0272051D02*
X0266831D01*
X02485Y02785D02*
Y0316D01*
Y02785D02*
X0254949Y0272051D01*
X0253Y03205D02*
X0262D01*
X02485Y0316D02*
X0253Y03205D01*
X0235Y03305D02*
X0262D01*
X0282705Y012126D02*
X02905D01*
X0281465Y01225D02*
X0282705Y012126D01*
X02475Y00125D02*
Y00263D01*
X02275Y00463D02*
X02475Y00263D01*
X01761Y00463D02*
X02275D01*
X01655Y00569D02*
X01761Y00463D01*
X02119Y0077D02*
X02275Y00614D01*
X02119Y0077D02*
Y0093307D01*
X01755Y00569D02*
Y0083307D01*
Y0093307D02*
X02019D01*
X010208Y0083307D02*
X01625D01*
X010208Y0093307D02*
X01625D01*
D80*
X0267276Y0234861D02*
D03*
Y01765D02*
D03*
D81*
Y0224861D02*
D03*
Y0214861D02*
D03*
Y0204861D02*
D03*
X0297276Y0234861D02*
D03*
Y0224861D02*
D03*
Y0214861D02*
D03*
Y0204861D02*
D03*
X0267276Y01665D02*
D03*
Y01565D02*
D03*
Y01465D02*
D03*
X0297276Y01765D02*
D03*
Y01665D02*
D03*
Y01565D02*
D03*
Y01465D02*
D03*
D82*
X0324Y0194421D02*
D03*
Y0252921D02*
D03*
Y0127456D02*
D03*
D83*
Y0184579D02*
D03*
Y0243079D02*
D03*
Y0117614D02*
D03*
D84*
X0085039Y02722D02*
D03*
Y02922D02*
D03*
X0084Y03168D02*
D03*
Y03368D02*
D03*
X01275Y03168D02*
D03*
X01075D02*
D03*
X01275Y02922D02*
D03*
X01075D02*
D03*
D85*
X00125Y02715D02*
D03*
Y03155D02*
D03*
X02475Y00125D02*
D03*
X02915D02*
D03*
D86*
X00125Y02915D02*
D03*
Y03355D02*
D03*
D87*
X00115Y0123264D02*
D03*
Y0113264D02*
D03*
Y0103264D02*
D03*
Y0093264D02*
D03*
Y0083264D02*
D03*
Y0073264D02*
D03*
Y0063264D02*
D03*
Y0053264D02*
D03*
Y0043264D02*
D03*
Y0033264D02*
D03*
X0268681Y00463D02*
D03*
Y00614D02*
D03*
X01295Y0103307D02*
D03*
Y0113307D02*
D03*
Y0123307D02*
D03*
Y0133307D02*
D03*
Y0143307D02*
D03*
Y0153307D02*
D03*
Y0163307D02*
D03*
Y0173307D02*
D03*
Y0183307D02*
D03*
Y0193307D02*
D03*
D88*
X00092Y00089D02*
D03*
X0006857Y0014557D02*
D03*
X00092Y0020214D02*
D03*
X0014857Y0022557D02*
D03*
X0020514Y0020214D02*
D03*
X0022857Y0014557D02*
D03*
X0020514Y00089D02*
D03*
X0014857Y0006557D02*
D03*
X03212Y00089D02*
D03*
X0318857Y0014557D02*
D03*
X03212Y0020214D02*
D03*
X0326857Y0022557D02*
D03*
X0332514Y0020214D02*
D03*
X0334857Y0014557D02*
D03*
X0332514Y00089D02*
D03*
X0326857Y0006557D02*
D03*
X0023Y0364817D02*
D03*
X0020657Y0370474D02*
D03*
X0015Y0372817D02*
D03*
X0009343Y0359161D02*
D03*
X0007Y0364817D02*
D03*
X0009343Y0370474D02*
D03*
X0020657Y0359161D02*
D03*
X0015Y0356817D02*
D03*
X0326857Y0357057D02*
D03*
X0332514Y03594D02*
D03*
X0334857Y0365057D02*
D03*
X0332514Y0370714D02*
D03*
X0326857Y0373057D02*
D03*
X03212Y0370714D02*
D03*
X0318857Y0365057D02*
D03*
X03212Y03594D02*
D03*
D89*
X0327Y00145D02*
D03*
X0015D02*
D03*
X0327Y0365D02*
D03*
X0015D02*
D03*
D90*
X02275Y00125D02*
D03*
X02715D02*
D03*
D91*
X0266831Y0292051D02*
D03*
D92*
Y0282051D02*
D03*
Y0272051D02*
D03*
Y0262051D02*
D03*
X0297815D02*
D03*
Y0272051D02*
D03*
Y0282051D02*
D03*
Y0292051D02*
D03*
D93*
X006Y029D02*
D03*
Y0319D02*
D03*
X01595Y0341D02*
D03*
X0158096Y02872D02*
D03*
D94*
X006Y0275D02*
D03*
Y0334D02*
D03*
X01595Y0326D02*
D03*
X0158096Y02722D02*
D03*
D95*
X004218Y0053264D02*
D03*
Y0043264D02*
D03*
Y0023264D02*
D03*
Y0063264D02*
D03*
Y0033264D02*
D03*
Y0073264D02*
D03*
X010208Y0173307D02*
D03*
Y0213307D02*
D03*
Y0183307D02*
D03*
Y0193307D02*
D03*
Y0203307D02*
D03*
Y0163307D02*
D03*
Y0153307D02*
D03*
Y0133307D02*
D03*
Y0123307D02*
D03*
Y0113307D02*
D03*
Y0143307D02*
D03*
Y0103307D02*
D03*
Y0083307D02*
D03*
Y0023307D02*
D03*
Y0033307D02*
D03*
Y0043307D02*
D03*
Y0053307D02*
D03*
Y0093307D02*
D03*
Y0063307D02*
D03*
Y0073307D02*
D03*
X004218Y0173264D02*
D03*
Y0213364D02*
D03*
Y0183264D02*
D03*
Y0193264D02*
D03*
Y0203264D02*
D03*
Y0163264D02*
D03*
Y0113264D02*
D03*
Y0083264D02*
D03*
Y0093264D02*
D03*
Y0103264D02*
D03*
Y0123264D02*
D03*
Y0133264D02*
D03*
Y0143264D02*
D03*
Y0153264D02*
D03*
D96*
X01655Y00569D02*
D03*
X01755D02*
D03*
D97*
X01855D02*
D03*
D98*
X0202Y0093307D02*
D03*
X01075Y03368D02*
D03*
D99*
X0212Y0093307D02*
D03*
X0222D02*
D03*
X01275Y03368D02*
D03*
X01175D02*
D03*
D100*
X02275Y00463D02*
D03*
Y00614D02*
D03*
D101*
X0136046Y025D02*
D03*
X0120039D02*
D03*
D102*
X0171046D02*
D03*
X0085039D02*
D03*
D103*
X0127673Y02722D02*
D03*
D104*
X0117673D02*
D03*
X0107673D02*
D03*
D105*
X02015Y0343D02*
D03*
D106*
X0143307Y0073307D02*
D03*
X0334Y01665D02*
D03*
X0333861Y0224861D02*
D03*
M02*
