G04*
G04 #@! TF.GenerationSoftware,Altium Limited,Altium Designer,24.10.1 (45)*
G04*
G04 Layer_Color=32768*
%FSTAX25Y25*%
%MOIN*%
G70*
G04*
G04 #@! TF.SameCoordinates,1923906C-CB37-41EA-8CB1-2C45B085819D*
G04*
G04*
G04 #@! TF.FilePolarity,Positive*
G04*
G01*
G75*
%ADD16C,0.00394*%
D16*
X0306969Y0219288D02*
X0306594Y0219101D01*
X0306219Y0218726D01*
X0306032Y0218351D01*
Y0217601D01*
X0306219Y0217227D01*
X0306594Y0216852D01*
X0306969Y0216664D01*
X0307531Y0216477D01*
X0308469D01*
X0309031Y0216664D01*
X0309406Y0216852D01*
X0309781Y0217227D01*
X0309968Y0217601D01*
Y0218351D01*
X0309781Y0218726D01*
X0309406Y0219101D01*
X0309031Y0219288D01*
X0306969Y0220582D02*
X0306782D01*
X0306407Y0220769D01*
X0306219Y0220956D01*
X0306032Y0221331D01*
Y0222081D01*
X0306219Y0222456D01*
X0306407Y0222643D01*
X0306782Y0222831D01*
X0307156D01*
X0307531Y0222643D01*
X0308094Y0222269D01*
X0309968Y0220394D01*
Y0223018D01*
X0306032Y0226148D02*
Y0224274D01*
X0307719Y0224087D01*
X0307531Y0224274D01*
X0307344Y0224836D01*
Y0225399D01*
X0307531Y0225961D01*
X0307906Y0226336D01*
X0308469Y0226523D01*
X0308843D01*
X0309406Y0226336D01*
X0309781Y0225961D01*
X0309968Y0225399D01*
Y0224836D01*
X0309781Y0224274D01*
X0309593Y0224087D01*
X0309218Y0223899D01*
X0315469Y0219382D02*
X0315094Y0219195D01*
X0314719Y021882D01*
X0314532Y0218445D01*
Y0217695D01*
X0314719Y021732D01*
X0315094Y0216945D01*
X0315469Y0216758D01*
X0316031Y021657D01*
X0316969D01*
X0317531Y0216758D01*
X0317906Y0216945D01*
X0318281Y021732D01*
X0318468Y0217695D01*
Y0218445D01*
X0318281Y021882D01*
X0317906Y0219195D01*
X0317531Y0219382D01*
X0315469Y0220675D02*
X0315282D01*
X0314907Y0220863D01*
X0314719Y022105D01*
X0314532Y0221425D01*
Y0222175D01*
X0314719Y022255D01*
X0314907Y0222737D01*
X0315282Y0222924D01*
X0315656D01*
X0316031Y0222737D01*
X0316594Y0222362D01*
X0318468Y0220488D01*
Y0223112D01*
X0315094Y0226242D02*
X0314719Y0226055D01*
X0314532Y0225492D01*
Y0225117D01*
X0314719Y0224555D01*
X0315282Y022418D01*
X0316219Y0223993D01*
X0317156D01*
X0317906Y022418D01*
X0318281Y0224555D01*
X0318468Y0225117D01*
Y0225305D01*
X0318281Y0225867D01*
X0317906Y0226242D01*
X0317343Y022643D01*
X0317156D01*
X0316594Y0226242D01*
X0316219Y0225867D01*
X0316031Y0225305D01*
Y0225117D01*
X0316219Y0224555D01*
X0316594Y022418D01*
X0317156Y0223993D01*
X0323969Y0219691D02*
X0323594Y0219504D01*
X0323219Y0219129D01*
X0323032Y0218754D01*
Y0218004D01*
X0323219Y0217629D01*
X0323594Y0217255D01*
X0323969Y0217067D01*
X0324531Y021688D01*
X0325469D01*
X0326031Y0217067D01*
X0326406Y0217255D01*
X0326781Y0217629D01*
X0326968Y0218004D01*
Y0218754D01*
X0326781Y0219129D01*
X0326406Y0219504D01*
X0326031Y0219691D01*
X0323782Y0220797D02*
X0323594Y0221172D01*
X0323032Y0221734D01*
X0326968D01*
X0323594Y0225933D02*
X0323219Y0225745D01*
X0323032Y0225183D01*
Y0224808D01*
X0323219Y0224246D01*
X0323782Y0223871D01*
X0324719Y0223684D01*
X0325656D01*
X0326406Y0223871D01*
X0326781Y0224246D01*
X0326968Y0224808D01*
Y0224996D01*
X0326781Y0225558D01*
X0326406Y0225933D01*
X0325844Y022612D01*
X0325656D01*
X0325094Y0225933D01*
X0324719Y0225558D01*
X0324531Y0224996D01*
Y0224808D01*
X0324719Y0224246D01*
X0325094Y0223871D01*
X0325656Y0223684D01*
X0251469Y0256194D02*
X0251094Y0256007D01*
X0250719Y0255632D01*
X0250532Y0255257D01*
Y0254508D01*
X0250719Y0254133D01*
X0251094Y0253758D01*
X0251469Y025357D01*
X0252031Y0253383D01*
X0252969D01*
X0253531Y025357D01*
X0253906Y0253758D01*
X0254281Y0254133D01*
X0254468Y0254508D01*
Y0255257D01*
X0254281Y0255632D01*
X0253906Y0256007D01*
X0253531Y0256194D01*
X0251469Y0257488D02*
X0251282D01*
X0250907Y0257675D01*
X0250719Y0257863D01*
X0250532Y0258238D01*
Y0258987D01*
X0250719Y0259362D01*
X0250907Y025955D01*
X0251282Y0259737D01*
X0251657D01*
X0252031Y025955D01*
X0252594Y0259175D01*
X0254468Y02573D01*
Y0259925D01*
X0250532Y026268D02*
X0253156Y0260806D01*
Y0263617D01*
X0250532Y026268D02*
X0254468D01*
X0242719Y0256288D02*
X0242344Y0256101D01*
X0241969Y0255726D01*
X0241782Y0255351D01*
Y0254601D01*
X0241969Y0254226D01*
X0242344Y0253852D01*
X0242719Y0253664D01*
X0243281Y0253477D01*
X0244219D01*
X0244781Y0253664D01*
X0245156Y0253852D01*
X0245531Y0254226D01*
X0245718Y0254601D01*
Y0255351D01*
X0245531Y0255726D01*
X0245156Y0256101D01*
X0244781Y0256288D01*
X0242719Y0257582D02*
X0242532D01*
X0242157Y0257769D01*
X0241969Y0257956D01*
X0241782Y0258331D01*
Y0259081D01*
X0241969Y0259456D01*
X0242157Y0259643D01*
X0242532Y0259831D01*
X0242907D01*
X0243281Y0259643D01*
X0243844Y0259268D01*
X0245718Y0257394D01*
Y0260018D01*
X0241782Y0261274D02*
Y0263336D01*
X0243281Y0262211D01*
Y0262774D01*
X0243469Y0263148D01*
X0243656Y0263336D01*
X0244219Y0263523D01*
X0244594D01*
X0245156Y0263336D01*
X0245531Y0262961D01*
X0245718Y0262399D01*
Y0261836D01*
X0245531Y0261274D01*
X0245343Y0261087D01*
X0244968Y0260899D01*
X0325969Y0276597D02*
X0325594Y027641D01*
X0325219Y0276035D01*
X0325032Y027566D01*
Y0274911D01*
X0325219Y0274536D01*
X0325594Y0274161D01*
X0325969Y0273973D01*
X0326531Y0273786D01*
X0327469D01*
X0328031Y0273973D01*
X0328406Y0274161D01*
X0328781Y0274536D01*
X0328968Y0274911D01*
Y027566D01*
X0328781Y0276035D01*
X0328406Y027641D01*
X0328031Y0276597D01*
X0325782Y0277703D02*
X0325594Y0278078D01*
X0325032Y0278641D01*
X0328968D01*
X0325032Y0282839D02*
Y0280965D01*
X0326719Y0280777D01*
X0326531Y0280965D01*
X0326344Y0281527D01*
Y0282089D01*
X0326531Y0282652D01*
X0326906Y0283027D01*
X0327469Y0283214D01*
X0327843D01*
X0328406Y0283027D01*
X0328781Y0282652D01*
X0328968Y0282089D01*
Y0281527D01*
X0328781Y0280965D01*
X0328593Y0280777D01*
X0328218Y028059D01*
X0317969Y0277132D02*
X0317594Y0276944D01*
X0317219Y0276569D01*
X0317032Y0276195D01*
Y0275445D01*
X0317219Y027507D01*
X0317594Y0274695D01*
X0317969Y0274508D01*
X0318531Y027432D01*
X0319469D01*
X0320031Y0274508D01*
X0320406Y0274695D01*
X0320781Y027507D01*
X0320968Y0275445D01*
Y0276195D01*
X0320781Y0276569D01*
X0320406Y0276944D01*
X0320031Y0277132D01*
X0317969Y0278425D02*
X0317782D01*
X0317407Y0278612D01*
X0317219Y02788D01*
X0317032Y0279175D01*
Y0279925D01*
X0317219Y0280299D01*
X0317407Y0280487D01*
X0317782Y0280674D01*
X0318157D01*
X0318531Y0280487D01*
X0319094Y0280112D01*
X0320968Y0278238D01*
Y0280862D01*
X0317782Y0281743D02*
X0317594Y0282118D01*
X0317032Y028268D01*
X0320968D01*
X0309969Y0276288D02*
X0309594Y0276101D01*
X0309219Y0275726D01*
X0309032Y0275351D01*
Y0274601D01*
X0309219Y0274226D01*
X0309594Y0273852D01*
X0309969Y0273664D01*
X0310531Y0273477D01*
X0311469D01*
X0312031Y0273664D01*
X0312406Y0273852D01*
X0312781Y0274226D01*
X0312968Y0274601D01*
Y0275351D01*
X0312781Y0275726D01*
X0312406Y0276101D01*
X0312031Y0276288D01*
X0309969Y0277582D02*
X0309782D01*
X0309407Y0277769D01*
X0309219Y0277956D01*
X0309032Y0278331D01*
Y0279081D01*
X0309219Y0279456D01*
X0309407Y0279643D01*
X0309782Y0279831D01*
X0310156D01*
X0310531Y0279643D01*
X0311094Y0279269D01*
X0312968Y0277394D01*
Y0280018D01*
X0309969Y0281087D02*
X0309782D01*
X0309407Y0281274D01*
X0309219Y0281462D01*
X0309032Y0281836D01*
Y0282586D01*
X0309219Y0282961D01*
X0309407Y0283148D01*
X0309782Y0283336D01*
X0310156D01*
X0310531Y0283148D01*
X0311094Y0282774D01*
X0312968Y0280899D01*
Y0283523D01*
X0315969Y0160788D02*
X0315594Y0160601D01*
X0315219Y0160226D01*
X0315032Y0159851D01*
Y0159101D01*
X0315219Y0158727D01*
X0315594Y0158352D01*
X0315969Y0158164D01*
X0316531Y0157977D01*
X0317469D01*
X0318031Y0158164D01*
X0318406Y0158352D01*
X0318781Y0158727D01*
X0318968Y0159101D01*
Y0159851D01*
X0318781Y0160226D01*
X0318406Y0160601D01*
X0318031Y0160788D01*
X0315969Y0162082D02*
X0315782D01*
X0315407Y0162269D01*
X0315219Y0162456D01*
X0315032Y0162831D01*
Y0163581D01*
X0315219Y0163956D01*
X0315407Y0164143D01*
X0315782Y0164331D01*
X0316157D01*
X0316531Y0164143D01*
X0317094Y0163768D01*
X0318968Y0161894D01*
Y0164518D01*
X0315032Y0166336D02*
X0315219Y0165774D01*
X0315594Y0165587D01*
X0315969D01*
X0316344Y0165774D01*
X0316531Y0166149D01*
X0316719Y0166899D01*
X0316906Y0167461D01*
X0317281Y0167836D01*
X0317656Y0168023D01*
X0318218D01*
X0318593Y0167836D01*
X0318781Y0167648D01*
X0318968Y0167086D01*
Y0166336D01*
X0318781Y0165774D01*
X0318593Y0165587D01*
X0318218Y0165399D01*
X0317656D01*
X0317281Y0165587D01*
X0316906Y0165962D01*
X0316719Y0166524D01*
X0316531Y0167274D01*
X0316344Y0167648D01*
X0315969Y0167836D01*
X0315594D01*
X0315219Y0167648D01*
X0315032Y0167086D01*
Y0166336D01*
X0307969Y0160788D02*
X0307594Y0160601D01*
X0307219Y0160226D01*
X0307032Y0159851D01*
Y0159101D01*
X0307219Y0158727D01*
X0307594Y0158352D01*
X0307969Y0158164D01*
X0308531Y0157977D01*
X0309469D01*
X0310031Y0158164D01*
X0310406Y0158352D01*
X0310781Y0158727D01*
X0310968Y0159101D01*
Y0159851D01*
X0310781Y0160226D01*
X0310406Y0160601D01*
X0310031Y0160788D01*
X0307969Y0162082D02*
X0307782D01*
X0307407Y0162269D01*
X0307219Y0162456D01*
X0307032Y0162831D01*
Y0163581D01*
X0307219Y0163956D01*
X0307407Y0164143D01*
X0307782Y0164331D01*
X0308156D01*
X0308531Y0164143D01*
X0309094Y0163768D01*
X0310968Y0161894D01*
Y0164518D01*
X0307032Y0168023D02*
X0310968Y0166149D01*
X0307032Y0165399D02*
Y0168023D01*
X0252469Y0198788D02*
X0252094Y0198601D01*
X0251719Y0198226D01*
X0251532Y0197851D01*
Y0197101D01*
X0251719Y0196727D01*
X0252094Y0196352D01*
X0252469Y0196164D01*
X0253031Y0195977D01*
X0253969D01*
X0254531Y0196164D01*
X0254906Y0196352D01*
X0255281Y0196727D01*
X0255468Y0197101D01*
Y0197851D01*
X0255281Y0198226D01*
X0254906Y0198601D01*
X0254531Y0198788D01*
X0251532Y0200269D02*
Y0202331D01*
X0253031Y0201206D01*
Y0201768D01*
X0253219Y0202143D01*
X0253406Y0202331D01*
X0253969Y0202518D01*
X0254344D01*
X0254906Y0202331D01*
X0255281Y0201956D01*
X0255468Y0201394D01*
Y0200831D01*
X0255281Y0200269D01*
X0255093Y0200082D01*
X0254718Y0199894D01*
X0252469Y0203587D02*
X0252282D01*
X0251907Y0203774D01*
X0251719Y0203961D01*
X0251532Y0204336D01*
Y0205086D01*
X0251719Y0205461D01*
X0251907Y0205648D01*
X0252282Y0205836D01*
X0252657D01*
X0253031Y0205648D01*
X0253594Y0205274D01*
X0255468Y0203399D01*
Y0206023D01*
X0243469Y0199632D02*
X0243094Y0199444D01*
X0242719Y0199069D01*
X0242532Y0198695D01*
Y0197945D01*
X0242719Y019757D01*
X0243094Y0197195D01*
X0243469Y0197008D01*
X0244031Y019682D01*
X0244969D01*
X0245531Y0197008D01*
X0245906Y0197195D01*
X0246281Y019757D01*
X0246468Y0197945D01*
Y0198695D01*
X0246281Y0199069D01*
X0245906Y0199444D01*
X0245531Y0199632D01*
X0242532Y0201113D02*
Y0203174D01*
X0244031Y020205D01*
Y0202612D01*
X0244219Y0202987D01*
X0244406Y0203174D01*
X0244969Y0203362D01*
X0245343D01*
X0245906Y0203174D01*
X0246281Y0202799D01*
X0246468Y0202237D01*
Y0201675D01*
X0246281Y0201113D01*
X0246093Y0200925D01*
X0245718Y0200738D01*
X0243282Y0204243D02*
X0243094Y0204618D01*
X0242532Y020518D01*
X0246468D01*
X0253469Y0140788D02*
X0253094Y0140601D01*
X0252719Y0140226D01*
X0252532Y0139851D01*
Y0139101D01*
X0252719Y0138726D01*
X0253094Y0138352D01*
X0253469Y0138164D01*
X0254031Y0137977D01*
X0254969D01*
X0255531Y0138164D01*
X0255906Y0138352D01*
X0256281Y0138726D01*
X0256468Y0139101D01*
Y0139851D01*
X0256281Y0140226D01*
X0255906Y0140601D01*
X0255531Y0140788D01*
X0252532Y0142269D02*
Y0144331D01*
X0254031Y0143206D01*
Y0143769D01*
X0254219Y0144143D01*
X0254406Y0144331D01*
X0254969Y0144518D01*
X0255344D01*
X0255906Y0144331D01*
X0256281Y0143956D01*
X0256468Y0143394D01*
Y0142831D01*
X0256281Y0142269D01*
X0256093Y0142082D01*
X0255718Y0141894D01*
X0252532Y0146524D02*
X0252719Y0145961D01*
X0253282Y0145587D01*
X0254219Y0145399D01*
X0254781D01*
X0255718Y0145587D01*
X0256281Y0145961D01*
X0256468Y0146524D01*
Y0146899D01*
X0256281Y0147461D01*
X0255718Y0147836D01*
X0254781Y0148023D01*
X0254219D01*
X0253282Y0147836D01*
X0252719Y0147461D01*
X0252532Y0146899D01*
Y0146524D01*
X0243719Y0140882D02*
X0243344Y0140694D01*
X0242969Y014032D01*
X0242782Y0139945D01*
Y0139195D01*
X0242969Y013882D01*
X0243344Y0138445D01*
X0243719Y0138258D01*
X0244281Y013807D01*
X0245219D01*
X0245781Y0138258D01*
X0246156Y0138445D01*
X0246531Y013882D01*
X0246718Y0139195D01*
Y0139945D01*
X0246531Y014032D01*
X0246156Y0140694D01*
X0245781Y0140882D01*
X0243719Y0142175D02*
X0243532D01*
X0243157Y0142363D01*
X0242969Y014255D01*
X0242782Y0142925D01*
Y0143675D01*
X0242969Y014405D01*
X0243157Y0144237D01*
X0243532Y0144424D01*
X0243907D01*
X0244281Y0144237D01*
X0244844Y0143862D01*
X0246718Y0141988D01*
Y0144612D01*
X0244094Y014793D02*
X0244656Y0147742D01*
X0245031Y0147367D01*
X0245219Y0146805D01*
Y0146617D01*
X0245031Y0146055D01*
X0244656Y014568D01*
X0244094Y0145493D01*
X0243907D01*
X0243344Y014568D01*
X0242969Y0146055D01*
X0242782Y0146617D01*
Y0146805D01*
X0242969Y0147367D01*
X0243344Y0147742D01*
X0244094Y014793D01*
X0245031D01*
X0245968Y0147742D01*
X0246531Y0147367D01*
X0246718Y0146805D01*
Y014643D01*
X0246531Y0145868D01*
X0246156Y014568D01*
X0233969Y0141097D02*
X0233594Y014091D01*
X0233219Y0140535D01*
X0233032Y014016D01*
Y0139411D01*
X0233219Y0139036D01*
X0233594Y0138661D01*
X0233969Y0138473D01*
X0234531Y0138286D01*
X0235469D01*
X0236031Y0138473D01*
X0236406Y0138661D01*
X0236781Y0139036D01*
X0236968Y0139411D01*
Y014016D01*
X0236781Y0140535D01*
X0236406Y014091D01*
X0236031Y0141097D01*
X0233782Y0142203D02*
X0233594Y0142578D01*
X0233032Y0143141D01*
X0236968D01*
X0233032Y0146027D02*
X0233219Y0145465D01*
X0233594Y0145277D01*
X0233969D01*
X0234344Y0145465D01*
X0234531Y014584D01*
X0234719Y0146589D01*
X0234906Y0147152D01*
X0235281Y0147527D01*
X0235656Y0147714D01*
X0236218D01*
X0236593Y0147527D01*
X0236781Y0147339D01*
X0236968Y0146777D01*
Y0146027D01*
X0236781Y0145465D01*
X0236593Y0145277D01*
X0236218Y014509D01*
X0235656D01*
X0235281Y0145277D01*
X0234906Y0145652D01*
X0234719Y0146214D01*
X0234531Y0146964D01*
X0234344Y0147339D01*
X0233969Y0147527D01*
X0233594D01*
X0233219Y0147339D01*
X0233032Y0146777D01*
Y0146027D01*
X0323969Y0161098D02*
X0323594Y016091D01*
X0323219Y0160535D01*
X0323032Y016016D01*
Y0159411D01*
X0323219Y0159036D01*
X0323594Y0158661D01*
X0323969Y0158473D01*
X0324531Y0158286D01*
X0325469D01*
X0326031Y0158473D01*
X0326406Y0158661D01*
X0326781Y0159036D01*
X0326968Y0159411D01*
Y016016D01*
X0326781Y0160535D01*
X0326406Y016091D01*
X0326031Y0161098D01*
X0323782Y0162203D02*
X0323594Y0162578D01*
X0323032Y0163141D01*
X0326968D01*
X0323032Y0167714D02*
X0326968Y016584D01*
X0323032Y016509D02*
Y0167714D01*
X0233969Y0199312D02*
X0233594Y0199125D01*
X0233219Y019875D01*
X0233032Y0198375D01*
Y0197626D01*
X0233219Y0197251D01*
X0233594Y0196876D01*
X0233969Y0196688D01*
X0234531Y0196501D01*
X0235469D01*
X0236031Y0196688D01*
X0236406Y0196876D01*
X0236781Y0197251D01*
X0236968Y0197626D01*
Y0198375D01*
X0236781Y019875D01*
X0236406Y0199125D01*
X0236031Y0199312D01*
X0233782Y0200418D02*
X0233594Y0200793D01*
X0233032Y0201356D01*
X0236968D01*
X0234344Y0205742D02*
X0234906Y0205554D01*
X0235281Y0205179D01*
X0235469Y0204617D01*
Y0204429D01*
X0235281Y0203867D01*
X0234906Y0203492D01*
X0234344Y0203305D01*
X0234156D01*
X0233594Y0203492D01*
X0233219Y0203867D01*
X0233032Y0204429D01*
Y0204617D01*
X0233219Y0205179D01*
X0233594Y0205554D01*
X0234344Y0205742D01*
X0235281D01*
X0236218Y0205554D01*
X0236781Y0205179D01*
X0236968Y0204617D01*
Y0204242D01*
X0236781Y020368D01*
X0236406Y0203492D01*
X0233969Y0256288D02*
X0233594Y0256101D01*
X0233219Y0255726D01*
X0233032Y0255351D01*
Y0254601D01*
X0233219Y0254226D01*
X0233594Y0253852D01*
X0233969Y0253664D01*
X0234531Y0253477D01*
X0235469D01*
X0236031Y0253664D01*
X0236406Y0253852D01*
X0236781Y0254226D01*
X0236968Y0254601D01*
Y0255351D01*
X0236781Y0255726D01*
X0236406Y0256101D01*
X0236031Y0256288D01*
X0233969Y0257582D02*
X0233782D01*
X0233407Y0257769D01*
X0233219Y0257956D01*
X0233032Y0258331D01*
Y0259081D01*
X0233219Y0259456D01*
X0233407Y0259643D01*
X0233782Y0259831D01*
X0234156D01*
X0234531Y0259643D01*
X0235094Y0259268D01*
X0236968Y0257394D01*
Y0260018D01*
X0233032Y0262024D02*
X0233219Y0261461D01*
X0233782Y0261087D01*
X0234719Y0260899D01*
X0235281D01*
X0236218Y0261087D01*
X0236781Y0261461D01*
X0236968Y0262024D01*
Y0262399D01*
X0236781Y0262961D01*
X0236218Y0263336D01*
X0235281Y0263523D01*
X0234719D01*
X0233782Y0263336D01*
X0233219Y0262961D01*
X0233032Y0262399D01*
Y0262024D01*
M02*
