G04*
G04 #@! TF.GenerationSoftware,Altium Limited,Altium Designer,24.10.1 (45)*
G04*
G04 Layer_Color=2752767*
%FSTAX25Y25*%
%MOIN*%
G70*
G04*
G04 #@! TF.SameCoordinates,1923906C-CB37-41EA-8CB1-2C45B085819D*
G04*
G04*
G04 #@! TF.FilePolarity,Positive*
G04*
G01*
G75*
%ADD12C,0.00500*%
%ADD18C,0.00400*%
%ADD109C,0.00667*%
D12*
X0265276Y0232861D02*
Y0236861D01*
X0269276D01*
Y0232861D01*
X0265276D01*
X0266076Y0233661D02*
Y0236061D01*
X0268476D01*
Y0233661D01*
X0266076D01*
X0265276Y0222861D02*
Y0226861D01*
X0269276D01*
Y0222861D01*
X0265276D01*
X0266076Y0223661D02*
Y0226061D01*
X0268476D01*
Y0223661D01*
X0266076D01*
X0265276Y0212861D02*
Y0216861D01*
X0269276D01*
Y0212861D01*
X0265276D01*
X0266076Y0213661D02*
Y0216061D01*
X0268476D01*
Y0213661D01*
X0266076D01*
X0265276Y0202861D02*
Y0206861D01*
X0269276D01*
Y0202861D01*
X0265276D01*
X0266076Y0203661D02*
Y0206061D01*
X0268476D01*
Y0203661D01*
X0266076D01*
X0295276Y0232861D02*
Y0236861D01*
X0299276D01*
Y0232861D01*
X0295276D01*
X0296076Y0233661D02*
Y0236061D01*
X0298476D01*
Y0233661D01*
X0296076D01*
X0295276Y0222861D02*
Y0226861D01*
X0299276D01*
Y0222861D01*
X0295276D01*
X0296076Y0223661D02*
Y0226061D01*
X0298476D01*
Y0223661D01*
X0296076D01*
X0295276Y0212861D02*
Y0216861D01*
X0299276D01*
Y0212861D01*
X0295276D01*
X0296076Y0213661D02*
Y0216061D01*
X0298476D01*
Y0213661D01*
X0296076D01*
X0295276Y0202861D02*
Y0206861D01*
X0299276D01*
Y0202861D01*
X0295276D01*
X0296076Y0203661D02*
Y0206061D01*
X0298476D01*
Y0203661D01*
X0296076D01*
X0083039Y02702D02*
Y02742D01*
X0087039D01*
Y02702D01*
X0083039D01*
X0083839Y0271D02*
Y02734D01*
X0086239D01*
Y0271D01*
X0083839D01*
X0083039Y02902D02*
Y02942D01*
X0087039D01*
Y02902D01*
X0083039D01*
X0083839Y0291D02*
Y02934D01*
X0086239D01*
Y0291D01*
X0083839D01*
X00125Y02695D02*
X00135Y02705D01*
X00145D01*
X00135Y02715D01*
X00145Y02725D01*
X00135D01*
X00125Y02735D01*
X00115Y02725D01*
X00105D01*
X00115Y02715D01*
X00105Y02705D01*
X00115D01*
X00125Y02695D01*
Y02895D02*
X00135Y02905D01*
X00145D01*
X00135Y02915D01*
X00145Y02925D01*
X00135D01*
X00125Y02935D01*
X00115Y02925D01*
X00105D01*
X00115Y02915D01*
X00105Y02905D01*
X00115D01*
X00125Y02895D01*
Y03335D02*
X00135Y03345D01*
X00145D01*
X00135Y03355D01*
X00145Y03365D01*
X00135D01*
X00125Y03375D01*
X00115Y03365D01*
X00105D01*
X00115Y03355D01*
X00105Y03345D01*
X00115D01*
X00125Y03335D01*
Y03135D02*
X00135Y03145D01*
X00145D01*
X00135Y03155D01*
X00145Y03165D01*
X00135D01*
X00125Y03175D01*
X00115Y03165D01*
X00105D01*
X00115Y03155D01*
X00105Y03145D01*
X00115D01*
X00125Y03135D01*
X0265276Y01745D02*
Y01785D01*
X0269276D01*
Y01745D01*
X0265276D01*
X0266076Y01753D02*
Y01777D01*
X0268476D01*
Y01753D01*
X0266076D01*
X0265276Y01645D02*
Y01685D01*
X0269276D01*
Y01645D01*
X0265276D01*
X0266076Y01653D02*
Y01677D01*
X0268476D01*
Y01653D01*
X0266076D01*
X0265276Y01545D02*
Y01585D01*
X0269276D01*
Y01545D01*
X0265276D01*
X0266076Y01553D02*
Y01577D01*
X0268476D01*
Y01553D01*
X0266076D01*
X0265276Y01445D02*
Y01485D01*
X0269276D01*
Y01445D01*
X0265276D01*
X0266076Y01453D02*
Y01477D01*
X0268476D01*
Y01453D01*
X0266076D01*
X0295276Y01745D02*
Y01785D01*
X0299276D01*
Y01745D01*
X0295276D01*
X0296076Y01753D02*
Y01777D01*
X0298476D01*
Y01753D01*
X0296076D01*
X0295276Y01645D02*
Y01685D01*
X0299276D01*
Y01645D01*
X0295276D01*
X0296076Y01653D02*
Y01677D01*
X0298476D01*
Y01653D01*
X0296076D01*
X0295276Y01545D02*
Y01585D01*
X0299276D01*
Y01545D01*
X0295276D01*
X0296076Y01553D02*
Y01577D01*
X0298476D01*
Y01553D01*
X0296076D01*
X0295276Y01445D02*
Y01485D01*
X0299276D01*
Y01445D01*
X0295276D01*
X0296076Y01453D02*
Y01477D01*
X0298476D01*
Y01453D01*
X0296076D01*
X00082Y00079D02*
Y00069D01*
X00102D01*
Y00079D01*
X00112D01*
Y00099D01*
X00102D01*
Y00109D01*
X00082D01*
Y00099D01*
X00072D01*
Y00079D01*
X00082D01*
X00086Y00083D02*
Y00077D01*
X00098D01*
Y00083D01*
X00104D01*
Y00095D01*
X00098D01*
Y00101D01*
X00086D01*
Y00095D01*
X0008D01*
Y00083D01*
X00086D01*
X0005857Y0013557D02*
Y0012557D01*
X0007857D01*
Y0013557D01*
X0008857D01*
Y0015557D01*
X0007857D01*
Y0016557D01*
X0005857D01*
Y0015557D01*
X0004857D01*
Y0013557D01*
X0005857D01*
X0006257Y0013957D02*
Y0013357D01*
X0007457D01*
Y0013957D01*
X0008057D01*
Y0015157D01*
X0007457D01*
Y0015757D01*
X0006257D01*
Y0015157D01*
X0005657D01*
Y0013957D01*
X0006257D01*
X00082Y0019214D02*
Y0018214D01*
X00102D01*
Y0019214D01*
X00112D01*
Y0021214D01*
X00102D01*
Y0022214D01*
X00082D01*
Y0021214D01*
X00072D01*
Y0019214D01*
X00082D01*
X00086Y0019614D02*
Y0019014D01*
X00098D01*
Y0019614D01*
X00104D01*
Y0020814D01*
X00098D01*
Y0021414D01*
X00086D01*
Y0020814D01*
X0008D01*
Y0019614D01*
X00086D01*
X0013857Y0021557D02*
Y0020557D01*
X0015857D01*
Y0021557D01*
X0016857D01*
Y0023557D01*
X0015857D01*
Y0024557D01*
X0013857D01*
Y0023557D01*
X0012857D01*
Y0021557D01*
X0013857D01*
X0014257Y0021957D02*
Y0021357D01*
X0015457D01*
Y0021957D01*
X0016057D01*
Y0023157D01*
X0015457D01*
Y0023757D01*
X0014257D01*
Y0023157D01*
X0013657D01*
Y0021957D01*
X0014257D01*
X0019514Y0019214D02*
Y0018214D01*
X0021514D01*
Y0019214D01*
X0022514D01*
Y0021214D01*
X0021514D01*
Y0022214D01*
X0019514D01*
Y0021214D01*
X0018514D01*
Y0019214D01*
X0019514D01*
X0019914Y0019614D02*
Y0019014D01*
X0021114D01*
Y0019614D01*
X0021714D01*
Y0020814D01*
X0021114D01*
Y0021414D01*
X0019914D01*
Y0020814D01*
X0019314D01*
Y0019614D01*
X0019914D01*
X0021857Y0013557D02*
Y0012557D01*
X0023857D01*
Y0013557D01*
X0024857D01*
Y0015557D01*
X0023857D01*
Y0016557D01*
X0021857D01*
Y0015557D01*
X0020857D01*
Y0013557D01*
X0021857D01*
X0022257Y0013957D02*
Y0013357D01*
X0023457D01*
Y0013957D01*
X0024057D01*
Y0015157D01*
X0023457D01*
Y0015757D01*
X0022257D01*
Y0015157D01*
X0021657D01*
Y0013957D01*
X0022257D01*
X0019514Y00079D02*
Y00069D01*
X0021514D01*
Y00079D01*
X0022514D01*
Y00099D01*
X0021514D01*
Y00109D01*
X0019514D01*
Y00099D01*
X0018514D01*
Y00079D01*
X0019514D01*
X0019914Y00083D02*
Y00077D01*
X0021114D01*
Y00083D01*
X0021714D01*
Y00095D01*
X0021114D01*
Y00101D01*
X0019914D01*
Y00095D01*
X0019314D01*
Y00083D01*
X0019914D01*
X0013857Y0005557D02*
Y0004557D01*
X0015857D01*
Y0005557D01*
X0016857D01*
Y0007557D01*
X0015857D01*
Y0008557D01*
X0013857D01*
Y0007557D01*
X0012857D01*
Y0005557D01*
X0013857D01*
X0014257Y0005957D02*
Y0005357D01*
X0015457D01*
Y0005957D01*
X0016057D01*
Y0007157D01*
X0015457D01*
Y0007757D01*
X0014257D01*
Y0007157D01*
X0013657D01*
Y0005957D01*
X0014257D01*
X03202Y00079D02*
Y00069D01*
X03222D01*
Y00079D01*
X03232D01*
Y00099D01*
X03222D01*
Y00109D01*
X03202D01*
Y00099D01*
X03192D01*
Y00079D01*
X03202D01*
X03206Y00083D02*
Y00077D01*
X03218D01*
Y00083D01*
X03224D01*
Y00095D01*
X03218D01*
Y00101D01*
X03206D01*
Y00095D01*
X032D01*
Y00083D01*
X03206D01*
X0317857Y0013557D02*
Y0012557D01*
X0319857D01*
Y0013557D01*
X0320857D01*
Y0015557D01*
X0319857D01*
Y0016557D01*
X0317857D01*
Y0015557D01*
X0316857D01*
Y0013557D01*
X0317857D01*
X0318257Y0013957D02*
Y0013357D01*
X0319457D01*
Y0013957D01*
X0320057D01*
Y0015157D01*
X0319457D01*
Y0015757D01*
X0318257D01*
Y0015157D01*
X0317657D01*
Y0013957D01*
X0318257D01*
X03202Y0019214D02*
Y0018214D01*
X03222D01*
Y0019214D01*
X03232D01*
Y0021214D01*
X03222D01*
Y0022214D01*
X03202D01*
Y0021214D01*
X03192D01*
Y0019214D01*
X03202D01*
X03206Y0019614D02*
Y0019014D01*
X03218D01*
Y0019614D01*
X03224D01*
Y0020814D01*
X03218D01*
Y0021414D01*
X03206D01*
Y0020814D01*
X032D01*
Y0019614D01*
X03206D01*
X0325857Y0021557D02*
Y0020557D01*
X0327857D01*
Y0021557D01*
X0328857D01*
Y0023557D01*
X0327857D01*
Y0024557D01*
X0325857D01*
Y0023557D01*
X0324857D01*
Y0021557D01*
X0325857D01*
X0326257Y0021957D02*
Y0021357D01*
X0327457D01*
Y0021957D01*
X0328057D01*
Y0023157D01*
X0327457D01*
Y0023757D01*
X0326257D01*
Y0023157D01*
X0325657D01*
Y0021957D01*
X0326257D01*
X0331514Y0019214D02*
Y0018214D01*
X0333514D01*
Y0019214D01*
X0334514D01*
Y0021214D01*
X0333514D01*
Y0022214D01*
X0331514D01*
Y0021214D01*
X0330514D01*
Y0019214D01*
X0331514D01*
X0331914Y0019614D02*
Y0019014D01*
X0333114D01*
Y0019614D01*
X0333714D01*
Y0020814D01*
X0333114D01*
Y0021414D01*
X0331914D01*
Y0020814D01*
X0331314D01*
Y0019614D01*
X0331914D01*
X0333857Y0013557D02*
Y0012557D01*
X0335857D01*
Y0013557D01*
X0336857D01*
Y0015557D01*
X0335857D01*
Y0016557D01*
X0333857D01*
Y0015557D01*
X0332857D01*
Y0013557D01*
X0333857D01*
X0334257Y0013957D02*
Y0013357D01*
X0335457D01*
Y0013957D01*
X0336057D01*
Y0015157D01*
X0335457D01*
Y0015757D01*
X0334257D01*
Y0015157D01*
X0333657D01*
Y0013957D01*
X0334257D01*
X0331514Y00079D02*
Y00069D01*
X0333514D01*
Y00079D01*
X0334514D01*
Y00099D01*
X0333514D01*
Y00109D01*
X0331514D01*
Y00099D01*
X0330514D01*
Y00079D01*
X0331514D01*
X0331914Y00083D02*
Y00077D01*
X0333114D01*
Y00083D01*
X0333714D01*
Y00095D01*
X0333114D01*
Y00101D01*
X0331914D01*
Y00095D01*
X0331314D01*
Y00083D01*
X0331914D01*
X0325857Y0005557D02*
Y0004557D01*
X0327857D01*
Y0005557D01*
X0328857D01*
Y0007557D01*
X0327857D01*
Y0008557D01*
X0325857D01*
Y0007557D01*
X0324857D01*
Y0005557D01*
X0325857D01*
X0326257Y0005957D02*
Y0005357D01*
X0327457D01*
Y0005957D01*
X0328057D01*
Y0007157D01*
X0327457D01*
Y0007757D01*
X0326257D01*
Y0007157D01*
X0325657D01*
Y0005957D01*
X0326257D01*
X0325Y00125D02*
X0326Y00145D01*
X0325Y00165D01*
X0327Y00155D01*
X0329Y00165D01*
X0328Y00145D01*
X0329Y00125D01*
X0327Y00135D01*
X0325Y00125D01*
X03258Y00133D02*
X03264Y00145D01*
X03258Y00157D01*
X0327Y00151D01*
X03282Y00157D01*
X03276Y00145D01*
X03282Y00133D01*
X0327Y00139D01*
X03258Y00133D01*
X0013Y00125D02*
X0014Y00145D01*
X0013Y00165D01*
X0015Y00155D01*
X0017Y00165D01*
X0016Y00145D01*
X0017Y00125D01*
X0015Y00135D01*
X0013Y00125D01*
X00138Y00133D02*
X00144Y00145D01*
X00138Y00157D01*
X0015Y00151D01*
X00162Y00157D01*
X00156Y00145D01*
X00162Y00133D01*
X0015Y00139D01*
X00138Y00133D01*
X0325Y0363D02*
X0326Y0365D01*
X0325Y0367D01*
X0327Y0366D01*
X0329Y0367D01*
X0328Y0365D01*
X0329Y0363D01*
X0327Y0364D01*
X0325Y0363D01*
X03258Y03638D02*
X03264Y0365D01*
X03258Y03662D01*
X0327Y03656D01*
X03282Y03662D01*
X03276Y0365D01*
X03282Y03638D01*
X0327Y03644D01*
X03258Y03638D01*
X02275Y00105D02*
X02285Y00115D01*
X02295D01*
X02285Y00125D01*
X02295Y00135D01*
X02285D01*
X02275Y00145D01*
X02265Y00135D01*
X02255D01*
X02265Y00125D01*
X02255Y00115D01*
X02265D01*
X02275Y00105D01*
X02475D02*
X02485Y00115D01*
X02495D01*
X02485Y00125D01*
X02495Y00135D01*
X02485D01*
X02475Y00145D01*
X02465Y00135D01*
X02455D01*
X02465Y00125D01*
X02455Y00115D01*
X02465D01*
X02475Y00105D01*
X02915D02*
X02925Y00115D01*
X02935D01*
X02925Y00125D01*
X02935Y00135D01*
X02925D01*
X02915Y00145D01*
X02905Y00135D01*
X02895D01*
X02905Y00125D01*
X02895Y00115D01*
X02905D01*
X02915Y00105D01*
X02715D02*
X02725Y00115D01*
X02735D01*
X02725Y00125D01*
X02735Y00135D01*
X02725D01*
X02715Y00145D01*
X02705Y00135D01*
X02695D01*
X02705Y00125D01*
X02695Y00115D01*
X02705D01*
X02715Y00105D01*
X0266831Y0290051D02*
X0264831Y0294051D01*
X0268831D01*
X0266831Y0290051D01*
Y0290851D02*
X0265631Y0293251D01*
X0268031D01*
X0266831Y0290851D01*
Y0280051D02*
X0264831Y0284051D01*
X0268831D01*
X0266831Y0280051D01*
Y0280851D02*
X0265631Y0283251D01*
X0268031D01*
X0266831Y0280851D01*
Y0270051D02*
X0264831Y0274051D01*
X0268831D01*
X0266831Y0270051D01*
Y0270851D02*
X0265631Y0273251D01*
X0268031D01*
X0266831Y0270851D01*
Y0260051D02*
X0264831Y0264051D01*
X0268831D01*
X0266831Y0260051D01*
Y0260851D02*
X0265631Y0263251D01*
X0268031D01*
X0266831Y0260851D01*
X0297815Y0260051D02*
X0295815Y0264051D01*
X0299815D01*
X0297815Y0260051D01*
Y0260851D02*
X0296615Y0263251D01*
X0299015D01*
X0297815Y0260851D01*
Y0270051D02*
X0295815Y0274051D01*
X0299815D01*
X0297815Y0270051D01*
Y0270851D02*
X0296615Y0273251D01*
X0299015D01*
X0297815Y0270851D01*
Y0280051D02*
X0295815Y0284051D01*
X0299815D01*
X0297815Y0280051D01*
Y0280851D02*
X0296615Y0283251D01*
X0299015D01*
X0297815Y0280851D01*
Y0290051D02*
X0295815Y0294051D01*
X0299815D01*
X0297815Y0290051D01*
Y0290851D02*
X0296615Y0293251D01*
X0299015D01*
X0297815Y0290851D01*
X0058Y0288D02*
Y0292D01*
X0062D01*
Y0288D01*
X0058D01*
Y0273D02*
Y0277D01*
X0062D01*
Y0273D01*
X0058D01*
Y0317D02*
Y0321D01*
X0062D01*
Y0317D01*
X0058D01*
Y0332D02*
Y0336D01*
X0062D01*
Y0332D01*
X0058D01*
X0082Y03148D02*
Y03188D01*
X0086D01*
Y03148D01*
X0082D01*
X00828Y03156D02*
Y0318D01*
X00852D01*
Y03156D01*
X00828D01*
X0082Y03348D02*
Y03388D01*
X0086D01*
Y03348D01*
X0082D01*
X00828Y03356D02*
Y0338D01*
X00852D01*
Y03356D01*
X00828D01*
X01655Y00549D02*
X01635Y00589D01*
X01675D01*
X01655Y00549D01*
X01755D02*
X01735Y00589D01*
X01775D01*
X01755Y00549D01*
X01855D02*
X01835Y00589D01*
X01875D01*
X01855Y00549D01*
X02Y0091307D02*
X0201D01*
X0202Y0092307D01*
X0203Y0091307D01*
X0204D01*
Y0092307D01*
X0203Y0093307D01*
X0204Y0094307D01*
Y0095307D01*
X0203D01*
X0202Y0094307D01*
X0201Y0095307D01*
X02D01*
Y0094307D01*
X0201Y0093307D01*
X02Y0092307D01*
Y0091307D01*
X021D02*
X0211D01*
X0212Y0092307D01*
X0213Y0091307D01*
X0214D01*
Y0092307D01*
X0213Y0093307D01*
X0214Y0094307D01*
Y0095307D01*
X0213D01*
X0212Y0094307D01*
X0211Y0095307D01*
X021D01*
Y0094307D01*
X0211Y0093307D01*
X021Y0092307D01*
Y0091307D01*
X022D02*
X0221D01*
X0222Y0092307D01*
X0223Y0091307D01*
X0224D01*
Y0092307D01*
X0223Y0093307D01*
X0224Y0094307D01*
Y0095307D01*
X0223D01*
X0222Y0094307D01*
X0221Y0095307D01*
X022D01*
Y0094307D01*
X0221Y0093307D01*
X022Y0092307D01*
Y0091307D01*
X02275Y00443D02*
X02285Y00453D01*
X02295D01*
X02285Y00463D01*
X02295Y00473D01*
X02285D01*
X02275Y00483D01*
X02265Y00473D01*
X02255D01*
X02265Y00463D01*
X02255Y00453D01*
X02265D01*
X02275Y00443D01*
X0268681D02*
X0269681Y00453D01*
X0270681D01*
X0269681Y00463D01*
X0270681Y00473D01*
X0269681D01*
X0268681Y00483D01*
X0267681Y00473D01*
X0266681D01*
X0267681Y00463D01*
X0266681Y00453D01*
X0267681D01*
X0268681Y00443D01*
X0022Y0363817D02*
Y0362817D01*
X0024D01*
Y0363817D01*
X0025D01*
Y0365817D01*
X0024D01*
Y0366817D01*
X0022D01*
Y0365817D01*
X0021D01*
Y0363817D01*
X0022D01*
X00224Y0364217D02*
Y0363617D01*
X00236D01*
Y0364217D01*
X00242D01*
Y0365417D01*
X00236D01*
Y0366017D01*
X00224D01*
Y0365417D01*
X00218D01*
Y0364217D01*
X00224D01*
X0019657Y0369474D02*
Y0368474D01*
X0021657D01*
Y0369474D01*
X0022657D01*
Y0371474D01*
X0021657D01*
Y0372474D01*
X0019657D01*
Y0371474D01*
X0018657D01*
Y0369474D01*
X0019657D01*
X0020057Y0369874D02*
Y0369274D01*
X0021257D01*
Y0369874D01*
X0021857D01*
Y0371074D01*
X0021257D01*
Y0371674D01*
X0020057D01*
Y0371074D01*
X0019457D01*
Y0369874D01*
X0020057D01*
X0014Y0371817D02*
Y0370817D01*
X0016D01*
Y0371817D01*
X0017D01*
Y0373817D01*
X0016D01*
Y0374817D01*
X0014D01*
Y0373817D01*
X0013D01*
Y0371817D01*
X0014D01*
X00144Y0372217D02*
Y0371617D01*
X00156D01*
Y0372217D01*
X00162D01*
Y0373417D01*
X00156D01*
Y0374017D01*
X00144D01*
Y0373417D01*
X00138D01*
Y0372217D01*
X00144D01*
X0013Y0363D02*
X0014Y0365D01*
X0013Y0367D01*
X0015Y0366D01*
X0017Y0367D01*
X0016Y0365D01*
X0017Y0363D01*
X0015Y0364D01*
X0013Y0363D01*
X00138Y03638D02*
X00144Y0365D01*
X00138Y03662D01*
X0015Y03656D01*
X00162Y03662D01*
X00156Y0365D01*
X00162Y03638D01*
X0015Y03644D01*
X00138Y03638D01*
X0008343Y0358161D02*
Y0357161D01*
X0010343D01*
Y0358161D01*
X0011343D01*
Y0360161D01*
X0010343D01*
Y0361161D01*
X0008343D01*
Y0360161D01*
X0007343D01*
Y0358161D01*
X0008343D01*
X0008743Y0358561D02*
Y0357961D01*
X0009943D01*
Y0358561D01*
X0010543D01*
Y0359761D01*
X0009943D01*
Y0360361D01*
X0008743D01*
Y0359761D01*
X0008143D01*
Y0358561D01*
X0008743D01*
X0006Y0363817D02*
Y0362817D01*
X0008D01*
Y0363817D01*
X0009D01*
Y0365817D01*
X0008D01*
Y0366817D01*
X0006D01*
Y0365817D01*
X0005D01*
Y0363817D01*
X0006D01*
X00064Y0364217D02*
Y0363617D01*
X00076D01*
Y0364217D01*
X00082D01*
Y0365417D01*
X00076D01*
Y0366017D01*
X00064D01*
Y0365417D01*
X00058D01*
Y0364217D01*
X00064D01*
X0008343Y0369474D02*
Y0368474D01*
X0010343D01*
Y0369474D01*
X0011343D01*
Y0371474D01*
X0010343D01*
Y0372474D01*
X0008343D01*
Y0371474D01*
X0007343D01*
Y0369474D01*
X0008343D01*
X0008743Y0369874D02*
Y0369274D01*
X0009943D01*
Y0369874D01*
X0010543D01*
Y0371074D01*
X0009943D01*
Y0371674D01*
X0008743D01*
Y0371074D01*
X0008143D01*
Y0369874D01*
X0008743D01*
X0019657Y0358161D02*
Y0357161D01*
X0021657D01*
Y0358161D01*
X0022657D01*
Y0360161D01*
X0021657D01*
Y0361161D01*
X0019657D01*
Y0360161D01*
X0018657D01*
Y0358161D01*
X0019657D01*
X0020057Y0358561D02*
Y0357961D01*
X0021257D01*
Y0358561D01*
X0021857D01*
Y0359761D01*
X0021257D01*
Y0360361D01*
X0020057D01*
Y0359761D01*
X0019457D01*
Y0358561D01*
X0020057D01*
X0014Y0355817D02*
Y0354817D01*
X0016D01*
Y0355817D01*
X0017D01*
Y0357817D01*
X0016D01*
Y0358817D01*
X0014D01*
Y0357817D01*
X0013D01*
Y0355817D01*
X0014D01*
X00144Y0356217D02*
Y0355617D01*
X00156D01*
Y0356217D01*
X00162D01*
Y0357417D01*
X00156D01*
Y0358017D01*
X00144D01*
Y0357417D01*
X00138D01*
Y0356217D01*
X00144D01*
X0325857Y0356057D02*
Y0355057D01*
X0327857D01*
Y0356057D01*
X0328857D01*
Y0358057D01*
X0327857D01*
Y0359057D01*
X0325857D01*
Y0358057D01*
X0324857D01*
Y0356057D01*
X0325857D01*
X0326257Y0356457D02*
Y0355857D01*
X0327457D01*
Y0356457D01*
X0328057D01*
Y0357657D01*
X0327457D01*
Y0358257D01*
X0326257D01*
Y0357657D01*
X0325657D01*
Y0356457D01*
X0326257D01*
X0331514Y03584D02*
Y03574D01*
X0333514D01*
Y03584D01*
X0334514D01*
Y03604D01*
X0333514D01*
Y03614D01*
X0331514D01*
Y03604D01*
X0330514D01*
Y03584D01*
X0331514D01*
X0331914Y03588D02*
Y03582D01*
X0333114D01*
Y03588D01*
X0333714D01*
Y036D01*
X0333114D01*
Y03606D01*
X0331914D01*
Y036D01*
X0331314D01*
Y03588D01*
X0331914D01*
X0333857Y0364057D02*
Y0363057D01*
X0335857D01*
Y0364057D01*
X0336857D01*
Y0366057D01*
X0335857D01*
Y0367057D01*
X0333857D01*
Y0366057D01*
X0332857D01*
Y0364057D01*
X0333857D01*
X0334257Y0364457D02*
Y0363857D01*
X0335457D01*
Y0364457D01*
X0336057D01*
Y0365657D01*
X0335457D01*
Y0366257D01*
X0334257D01*
Y0365657D01*
X0333657D01*
Y0364457D01*
X0334257D01*
X0331514Y0369714D02*
Y0368714D01*
X0333514D01*
Y0369714D01*
X0334514D01*
Y0371714D01*
X0333514D01*
Y0372714D01*
X0331514D01*
Y0371714D01*
X0330514D01*
Y0369714D01*
X0331514D01*
X0331914Y0370114D02*
Y0369514D01*
X0333114D01*
Y0370114D01*
X0333714D01*
Y0371314D01*
X0333114D01*
Y0371914D01*
X0331914D01*
Y0371314D01*
X0331314D01*
Y0370114D01*
X0331914D01*
X0325857Y0372057D02*
Y0371057D01*
X0327857D01*
Y0372057D01*
X0328857D01*
Y0374057D01*
X0327857D01*
Y0375057D01*
X0325857D01*
Y0374057D01*
X0324857D01*
Y0372057D01*
X0325857D01*
X0326257Y0372457D02*
Y0371857D01*
X0327457D01*
Y0372457D01*
X0328057D01*
Y0373657D01*
X0327457D01*
Y0374257D01*
X0326257D01*
Y0373657D01*
X0325657D01*
Y0372457D01*
X0326257D01*
X03202Y0369714D02*
Y0368714D01*
X03222D01*
Y0369714D01*
X03232D01*
Y0371714D01*
X03222D01*
Y0372714D01*
X03202D01*
Y0371714D01*
X03192D01*
Y0369714D01*
X03202D01*
X03206Y0370114D02*
Y0369514D01*
X03218D01*
Y0370114D01*
X03224D01*
Y0371314D01*
X03218D01*
Y0371914D01*
X03206D01*
Y0371314D01*
X032D01*
Y0370114D01*
X03206D01*
X0317857Y0364057D02*
Y0363057D01*
X0319857D01*
Y0364057D01*
X0320857D01*
Y0366057D01*
X0319857D01*
Y0367057D01*
X0317857D01*
Y0366057D01*
X0316857D01*
Y0364057D01*
X0317857D01*
X0318257Y0364457D02*
Y0363857D01*
X0319457D01*
Y0364457D01*
X0320057D01*
Y0365657D01*
X0319457D01*
Y0366257D01*
X0318257D01*
Y0365657D01*
X0317657D01*
Y0364457D01*
X0318257D01*
X03202Y03584D02*
Y03574D01*
X03222D01*
Y03584D01*
X03232D01*
Y03604D01*
X03222D01*
Y03614D01*
X03202D01*
Y03604D01*
X03192D01*
Y03584D01*
X03202D01*
X03206Y03588D02*
Y03582D01*
X03218D01*
Y03588D01*
X03224D01*
Y036D01*
X03218D01*
Y03606D01*
X03206D01*
Y036D01*
X032D01*
Y03588D01*
X03206D01*
X01255Y03148D02*
Y03188D01*
X01295D01*
Y03148D01*
X01255D01*
X01263Y03156D02*
Y0318D01*
X01287D01*
Y03156D01*
X01263D01*
X01055Y03148D02*
Y03188D01*
X01095D01*
Y03148D01*
X01055D01*
X01063Y03156D02*
Y0318D01*
X01087D01*
Y03156D01*
X01063D01*
X0134046Y025D02*
X0136046Y0252D01*
X0138046Y025D01*
X0136046Y0248D01*
X0134046Y025D01*
X0169046D02*
X0171046Y0252D01*
X0173046Y025D01*
X0171046Y0248D01*
X0169046Y025D01*
X01575Y0324D02*
Y0328D01*
X01615D01*
Y0324D01*
X01575D01*
Y0339D02*
Y0343D01*
X01615D01*
Y0339D01*
X01575D01*
X0127673Y02702D02*
X0128673Y02712D01*
X0129673D01*
X0128673Y02722D01*
X0129673Y02732D01*
X0128673D01*
X0127673Y02742D01*
X0126673Y02732D01*
X0125673D01*
X0126673Y02722D01*
X0125673Y02712D01*
X0126673D01*
X0127673Y02702D01*
Y0271D02*
X0128273Y02716D01*
X0128873D01*
X0128273Y02722D01*
X0128873Y02728D01*
X0128273D01*
X0127673Y02734D01*
X0127073Y02728D01*
X0126473D01*
X0127073Y02722D01*
X0126473Y02716D01*
X0127073D01*
X0127673Y0271D01*
X0117673Y02702D02*
X0118673Y02712D01*
X0119673D01*
X0118673Y02722D01*
X0119673Y02732D01*
X0118673D01*
X0117673Y02742D01*
X0116673Y02732D01*
X0115673D01*
X0116673Y02722D01*
X0115673Y02712D01*
X0116673D01*
X0117673Y02702D01*
Y0271D02*
X0118273Y02716D01*
X0118873D01*
X0118273Y02722D01*
X0118873Y02728D01*
X0118273D01*
X0117673Y02734D01*
X0117073Y02728D01*
X0116473D01*
X0117073Y02722D01*
X0116473Y02716D01*
X0117073D01*
X0117673Y0271D01*
X0107673Y02702D02*
X0108673Y02712D01*
X0109673D01*
X0108673Y02722D01*
X0109673Y02732D01*
X0108673D01*
X0107673Y02742D01*
X0106673Y02732D01*
X0105673D01*
X0106673Y02722D01*
X0105673Y02712D01*
X0106673D01*
X0107673Y02702D01*
Y0271D02*
X0108273Y02716D01*
X0108873D01*
X0108273Y02722D01*
X0108873Y02728D01*
X0108273D01*
X0107673Y02734D01*
X0107073Y02728D01*
X0106473D01*
X0107073Y02722D01*
X0106473Y02716D01*
X0107073D01*
X0107673Y0271D01*
X01255Y03348D02*
X01265D01*
X01275Y03358D01*
X01285Y03348D01*
X01295D01*
Y03358D01*
X01285Y03368D01*
X01295Y03378D01*
Y03388D01*
X01285D01*
X01275Y03378D01*
X01265Y03388D01*
X01255D01*
Y03378D01*
X01265Y03368D01*
X01255Y03358D01*
Y03348D01*
X01155D02*
X01165D01*
X01175Y03358D01*
X01185Y03348D01*
X01195D01*
Y03358D01*
X01185Y03368D01*
X01195Y03378D01*
Y03388D01*
X01185D01*
X01175Y03378D01*
X01165Y03388D01*
X01155D01*
Y03378D01*
X01165Y03368D01*
X01155Y03358D01*
Y03348D01*
X01055D02*
X01065D01*
X01075Y03358D01*
X01085Y03348D01*
X01095D01*
Y03358D01*
X01085Y03368D01*
X01095Y03378D01*
Y03388D01*
X01085D01*
X01075Y03378D01*
X01065Y03388D01*
X01055D01*
Y03378D01*
X01065Y03368D01*
X01055Y03358D01*
Y03348D01*
X0118039Y025D02*
X0120039Y0252D01*
X0122039Y025D01*
X0120039Y0248D01*
X0118039Y025D01*
X0083039D02*
X0085039Y0252D01*
X0087039Y025D01*
X0085039Y0248D01*
X0083039Y025D01*
X02275Y00594D02*
X02285Y00604D01*
X02295D01*
X02285Y00614D01*
X02295Y00624D01*
X02285D01*
X02275Y00634D01*
X02265Y00624D01*
X02255D01*
X02265Y00614D01*
X02255Y00604D01*
X02265D01*
X02275Y00594D01*
X0268681D02*
X0269681Y00604D01*
X0270681D01*
X0269681Y00614D01*
X0270681Y00624D01*
X0269681D01*
X0268681Y00634D01*
X0267681Y00624D01*
X0266681D01*
X0267681Y00614D01*
X0266681Y00604D01*
X0267681D01*
X0268681Y00594D01*
X01255Y02902D02*
Y02942D01*
X01295D01*
Y02902D01*
X01255D01*
X01263Y0291D02*
Y02934D01*
X01287D01*
Y0291D01*
X01263D01*
X01055Y02902D02*
Y02942D01*
X01095D01*
Y02902D01*
X01055D01*
X01063Y0291D02*
Y02934D01*
X01087D01*
Y0291D01*
X01063D01*
X0156096Y02852D02*
Y02892D01*
X0160096D01*
Y02852D01*
X0156096D01*
Y02702D02*
Y02742D01*
X0160096D01*
Y02702D01*
X0156096D01*
X02005Y0342D02*
Y0341D01*
X02025D01*
Y0342D01*
X02035D01*
Y0344D01*
X02025D01*
Y0345D01*
X02005D01*
Y0344D01*
X01995D01*
Y0342D01*
X02005D01*
X02009Y03424D02*
Y03418D01*
X02021D01*
Y03424D01*
X02027D01*
Y03436D01*
X02021D01*
Y03442D01*
X02009D01*
Y03436D01*
X02003D01*
Y03424D01*
X02009D01*
X0142307Y0072307D02*
Y0071307D01*
X0144307D01*
Y0072307D01*
X0145307D01*
Y0074307D01*
X0144307D01*
Y0075307D01*
X0142307D01*
Y0074307D01*
X0141307D01*
Y0072307D01*
X0142307D01*
X0142707Y0072707D02*
Y0072107D01*
X0143907D01*
Y0072707D01*
X0144507D01*
Y0073907D01*
X0143907D01*
Y0074507D01*
X0142707D01*
Y0073907D01*
X0142107D01*
Y0072707D01*
X0142707D01*
X0333Y01655D02*
Y01645D01*
X0335D01*
Y01655D01*
X0336D01*
Y01675D01*
X0335D01*
Y01685D01*
X0333D01*
Y01675D01*
X0332D01*
Y01655D01*
X0333D01*
X03334Y01659D02*
Y01653D01*
X03346D01*
Y01659D01*
X03352D01*
Y01671D01*
X03346D01*
Y01677D01*
X03334D01*
Y01671D01*
X03328D01*
Y01659D01*
X03334D01*
X0332861Y0223861D02*
Y0222861D01*
X0334861D01*
Y0223861D01*
X0335861D01*
Y0225861D01*
X0334861D01*
Y0226861D01*
X0332861D01*
Y0225861D01*
X0331861D01*
Y0223861D01*
X0332861D01*
X0333261Y0224261D02*
Y0223661D01*
X0334461D01*
Y0224261D01*
X0335061D01*
Y0225461D01*
X0334461D01*
Y0226061D01*
X0333261D01*
Y0225461D01*
X0332661D01*
Y0224261D01*
X0333261D01*
D18*
X03252Y0194421D02*
G03*
X03252Y0194421I-00012J0D01*
G01*
Y0184579D02*
G03*
X03252Y0184579I-00012J0D01*
G01*
Y0252921D02*
G03*
X03252Y0252921I-00012J0D01*
G01*
Y0243079D02*
G03*
X03252Y0243079I-00012J0D01*
G01*
Y0117614D02*
G03*
X03252Y0117614I-00012J0D01*
G01*
Y0127456D02*
G03*
X03252Y0127456I-00012J0D01*
G01*
D109*
X0326Y0194421D02*
G03*
X0326Y0194421I-0002J0D01*
G01*
Y0184579D02*
G03*
X0326Y0184579I-0002J0D01*
G01*
Y0252921D02*
G03*
X0326Y0252921I-0002J0D01*
G01*
Y0243079D02*
G03*
X0326Y0243079I-0002J0D01*
G01*
X00135Y0123264D02*
G03*
X00135Y0123264I-0002J0D01*
G01*
Y0113264D02*
G03*
X00135Y0113264I-0002J0D01*
G01*
Y0103264D02*
G03*
X00135Y0103264I-0002J0D01*
G01*
Y0093264D02*
G03*
X00135Y0093264I-0002J0D01*
G01*
Y0083264D02*
G03*
X00135Y0083264I-0002J0D01*
G01*
Y0073264D02*
G03*
X00135Y0073264I-0002J0D01*
G01*
Y0063264D02*
G03*
X00135Y0063264I-0002J0D01*
G01*
Y0053264D02*
G03*
X00135Y0053264I-0002J0D01*
G01*
Y0043264D02*
G03*
X00135Y0043264I-0002J0D01*
G01*
Y0033264D02*
G03*
X00135Y0033264I-0002J0D01*
G01*
X004418Y0053264D02*
G03*
X004418Y0053264I-0002J0D01*
G01*
Y0043264D02*
G03*
X004418Y0043264I-0002J0D01*
G01*
Y0023264D02*
G03*
X004418Y0023264I-0002J0D01*
G01*
Y0063264D02*
G03*
X004418Y0063264I-0002J0D01*
G01*
Y0033264D02*
G03*
X004418Y0033264I-0002J0D01*
G01*
Y0073264D02*
G03*
X004418Y0073264I-0002J0D01*
G01*
X010408Y0173307D02*
G03*
X010408Y0173307I-0002J0D01*
G01*
Y0213307D02*
G03*
X010408Y0213307I-0002J0D01*
G01*
Y0183307D02*
G03*
X010408Y0183307I-0002J0D01*
G01*
Y0193307D02*
G03*
X010408Y0193307I-0002J0D01*
G01*
Y0203307D02*
G03*
X010408Y0203307I-0002J0D01*
G01*
Y0163307D02*
G03*
X010408Y0163307I-0002J0D01*
G01*
Y0153307D02*
G03*
X010408Y0153307I-0002J0D01*
G01*
Y0133307D02*
G03*
X010408Y0133307I-0002J0D01*
G01*
Y0123307D02*
G03*
X010408Y0123307I-0002J0D01*
G01*
Y0113307D02*
G03*
X010408Y0113307I-0002J0D01*
G01*
Y0143307D02*
G03*
X010408Y0143307I-0002J0D01*
G01*
Y0103307D02*
G03*
X010408Y0103307I-0002J0D01*
G01*
Y0083307D02*
G03*
X010408Y0083307I-0002J0D01*
G01*
Y0023307D02*
G03*
X010408Y0023307I-0002J0D01*
G01*
Y0033307D02*
G03*
X010408Y0033307I-0002J0D01*
G01*
Y0043307D02*
G03*
X010408Y0043307I-0002J0D01*
G01*
Y0053307D02*
G03*
X010408Y0053307I-0002J0D01*
G01*
Y0093307D02*
G03*
X010408Y0093307I-0002J0D01*
G01*
Y0063307D02*
G03*
X010408Y0063307I-0002J0D01*
G01*
Y0073307D02*
G03*
X010408Y0073307I-0002J0D01*
G01*
X004418Y0173264D02*
G03*
X004418Y0173264I-0002J0D01*
G01*
Y0213364D02*
G03*
X004418Y0213364I-0002J0D01*
G01*
Y0183264D02*
G03*
X004418Y0183264I-0002J0D01*
G01*
Y0193264D02*
G03*
X004418Y0193264I-0002J0D01*
G01*
Y0203264D02*
G03*
X004418Y0203264I-0002J0D01*
G01*
Y0163264D02*
G03*
X004418Y0163264I-0002J0D01*
G01*
Y0113264D02*
G03*
X004418Y0113264I-0002J0D01*
G01*
Y0083264D02*
G03*
X004418Y0083264I-0002J0D01*
G01*
Y0093264D02*
G03*
X004418Y0093264I-0002J0D01*
G01*
Y0103264D02*
G03*
X004418Y0103264I-0002J0D01*
G01*
Y0123264D02*
G03*
X004418Y0123264I-0002J0D01*
G01*
Y0133264D02*
G03*
X004418Y0133264I-0002J0D01*
G01*
Y0143264D02*
G03*
X004418Y0143264I-0002J0D01*
G01*
Y0153264D02*
G03*
X004418Y0153264I-0002J0D01*
G01*
X0326Y0117614D02*
G03*
X0326Y0117614I-0002J0D01*
G01*
Y0127456D02*
G03*
X0326Y0127456I-0002J0D01*
G01*
X01315Y0103307D02*
G03*
X01315Y0103307I-0002J0D01*
G01*
Y0113307D02*
G03*
X01315Y0113307I-0002J0D01*
G01*
Y0123307D02*
G03*
X01315Y0123307I-0002J0D01*
G01*
Y0133307D02*
G03*
X01315Y0133307I-0002J0D01*
G01*
Y0143307D02*
G03*
X01315Y0143307I-0002J0D01*
G01*
Y0153307D02*
G03*
X01315Y0153307I-0002J0D01*
G01*
Y0163307D02*
G03*
X01315Y0163307I-0002J0D01*
G01*
Y0173307D02*
G03*
X01315Y0173307I-0002J0D01*
G01*
Y0183307D02*
G03*
X01315Y0183307I-0002J0D01*
G01*
Y0193307D02*
G03*
X01315Y0193307I-0002J0D01*
G01*
M02*
