G04*
G04 #@! TF.GenerationSoftware,Altium Limited,Altium Designer,24.10.1 (45)*
G04*
G04 Layer_Color=16711935*
%FSTAX25Y25*%
%MOIN*%
G70*
G04*
G04 #@! TF.SameCoordinates,1923906C-CB37-41EA-8CB1-2C45B085819D*
G04*
G04*
G04 #@! TF.FilePolarity,Negative*
G04*
G01*
G75*
%ADD52R,0.09800X0.06800*%
%ADD53O,0.09800X0.06800*%
%ADD54R,0.05131X0.05131*%
%ADD55C,0.05131*%
%ADD56C,0.07800*%
%ADD57C,0.09855*%
%ADD58R,0.09855X0.09855*%
%ADD59R,0.08674X0.08674*%
%ADD60C,0.02769*%
%ADD61C,0.20485*%
%ADD62R,0.09855X0.09855*%
%ADD63R,0.05642X0.05642*%
%ADD64C,0.05642*%
%ADD65O,0.10800X0.07800*%
%ADD66R,0.10800X0.07800*%
%ADD67O,0.08674X0.08674*%
%ADD68C,0.06351*%
%ADD69R,0.06351X0.06351*%
%ADD70R,0.08800X0.10800*%
%ADD71O,0.08800X0.10800*%
%ADD72C,0.08674*%
%ADD73C,0.08800*%
%ADD74R,0.08800X0.08800*%
%ADD75R,0.08123X0.08123*%
%ADD76C,0.08123*%
%ADD77C,0.03556*%
%ADD78C,0.03556*%
D52*
X0267276Y0234861D02*
D03*
Y01765D02*
D03*
D53*
Y0224861D02*
D03*
Y0214861D02*
D03*
Y0204861D02*
D03*
X0297276Y0234861D02*
D03*
Y0224861D02*
D03*
Y0214861D02*
D03*
Y0204861D02*
D03*
X0267276Y01665D02*
D03*
Y01565D02*
D03*
Y01465D02*
D03*
X0297276Y01765D02*
D03*
Y01665D02*
D03*
Y01565D02*
D03*
Y01465D02*
D03*
D54*
X0324Y0194421D02*
D03*
Y0252921D02*
D03*
Y0127456D02*
D03*
D55*
Y0184579D02*
D03*
Y0243079D02*
D03*
Y0117614D02*
D03*
D56*
X0085039Y02722D02*
D03*
Y02922D02*
D03*
X0084Y03168D02*
D03*
Y03368D02*
D03*
X01275Y03168D02*
D03*
X01075D02*
D03*
X01275Y02922D02*
D03*
X01075D02*
D03*
D57*
X00125Y02715D02*
D03*
Y03155D02*
D03*
X02475Y00125D02*
D03*
X02915D02*
D03*
D58*
X00125Y02915D02*
D03*
Y03355D02*
D03*
D59*
X00115Y0123264D02*
D03*
Y0113264D02*
D03*
Y0103264D02*
D03*
Y0093264D02*
D03*
Y0083264D02*
D03*
Y0073264D02*
D03*
Y0063264D02*
D03*
Y0053264D02*
D03*
Y0043264D02*
D03*
Y0033264D02*
D03*
X0268681Y00463D02*
D03*
Y00614D02*
D03*
X01295Y0103307D02*
D03*
Y0113307D02*
D03*
Y0123307D02*
D03*
Y0133307D02*
D03*
Y0143307D02*
D03*
Y0153307D02*
D03*
Y0163307D02*
D03*
Y0173307D02*
D03*
Y0183307D02*
D03*
Y0193307D02*
D03*
D60*
X00092Y00089D02*
D03*
X0006857Y0014557D02*
D03*
X00092Y0020214D02*
D03*
X0014857Y0022557D02*
D03*
X0020514Y0020214D02*
D03*
X0022857Y0014557D02*
D03*
X0020514Y00089D02*
D03*
X0014857Y0006557D02*
D03*
X03212Y00089D02*
D03*
X0318857Y0014557D02*
D03*
X03212Y0020214D02*
D03*
X0326857Y0022557D02*
D03*
X0332514Y0020214D02*
D03*
X0334857Y0014557D02*
D03*
X0332514Y00089D02*
D03*
X0326857Y0006557D02*
D03*
X0023Y0364817D02*
D03*
X0020657Y0370474D02*
D03*
X0015Y0372817D02*
D03*
X0009343Y0359161D02*
D03*
X0007Y0364817D02*
D03*
X0009343Y0370474D02*
D03*
X0020657Y0359161D02*
D03*
X0015Y0356817D02*
D03*
X0326857Y0357057D02*
D03*
X0332514Y03594D02*
D03*
X0334857Y0365057D02*
D03*
X0332514Y0370714D02*
D03*
X0326857Y0373057D02*
D03*
X03212Y0370714D02*
D03*
X0318857Y0365057D02*
D03*
X03212Y03594D02*
D03*
D61*
X0327Y00145D02*
D03*
X0015D02*
D03*
X0327Y0365D02*
D03*
X0015D02*
D03*
D62*
X02275Y00125D02*
D03*
X02715D02*
D03*
D63*
X0266831Y0292051D02*
D03*
D64*
Y0282051D02*
D03*
Y0272051D02*
D03*
Y0262051D02*
D03*
X0297815D02*
D03*
Y0272051D02*
D03*
Y0282051D02*
D03*
Y0292051D02*
D03*
D65*
X006Y029D02*
D03*
Y0319D02*
D03*
X01595Y0341D02*
D03*
X0158096Y02872D02*
D03*
D66*
X006Y0275D02*
D03*
Y0334D02*
D03*
X01595Y0326D02*
D03*
X0158096Y02722D02*
D03*
D67*
X004218Y0053264D02*
D03*
Y0043264D02*
D03*
Y0023264D02*
D03*
Y0063264D02*
D03*
Y0033264D02*
D03*
Y0073264D02*
D03*
X010208Y0173307D02*
D03*
Y0213307D02*
D03*
Y0183307D02*
D03*
Y0193307D02*
D03*
Y0203307D02*
D03*
Y0163307D02*
D03*
Y0153307D02*
D03*
Y0133307D02*
D03*
Y0123307D02*
D03*
Y0113307D02*
D03*
Y0143307D02*
D03*
Y0103307D02*
D03*
Y0083307D02*
D03*
Y0023307D02*
D03*
Y0033307D02*
D03*
Y0043307D02*
D03*
Y0053307D02*
D03*
Y0093307D02*
D03*
Y0063307D02*
D03*
Y0073307D02*
D03*
X004218Y0173264D02*
D03*
Y0213364D02*
D03*
Y0183264D02*
D03*
Y0193264D02*
D03*
Y0203264D02*
D03*
Y0163264D02*
D03*
Y0113264D02*
D03*
Y0083264D02*
D03*
Y0093264D02*
D03*
Y0103264D02*
D03*
Y0123264D02*
D03*
Y0133264D02*
D03*
Y0143264D02*
D03*
Y0153264D02*
D03*
D68*
X01655Y00569D02*
D03*
X01755D02*
D03*
D69*
X01855D02*
D03*
D70*
X0202Y0093307D02*
D03*
X01075Y03368D02*
D03*
D71*
X0212Y0093307D02*
D03*
X0222D02*
D03*
X01275Y03368D02*
D03*
X01175D02*
D03*
D72*
X02275Y00463D02*
D03*
Y00614D02*
D03*
D73*
X0136046Y025D02*
D03*
X0120039D02*
D03*
D74*
X0171046D02*
D03*
X0085039D02*
D03*
D75*
X0127673Y02722D02*
D03*
D76*
X0117673D02*
D03*
X0107673D02*
D03*
D77*
X02015Y0343D02*
D03*
D78*
X0143307Y0073307D02*
D03*
M02*
