M48
;Layer_Color=9474304
;FILE_FORMAT=4:4
METRIC,LZ
;TYPE=PLATED
T01F00S00C0.5000
T02F00S00C0.7500
T03F00S00C0.7874
T04F00S00C0.8128
T05F00S00C0.8200
T06F00S00C0.8890
T07F00S00C0.9400
T08F00S00C0.9906
T09F00S00C1.0000
T10F00S00C1.2000
T11F00S00C1.2400
T12F00S00C3.1000
%
T01
X00023368Y00022606
X00017416Y00036974
X00023368Y00051343
X00037736Y00057294
X00052105Y00051343
X00058056Y00036974
X00052105Y00022606
X00037736Y00016654
X00364Y001862
X00815848Y00051343
X00809896Y00036974
X00815848Y00022606
X00830216Y00016654
X00844585Y00022606
X00850536Y00036974
X00844585Y00051343
X00830216Y00057294
X0084836Y0042291
X00848008Y00571148
X00052468Y00912268
X0005842Y00926636
X00052468Y00941004
X000381Y00946956
X00023732Y00941004
X0001778Y00926636
X00023732Y00912268
X000381Y00906316
X0051181Y0087122
X00815848Y00912876
X00830216Y00906924
X00844585Y00912876
X00850536Y00927244
X00844585Y00941612
X00830216Y00947564
X00815848Y00941612
X00809896Y00927244
T02
X0082296Y00298739
Y00323739
Y0046883
Y0049383
Y0061742
Y0064242
T03
X0067888Y0037211
X0075508
Y0039751
Y0042291
Y0044831
Y00520348
Y00545748
Y00571148
Y00596548
X0067888
Y00571148
Y00545748
Y00520348
Y0044831
Y0042291
Y0039751
X0032385Y00742187
X0027305
X00215999
Y00691387
X0021336Y00804673
Y00855473
X0027305Y00804673
X0032385
T04
X00401565Y00691387
Y00729487
X001524Y007366
Y006985
Y0081026
Y0084836
X0040513Y0086614
Y0082804
T05
X0067775Y00665609
Y00691009
Y00716409
Y00741809
X0075645
Y00716409
Y00691009
Y00665609
T06
X00434458Y00635
X00345558
X00304899
X00215999
T07
X0042037Y00144526
X0044577
X0047117
T08
X0051308Y00237
X0053848
X0056388
X0032385Y00855473
X0029845
X0027305
T09
X0002921Y00084491
Y00109891
Y00135291
Y00160691
Y00186091
Y00211491
Y00236891
Y00262291
Y00287691
Y00313091
X00107137
Y00287691
Y00262291
Y00236891
Y00211491
Y00186091
Y00160691
Y00135291
Y00109891
Y00084491
Y00059091
X00259283Y000592
Y000846
Y0011
Y001354
Y001608
Y001862
Y002116
Y00237
Y002624
Y002878
Y003132
Y003386
Y00364
Y003894
X0032893
Y00364
Y003386
Y003132
Y002878
Y002624
X00107137Y00338491
Y00363891
Y00389291
Y00414691
Y00440091
Y00465491
Y00490891
Y00516291
Y00541945
X00259283Y005418
Y005164
Y00491
Y004656
Y004402
Y004148
X0032893
Y004402
Y004656
Y00491
T10
X0057785Y0003175
X0062865
X0068961
X0074041
X0068245Y00117602
Y00155956
X0057785
Y00117602
X0003175Y0068961
Y0074041
Y0080137
Y0085217
T11
X0027349Y00691387
X0029889
X0032429
T12
X000381Y0003683
X0083058
X000381Y009271
X0083058
M30
